<?xml version="1.0" encoding="UTF-8"?>
<svg id="Layer_2" data-name="Layer 2" xmlns="http://www.w3.org/2000/svg" width="512" height="512" viewBox="0 0 512 512">
  <defs>
    <style>
      .cls-1 {
        fill: #64d500;
      }

      .cls-2 {
        fill: #fbe4a0;
      }

      .cls-3 {
        fill: #ed1c24;
      }

      .cls-4 {
        fill: #fff;
      }

      .cls-5 {
        fill: #f7cd65;
      }
    </style>
  </defs>
  <g id="Layer_1-2" data-name="Layer 1">
    <g>
      <path class="cls-4" d="M512,0v512H0V0h512ZM457.58,196.42c1.46-15.08,4.03-30.08,5.41-45.18.79-8.63,1.69-18.38,2.02-26.98.45-11.77,1.71-24.91-9.87-31.68l-35.16-20.34c-1.33-1.5,1.03-6.88-1.77-10.73-1.81-2.48-15.71-9.6-19.38-11.62-13.63-7.49-29.83-16.31-44.34-21.66-13.68-5.04-23.7-3.51-37.72-3.24-45.5.9-91.14,2.94-136.53,5.47-14.56.81-39.54-1.22-49.5,11-7.67,9.41-9.48,41.34-10.74,54.26-3.22,32.88-5.16,65.98-6.51,98.99-.43,10.47-2.2,23.58-.26,33.77.61,3.19,3.29,5.71-.33,7.13-4.93,1.94-9.96-.84-13.11-4.69-.93-1.14-3.45-5.04-3.7-6.33-.42-2.16,1.53-5.34,2.15-7.63,1.98-7.31,1.87-14.53-.87-21.63-.53-1.38-3.32-5.99-3.35-6.6-.07-1.57,2.22-7.25,2.46-10.02,1.19-14-4.05-18.68-9.75-29.73-6.69-12.95.55-18.37,3.4-30.12,4.47-18.43-11.51-26.6-25.15-14.65-10.74,9.41-13.82,26.85-8,39.76-11.84-3.51-26.24-1.54-34.51,8.24-6.98,8.26-8.09,19.17-1.59,28.1-4.92,7.15-4.21,20.28,2.35,26.17.8.72,2.57,1.08,3.01,1.98.49,1.02.12,6.3.78,8.73,2.76,10.22,13.94,16.27,23.88,17.37,2.7,8.45,12.41,9.48,20.01,8.99,4.46,9.65,14.42,18.08,24.57,21.17,19,5.8,36.04-3.71,48.81-17.14,20.32,2.33,40.9,2.59,61.18,4.91.28.41-1.43,6.98-2.51,7.7-7.09,2.77-15.25,3.81-22.23,6.77-1.16.49-2.32.85-3.26,1.74-3.87,3.65-5.34,22.07-2.91,26.46,2,3.61,12.25,5.77,16.32,6.68,4.45.99,9.08,1.61,13.61,2.14-14.95,24.88-19.96,55.85-15.5,84.49-9.73,1.1-16.85,8.91-14.01,19-12.47-10.48-30.08-18.34-46.68-15.93-25.68,3.72-43.13,28.99-30.08,53.44.58,1.09,2.71,3.57,2.78,4.26.12,1.15-1.26,3.01-1.47,4.52-1.74,12.78,17.93,20.21,27.74,22.67,20.4,5.12,49.86,4.55,68.55-5.88,1.2-.67,4.28-3.34,5-3.46s6.17,2.2,8.4,2.39c10.48.91,32.66-4.4,33.76-17.27.25-2.95-1.3-6.49-.91-8.38.21-1.04,1.93-3.13,2.51-4.53,2.55-6.25,2.79-13.45,0-19.68-.89-1.99-4.18-5.68-4.51-7.03-.38-1.57,1.33-5.03,1.36-6.92.02-1.03-.62-3.36-.98-4.42-2.87-8.5-12.45-11.64-20.36-13.4-3.07-14.59-3.67-30.77-1.54-45.56,1.37-9.54,4.58-21.46,10.02-29.48,1.85-2.73,3.11-5.02,6.67-4.87,9.84.41,20.09,2.11,29.99,2.52l22.24.51c-6.74,30.04,2.84,61.32,22.29,84.46-4.22,5.98-5,12.32-1.79,19.03-18.83-2.81-38.49,7.05-43.74,26.01-2.52,9.1-1.82,17.98,3.76,25.73.59.82,2.5,2.16,2.72,2.74.17.45-.92,4.35-.69,6.23,1.47,11.7,23.07,17.19,32.71,18.29,24.31,2.76,46.47-4.06,63.5-21.49,3.2-3.28,3.72-3.75,7.4-6.6,5.74-4.43,12.23-12.5,11.87-20.17-.11-2.39-2.08-5.92-2.03-6.94.05-.9,1.36-3.41,1.68-4.88,2.94-13.63-3.67-27.75-16.07-34.02.19-15.44-13.37-20.77-26.87-19.92-1.53.1-4.16,1.25-5.21.78-13.18-12.99-22.51-31.27-23.52-50.02-.23-4.33.57-14.85,2.25-18.74.35-.81.69-1.58,1.62-1.88,12.59-2.42,25-5.52,37.12-9.62.95,8.56,3.83,17.96,11.35,22.9,1.27.84,3.85,1.68,4.64,2.36.88.76,1.94,3.54,2.8,4.7,3.64,4.93,11.32,9.34,17.55,9.5,1.62.04,3.15-.87,4.82-.36.64.2,2.56,2.17,3.7,2.8,12.42,6.92,28.09,2.78,38.89-5.41,9.93-7.53,20.94-23.29,7.86-33.3,1.13-3.59,1.23-7.17.36-10.85,7.2-4.44,7.87-13.14,5.12-20.53,13.8-10.98,31.13-27.48,27.77-46.91-2.05-11.82-11.33-22.98-21.77-28.47Z"/>
      <path d="M457.58,196.42c10.44,5.49,19.72,16.66,21.77,28.47,3.37,19.43-13.97,35.94-27.77,46.91,2.75,7.39,2.08,16.09-5.12,20.53.86,3.68.77,7.26-.36,10.85,13.08,10.01,2.07,25.77-7.86,33.3-10.8,8.19-26.48,12.33-38.89,5.41-1.14-.63-3.06-2.61-3.7-2.8-1.66-.51-3.19.4-4.82.36-6.22-.15-13.91-4.57-17.55-9.5-.86-1.16-1.91-3.94-2.8-4.7-.79-.68-3.37-1.52-4.64-2.36-7.52-4.94-10.4-14.35-11.35-22.9-12.12,4.1-24.54,7.21-37.12,9.62-.93.3-1.27,1.07-1.62,1.88-1.67,3.89-2.48,14.41-2.25,18.74,1,18.75,10.34,37.03,23.52,50.02,1.05.47,3.69-.69,5.21-.78,13.51-.85,27.06,4.48,26.87,19.92,12.39,6.27,19.01,20.39,16.07,34.02-.32,1.46-1.63,3.97-1.68,4.88-.05,1.02,1.92,4.55,2.03,6.94.36,7.67-6.13,15.74-11.87,20.17-3.68,2.84-4.2,3.32-7.4,6.6-17.03,17.42-39.19,24.24-63.5,21.49-9.64-1.09-31.25-6.59-32.71-18.29-.24-1.88.86-5.78.69-6.23-.22-.58-2.13-1.92-2.72-2.74-5.58-7.76-6.28-16.63-3.76-25.73,5.25-18.95,24.91-28.82,43.74-26.01-3.2-6.71-2.43-13.04,1.79-19.03-19.46-23.15-29.03-54.43-22.29-84.46l-22.24-.51c-9.91-.42-20.16-2.11-29.99-2.52-3.56-.15-4.82,2.14-6.67,4.87-5.44,8.02-8.65,19.93-10.02,29.48-2.13,14.8-1.53,30.97,1.54,45.56,7.91,1.76,17.48,4.9,20.36,13.4.36,1.05,1,3.38.98,4.42-.03,1.89-1.74,5.35-1.36,6.92.33,1.35,3.62,5.04,4.51,7.03,2.78,6.24,2.55,13.44,0,19.68-.57,1.4-2.29,3.49-2.51,4.53-.39,1.88,1.16,5.42.91,8.38-1.1,12.88-23.28,18.19-33.76,17.27-2.23-.19-7.68-2.51-8.4-2.39s-3.8,2.79-5,3.46c-18.68,10.43-48.15,11-68.55,5.88-9.81-2.46-29.48-9.89-27.74-22.67.21-1.52,1.59-3.37,1.47-4.52-.07-.69-2.19-3.17-2.78-4.26-13.05-24.45,4.39-49.72,30.08-53.44,16.6-2.4,34.21,5.45,46.68,15.93-2.85-10.09,4.28-17.9,14.01-19-4.46-28.64.55-59.61,15.5-84.49-4.53-.53-9.16-1.15-13.61-2.14-4.07-.91-14.32-3.07-16.32-6.68-2.43-4.38-.97-22.81,2.91-26.46.95-.89,2.11-1.25,3.26-1.74,6.98-2.96,15.14-4,22.23-6.77,1.08-.72,2.79-7.29,2.51-7.7-20.27-2.32-40.85-2.58-61.18-4.91-12.77,13.43-29.81,22.94-48.81,17.14-10.15-3.1-20.12-11.52-24.57-21.17-7.59.49-17.31-.54-20.01-8.99-9.95-1.1-21.12-7.15-23.88-17.37-.66-2.43-.29-7.71-.78-8.73-.44-.91-2.21-1.26-3.01-1.98-6.56-5.89-7.26-19.02-2.35-26.17-6.5-8.93-5.38-19.84,1.59-28.1,8.27-9.78,22.67-11.75,34.51-8.24-5.82-12.9-2.74-30.34,8-39.76,13.64-11.95,29.62-3.79,25.15,14.65-2.85,11.75-10.09,17.17-3.4,30.12,5.71,11.05,10.94,15.73,9.75,29.73-.24,2.78-2.53,8.46-2.46,10.02.03.61,2.81,5.22,3.35,6.6,2.74,7.1,2.85,14.32.87,21.63-.62,2.29-2.57,5.47-2.15,7.63.25,1.29,2.77,5.19,3.7,6.33,3.14,3.85,8.18,6.63,13.11,4.69,3.62-1.42.94-3.94.33-7.13-1.94-10.19-.17-23.3.26-33.77,1.35-33.01,3.29-66.12,6.51-98.99,1.26-12.92,3.07-44.85,10.74-54.26,9.96-12.22,34.94-10.19,49.5-11,45.38-2.53,91.03-4.57,136.53-5.47,14.02-.28,24.05-1.8,37.72,3.24,14.51,5.35,30.71,14.17,44.34,21.66,3.67,2.02,17.58,9.14,19.38,11.62,2.81,3.85.44,9.23,1.77,10.73l35.16,20.34c11.57,6.77,10.32,19.91,9.87,31.68-.33,8.59-1.23,18.35-2.02,26.98-1.39,15.09-3.96,30.1-5.41,45.18ZM324.9,28.65c-39.83.29-79.8,2.96-119.63,4.87-16.54.8-33.49.55-50.02,1.98-22.6,1.96-24.66,10.54-27.68,30.82-5.7,38.19-7.65,79.75-9.58,118.42-.62,12.36-2.41,26.8-1.51,39.02,1.3,17.67,14.73,18.81,29.27,20.23,43.59,4.24,89.78,6,133.52,7.48,11.72.4,31.37,2.91,42.11-.35,11.55-3.5,15.02-12.53,16.97-23.53,2.25-12.68,3.36-27.41,4.64-40.36,3.35-33.89,5.66-68.03,6.98-102.02.44-11.36,1.61-23.08,1.04-34.5-.33-6.61-.95-15.57-6.77-19.73-4.33-3.09-14.04-2.39-19.35-2.36ZM415.35,64.14c-21.47-12.12-43.06-24.8-66.35-33.14.65,1.92,1.9,3.08,2.64,5.1,4.29,11.71,1.42,41.71.86,55.15-1.72,41.24-4.31,84.55-9.57,125.43-1.22,9.48-2.72,22.52-8.95,30.05l-3.99,4.26c11.37-1.35,22.85-1.8,34.24-3,8.99-.95,19.59-1.92,28.36-3.64,7.96-1.57,8.29-4.75,9.76-12.24,1.94-9.86,2.34-20.15,3.63-30.11-3.1-.15-6.05-1.42-9.09-2.16-10.34-2.52-25.61-2.8-21.07-18.25,4.19-14.25,23.26-8.07,33.66-6.09,2.39-27.06,4.29-54.09,5.51-81.25.39-8.76,1.76-18.8,1.02-27.53-.08-.91-.04-1.84-.67-2.59ZM453.5,194c3.32-23.45,6.1-47.04,7.01-70.74.26-6.77,1.89-16.28-2.29-22.22-3.48-4.96-23.11-15.59-29.38-19.12-3.37-1.89-6.81-3.82-10.33-5.41l-6.48,100.48c8.02,2.05,16.38,4.96,23.96,8.29,5.97,2.62,11.55,6.11,17.51,8.73ZM48,217c7.83,1.82,21.08,1.73,22.77-8.47,2.01-12.1-16.66-15.14-25.38-13.38-20.28,4.1-19.4,26.66-1.39,33.59,19.31,7.43,40.87-4.93,42.48-26,.18-2.34-.64-6.39-.4-7.89.17-1.12,3.5-6.31,4.27-8.74,5.96-18.81-2.43-23.29-8.79-37.93-5.35-12.32,1.08-18.24,4.06-29.3,4.56-16.92-9.19-21.08-19.64-9.64-9.29,10.17-10.02,28.34-1.9,39.43,1.98,2.7,4.86,4.36,6.5,7.5,3.02,5.76,2.73,13.39-2.07,18.09,8.05,6.02,9.58,17.02,2.46,24.5,9.53,13.52-4.51,25.48-18.58,21.6-1.59-.44-4.28-1.38-4.4-3.35ZM43.4,146.65c-12.89,1.31-26.66,12.66-21.49,26.7,2.24,6.08,3.13,3.16,6.13.95,10.6-7.79,27.14-8.6,38.21-1.35,10.93-16.07-7.7-27.84-22.86-26.3ZM42.88,171.63c-16.31,2.05-28.6,19.17-15.59,32.85.93.21,2.97-3.82,3.72-4.72,7.73-9.19,20.92-10.18,31.62-6.14,4.26,1.61,6.33,5.38,8.81-.42,7.22-16.85-16.13-23.13-28.57-21.57ZM91.49,192.5c-2.63-1.84-1.94,9.54-2,10.24-1.19,14.44-11.42,26.72-25.58,29.92-3.06.69-5.89.76-8.91,1.34,5.25,7.99,16.01,6.07,23.33,2.08,14.99-8.18,22.13-28.37,13.16-43.58ZM405.5,232c10.16-2.07,21.17-3.45,31-6.74,1.37-.46,8.79-3.13,8.49-4.5-.4-1.83-14.83-9.06-17.32-10.19-6.2-2.8-12.67-5.1-19.18-7.07l-3,28.5ZM448,226c-13.52,4.7-27.52,7.73-41.64,10.11-2.03,2.23-1.62,5.17-3.65,7.85-4.31,5.67-16.97,4.91-23.46,6.54l-36.75,3.51c1.54,2.48,1.22,8.5,4,9.75l18.7,4.68c8.31-11.46,21.95-17.27,35.97-17.52,6.55-10.58,19.94-9.35,28.85-2.65l.98.03c8.04-4.58,18.53-11.67,17-22.3ZM426.5,251.01c-19.08-10.8-28.27,4.01-18.58,21.33,5.7,10.19,21.55,22.57,33.72,18.05,6.71-2.49,8.79-10.55,6.36-16.89-5.16,1.06-4.88,5.98-11.27,5.53-9.16-.65-25.45-19.71-14.58-25.63.61-.33,5.39-1.29,4.35-2.39ZM300.5,269.5l.29-13.03-1.04-.47-89.42-4.02-3.35,11.23c.08.85,14.99,2.59,16.77,2.79,13.27,1.45,26.72,1.75,39.98,3.02l36.77.48ZM369,320.5v-10.25c0-.48,1.39-3.74,2.5-3.25v8.25c0,.61.88,3.97,1.14,4.86,2.66,8.97,10.82,15.49,20.35,14.89.35-.32-3.77-8.33,0-8.5,6.92,29.84,57.71,8.91,54.46-14.71-.19-1.41-1.25-4.64-3.17-4.33-.4.06-3.39,5.65-4.3,6.77-1.4,1.74-4.51,4.82-6.25,6.25-1.9,1.56-11.11,7.62-13.24,6.01-.29-1.28.34-.87.94-1.29,2.46-1.73,5.28-3,7.73-4.79,8.26-6.05,14.78-15.4,13.76-26.09l-.74-.79c-20.56,3.56-42.64-17.08-41.26-37.72l-.4-.6c-25-.55-44.17,23.74-41.48,47.98.64,5.82,4.83,14.25,9.95,17.3ZM358,270.51c-4.37-.27-9.46-2.55-13.75-2.55-6.23,0-15.35,2.41-22,3.04-31.93,3.03-68.94,1.06-100.99-2.5-4.17-.46-12.86-1-16.41-2.09-.86-.27-1.23-1.06-1.38-1.89l-19.47,6.24c17.51,4.43,36.19,6.57,54.26,7.74,22.05,1.44,45.42,1.55,67.47.48,18.29-.88,32.79-4.16,50.52-7.48.73-.14,1.55,0,1.75-.99ZM305.95,282.05l-35.72.47c-21.61-1-43.39-1.57-64.91-4.59-8.42-1.18-16.83-2.87-25.09-4.81-.91.16-1.9,5.65-2.08,6.78-.53,3.28-1.65,12.37,1.49,14.22,2.67,1.57,11,3.44,14.34,4.16,28.8,6.12,73.91,9.81,103.25,8.7,1-.04,6.02-.39,6.45-.54,1.17-.39,2.07-6.75,2.26-8.24.3-2.36,1.17-15.14,0-16.13ZM354.94,294.95c.23-3.86,1.18-8.15,2.41-11.84,1.18-3.55,3.07-6.75,4.64-10.11-17.31,3.89-34.72,7.75-52.5,9,.48,8.25-.7,16.34-1.49,24.5,16.09-1.8,31.86-5.83,46.94-11.55ZM349.75,383.5c-3.03-.36-6.65.26-9.75,0,1.29,2.99,4.71,4.95,6.71,7.54,3.21,4.17,4.06,7.06.5,11.41-4.72,5.77-14.66,7.25-21.48,5.07-5.31-1.7-8.53-5.76-12.94-8.56-4.01,4.69-3.35,12.17,1.48,16.02,2.3,1.83,12.55,5.58,15.53,5.97,4.78.64,10.4-.3,15.2-.45.12,1.66-2.04,1.73-3.19,2.06-2.87.82-5.82,1.11-8.81.94.36,1.03,9.25,5.86,8,6.99-4.22-1.38-7.99-4.22-12.16-6.09-9.8-4.39-22.29-7.56-33.02-5.84-30.06,4.81-41.72,43.77-9.45,55.81,30.64,11.44,72.26-1.69,89.54-29.72,9.08-14.72,7.37-32.12-8.15-41.18-2.49,5.04-6.02,11.45-12.26,12.01l7.74-11.01c4.86-10.46-3.03-19.74-13.49-20.99ZM189.99,392.5c-7.05,1.17-13.72,5.93-10.59,13.85,1.96,4.95,8.45,8.38,13.12,10.38,1.73.74,10.41,3.29,10.75,3.75,1.35,1.85-2.87,1.51-3.89,1.38-8.29-1.05-16.58-6.38-22.63-11.87-.07,2.77,2.82,4.91,3.54,7.46.14.52.69,2.54-.53,2.03-14.88-20.04-45.59-32.78-67.91-16.9-14.97,10.65-18.45,30.85-6.33,45.14,16.49,19.44,54.52,19.9,77.5,15.03,6.8-1.44,13.18-4.59,19.47-6.03,8.05-1.85,14.85-1.65,23.01-4.99,15.56-6.37,22.46-21.79,11.52-36.02l-.68-.18c-3.86,3.23-14.03,8.09-18.84,6.71-.65-.19-1.2-.13-.98-1,3.43-1.95,7.41-2.29,11.01-3.99,16.67-7.87,9.35-22.48-6.01-24.26,2.97,8.21,1.57,12.11-7.08,14.17-12.92,3.07-21.65-1.5-24.43-14.67ZM381.5,442l-9.48,11.27c-23.33,26.97-66,38.09-97.27,18.24-1.31-.52-.67,2.38-.52,3.02,1.37,5.8,7.85,8.97,13.02,10.98,22.39,8.74,54.76,4.21,72.52-12.5,2.48-2.33,4.58-5.96,6.72-7.78,1.74-1.48,4.25-2.49,6.28-4.22,5.11-4.36,10.11-12.1,8.73-19.02ZM238.49,447c-9.98,8.36-22.56,10.41-35,12.74-1.95,4.64,4.76,5.83,8.26,5.8,9.26-.09,31.03-5.3,26.74-18.54ZM200,461c-20.45,6.44-41.8,8.84-63.1,5.35-7.58-1.24-16.58-3.94-23.23-7.77-2.08-1.2-7.86-6.25-8.95-6.56-.98-.27-.59.18-.77.66-1.76,4.71,2.17,9.27,5.79,11.83,19.31,13.64,64.3,14.47,84.42,2.39.98-.59,7.17-4.54,5.84-5.9Z"/>
      <path class="cls-2" d="M324.9,28.65c5.31-.04,15.02-.74,19.35,2.36,5.82,4.16,6.44,13.12,6.77,19.73.57,11.42-.6,23.14-1.04,34.5-1.32,33.99-3.63,68.13-6.98,102.02-1.28,12.94-2.39,27.67-4.64,40.36-1.95,10.99-5.42,20.02-16.97,23.53-10.73,3.26-30.39.75-42.11.35-43.74-1.49-89.92-3.24-133.52-7.48-14.55-1.42-27.97-2.56-29.27-20.23-.9-12.23.9-26.66,1.51-39.02,1.93-38.67,3.88-80.23,9.58-118.42,3.03-20.28,5.08-28.86,27.68-30.82,16.52-1.43,33.47-1.19,50.02-1.98,39.82-1.92,79.8-4.58,119.63-4.87ZM291.4,53.65c-33.08.47-66.26,2.15-99.15,3.85-8.12.42-16.97.14-24.99,1.01-15.91,1.74-19.53,8.29-21.69,23.31-2.02,14-2.93,29.73-4.06,43.94-1.56,19.67-3.45,40.85-4.02,60.48-.59,19.85-1.42,33.07,21.78,35.27,38.5,3.65,80.69,4.52,119.52,4.98,20.76.25,36.47,2.38,39.72-23.23,4.55-35.82,6.41-75.28,8.51-111.49.72-12.34,4.95-30.37-9.67-36.34-7.34-3-18-1.88-25.94-1.76Z"/>
      <path class="cls-5" d="M415.35,64.14c.62.75.59,1.68.67,2.59.74,8.73-.62,18.77-1.02,27.53-1.22,27.15-3.12,54.18-5.51,81.25-10.39-1.98-29.47-8.16-33.66,6.09-4.54,15.45,10.72,15.73,21.07,18.25,3.04.74,5.99,2.01,9.09,2.16-1.3,9.96-1.69,20.25-3.63,30.11-1.47,7.48-1.8,10.67-9.76,12.24-8.77,1.73-19.37,2.7-28.36,3.64-11.39,1.2-22.87,1.65-34.24,3l3.99-4.26c6.23-7.53,7.73-20.57,8.95-30.05,5.26-40.88,7.85-84.2,9.57-125.43.56-13.44,3.43-43.44-.86-55.15-.74-2.02-1.99-3.19-2.64-5.1,23.29,8.33,44.88,21.02,66.35,33.14ZM372.83,72.57c-.73.24-1.73,2.53-1.66,3.19.1.97,2.47,2.08,3.34,2.48,8.92,4.07,20.56,6.25,29.89,9.66,2.15.7,3.18-2.23,2.36-3.9-.4-.7-1.12-.88-1.76-1.24-4.04-2.26-24.62-9.06-29.47-10.03-.89-.18-1.78-.45-2.69-.15ZM370.62,94.88l32.27,10.51c4.17.49,4.73-3.98.89-5.42l-30.16-9.89c-2.26-.63-4.64,3.18-2.99,4.8ZM404.34,117.66l-31.82-10.43-2.69-.15c-1.3.43-1.63,3.16-1.23,4.33.83.38,1.57.97,2.4,1.35,4.78,2.21,25.86,8.91,30.87,9.64,3.78.55,4.78-2.65,2.47-4.73Z"/>
      <path class="cls-3" d="M189.99,392.5c2.78,13.17,11.51,17.74,24.43,14.67,8.65-2.06,10.05-5.95,7.08-14.17,15.36,1.78,22.68,16.39,6.01,24.26-3.6,1.7-7.58,2.05-11.01,3.99-.22.87.34.81.98,1,4.81,1.38,14.98-3.48,18.84-6.71l.68.18c10.94,14.23,4.04,29.65-11.52,36.02-8.16,3.34-14.96,3.14-23.01,4.99-6.29,1.44-12.66,4.59-19.47,6.03-22.98,4.87-61.01,4.41-77.5-15.03-12.13-14.29-8.64-34.49,6.33-45.14,22.32-15.88,53.03-3.14,67.91,16.9,1.22.51.67-1.51.53-2.03-.72-2.56-3.61-4.69-3.54-7.46,6.05,5.48,14.33,10.82,22.63,11.87,1.01.13,5.24.47,3.89-1.38-.34-.46-9.02-3.01-10.75-3.75-4.67-2.01-11.15-5.43-13.12-10.38-3.14-7.92,3.54-12.68,10.59-13.85Z"/>
      <path class="cls-3" d="M349.75,383.5c10.46,1.25,18.35,10.53,13.49,20.99l-7.74,11.01c6.24-.57,9.77-6.97,12.26-12.01,15.52,9.05,17.22,26.45,8.15,41.18-17.29,28.03-58.9,41.16-89.54,29.72-32.26-12.05-20.61-51,9.45-55.81,10.73-1.72,23.22,1.45,33.02,5.84,4.17,1.87,7.94,4.71,12.16,6.09,1.25-1.14-7.64-5.96-8-6.99,2.99.16,5.94-.12,8.81-.94,1.14-.33,3.3-.4,3.19-2.06-4.81.16-10.43,1.09-15.2.45-2.98-.4-13.23-4.14-15.53-5.97-4.83-3.85-5.49-11.33-1.48-16.02,4.42,2.8,7.63,6.86,12.94,8.56,6.82,2.18,16.76.7,21.48-5.07,3.56-4.35,2.71-7.24-.5-11.41-2-2.6-5.42-4.55-6.71-7.54,3.1.26,6.72-.36,9.75,0Z"/>
      <path class="cls-4" d="M369,320.5c-5.12-3.05-9.3-11.48-9.95-17.3-2.69-24.24,16.48-48.53,41.48-47.98l.4.6c-1.38,20.64,20.7,41.28,41.26,37.72l.74.79c1.02,10.69-5.5,20.03-13.76,26.09-2.44,1.79-5.27,3.06-7.73,4.79-.6.42-1.22.02-.94,1.29,2.13,1.61,11.33-4.44,13.24-6.01,1.74-1.43,4.85-4.51,6.25-6.25.91-1.13,3.9-6.71,4.3-6.77,1.92-.31,2.97,2.92,3.17,4.33,3.25,23.62-47.54,44.55-54.46,14.71-3.77.17.36,8.18,0,8.5-9.53.6-17.69-5.92-20.35-14.89-.26-.88-1.14-4.24-1.14-4.86v-8.25c-1.11-.49-2.5,2.77-2.5,3.25v10.25ZM397,277c-1.69-1.75-17.31,9.35-15.49,14,.66.76,6.8-5.67,7.49-6.25,1.15-.97,9.31-6.39,8-7.74ZM406.5,287.51c-6.29.84-12.16,9.42-14.23,15.01-.25.66-1.34,2.69,0,2.98,1.12.25,12.29-16.09,14.24-17.99ZM408.51,313.5c.75-.28,1.43-.67,1.93-1.31,1.1-1.42,7.6-13.75,7.85-15.16.57-3.16-2.85.14-3.77,1.24-1.66,1.98-7.44,13.31-6.01,15.24Z"/>
      <path class="cls-5" d="M453.5,194c-5.96-2.62-11.55-6.11-17.51-8.73-7.58-3.32-15.94-6.24-23.96-8.29l6.48-100.48c3.52,1.59,6.97,3.52,10.33,5.41,6.28,3.53,25.9,14.16,29.38,19.12,4.18,5.94,2.55,15.46,2.29,22.22-.91,23.71-3.69,47.29-7.01,70.74Z"/>
      <path class="cls-4" d="M48,217c.12,1.97,2.8,2.91,4.4,3.35,14.07,3.88,28.11-8.08,18.58-21.6,7.12-7.48,5.59-18.48-2.46-24.5,4.8-4.7,5.09-12.33,2.07-18.09-1.65-3.14-4.52-4.79-6.5-7.5-8.12-11.09-7.39-29.26,1.9-39.43,10.45-11.44,24.2-7.28,19.64,9.64-2.98,11.06-9.41,16.97-4.06,29.3,6.36,14.64,14.74,19.12,8.79,37.93-.77,2.43-4.1,7.63-4.27,8.74-.23,1.5.58,5.55.4,7.89-1.61,21.07-23.17,33.43-42.48,26-18.01-6.93-18.89-29.49,1.39-33.59,8.71-1.76,27.39,1.28,25.38,13.38-1.69,10.2-14.94,10.29-22.77,8.47Z"/>
      <path class="cls-2" d="M305.95,282.05c1.16.99.29,13.77,0,16.13-.19,1.49-1.08,7.85-2.26,8.24-.43.14-5.45.5-6.45.54-29.34,1.1-74.45-2.58-103.25-8.7-3.35-.71-11.68-2.59-14.34-4.16-3.14-1.84-2.02-10.94-1.49-14.22.18-1.13,1.18-6.62,2.08-6.78,8.27,1.95,16.67,3.63,25.09,4.81,21.52,3.02,43.29,3.59,64.91,4.59l35.72-.47Z"/>
      <path class="cls-5" d="M300.5,269.5l-36.77-.48c-13.26-1.27-26.7-1.58-39.98-3.02-1.78-.19-16.69-1.94-16.77-2.79l3.35-11.23,89.42,4.02,1.04.47-.29,13.03ZM300,257h-3.5s0,.49,0,.49h3v9.01h.5v-9.5Z"/>
      <path class="cls-5" d="M358,270.51c-.2.99-1.02.86-1.75.99-17.73,3.33-32.23,6.6-50.52,7.48-22.05,1.06-45.43.95-67.47-.48-18.07-1.18-36.75-3.31-54.26-7.74l19.47-6.24c.15.83.52,1.63,1.38,1.89,3.54,1.09,12.23,1.63,16.41,2.09,32.05,3.56,69.06,5.53,100.99,2.5,6.66-.63,15.78-3.05,22-3.04,4.3,0,9.39,2.28,13.75,2.55Z"/>
      <path class="cls-5" d="M354.94,294.95c-15.08,5.72-30.85,9.76-46.94,11.55.79-8.17,1.97-16.26,1.49-24.5,17.78-1.25,35.18-5.11,52.5-9-1.57,3.36-3.46,6.56-4.64,10.11-1.23,3.69-2.18,7.98-2.41,11.84Z"/>
      <path class="cls-4" d="M448,226c1.54,10.63-8.96,17.72-17,22.3l-.98-.03c-8.91-6.7-22.3-7.94-28.85,2.65-14.02.25-27.66,6.05-35.97,17.52l-18.7-4.68c-2.77-1.25-2.46-7.27-4-9.75l36.75-3.51c6.5-1.62,19.15-.87,23.46-6.54,2.03-2.67,1.62-5.62,3.65-7.85,14.12-2.38,28.12-5.4,41.64-10.11Z"/>
      <path class="cls-4" d="M42.88,171.63c12.44-1.57,35.79,4.71,28.57,21.57-2.49,5.8-4.55,2.03-8.81.42-10.7-4.04-23.89-3.05-31.62,6.14-.76.9-2.79,4.93-3.72,4.72-13.01-13.68-.72-30.8,15.59-32.85Z"/>
      <path class="cls-4" d="M43.4,146.65c15.16-1.54,33.79,10.23,22.86,26.3-11.07-7.25-27.62-6.44-38.21,1.35-3,2.21-3.89,5.13-6.13-.95-5.17-14.03,8.6-25.39,21.49-26.7Z"/>
      <path class="cls-5" d="M381.5,442c1.38,6.92-3.62,14.66-8.73,19.02-2.03,1.73-4.54,2.74-6.28,4.22-2.14,1.82-4.24,5.45-6.72,7.78-17.76,16.71-50.13,21.24-72.52,12.5-5.16-2.02-11.65-5.19-13.02-10.98-.15-.65-.79-3.54.52-3.02,31.27,19.84,73.94,8.73,97.27-18.24l9.48-11.27Z"/>
      <path class="cls-4" d="M426.5,251.01c1.04,1.1-3.74,2.06-4.35,2.39-10.87,5.92,5.42,24.98,14.58,25.63,6.39.45,6.11-4.47,11.27-5.53,2.43,6.34.35,14.4-6.36,16.89-12.17,4.51-28.02-7.86-33.72-18.05-9.69-17.32-.49-32.13,18.58-21.33Z"/>
      <path class="cls-5" d="M200,461c1.32,1.36-4.87,5.31-5.84,5.9-20.12,12.08-65.11,11.25-84.42-2.39-3.62-2.56-7.55-7.12-5.79-11.83.18-.48-.21-.93.77-.66,1.09.3,6.87,5.36,8.95,6.56,6.65,3.83,15.65,6.53,23.23,7.77,21.31,3.49,42.65,1.08,63.1-5.35Z"/>
      <path class="cls-5" d="M405.5,232l3-28.5c6.51,1.97,12.98,4.26,19.18,7.07,2.48,1.12,16.92,8.36,17.32,10.19.3,1.36-7.12,4.04-8.49,4.5-9.83,3.3-20.84,4.68-31,6.74Z"/>
      <path class="cls-4" d="M91.49,192.5c8.97,15.21,1.83,35.41-13.16,43.58-7.32,3.99-18.09,5.92-23.33-2.08,3.02-.58,5.86-.65,8.91-1.34,14.16-3.2,24.39-15.48,25.58-29.92.06-.7-.63-12.08,2-10.24Z"/>
      <path class="cls-5" d="M238.49,447c4.29,13.24-17.48,18.45-26.74,18.54-3.5.03-10.21-1.16-8.26-5.8,12.44-2.33,25.02-4.38,35-12.74Z"/>
      <path d="M291.4,53.65c7.94-.11,18.6-1.24,25.94,1.76,14.62,5.97,10.38,24,9.67,36.34-2.1,36.21-3.96,75.67-8.51,111.49-3.25,25.62-18.97,23.48-39.72,23.23-38.82-.46-81.02-1.33-119.52-4.98-23.19-2.2-22.36-15.41-21.78-35.27.58-19.62,2.46-40.81,4.02-60.48,1.13-14.21,2.04-29.94,4.06-43.94,2.17-15.02,5.79-21.57,21.69-23.31,8.02-.88,16.87-.59,24.99-1.01,32.89-1.7,66.07-3.38,99.15-3.85ZM279.4,57.65c-32.87.69-68.44,1.69-101.14,4.86-17.08,1.65-23.39,3.14-26.61,21.39-2.8,15.92-2.95,33.67-4.15,49.85-1.32,17.8-3.07,35.7-3.99,53.51-.51,9.81-2.42,25.85,9.89,29.1,9.38,2.47,27.02,2.56,37.33,3.17,25.46,1.5,51.07,2.32,76.54,2.96,9.82.25,29.13,2.47,37.57-1.89,8.76-4.53,9.68-14.06,10.66-22.84,1.89-38,7.53-76,9-114,.54-13.85.68-25.02-16.23-26.26-8.93-.66-19.78-.03-28.87.17Z"/>
      <path d="M404.34,117.66c2.31,2.07,1.31,5.28-2.47,4.73-5.01-.73-26.09-7.43-30.87-9.64-.83-.38-1.57-.97-2.4-1.35-.4-1.16-.07-3.9,1.23-4.33l2.69.15,31.82,10.43Z"/>
      <path d="M370.62,94.88c-1.65-1.62.73-5.42,2.99-4.8l30.16,9.89c3.85,1.44,3.28,5.91-.89,5.42l-32.27-10.51Z"/>
      <path d="M372.83,72.57c.91-.3,1.8-.02,2.69.15,4.85.97,25.43,7.77,29.47,10.03.64.36,1.36.55,1.76,1.24.82,1.67-.21,4.6-2.36,3.9-9.33-3.41-20.96-5.59-29.89-9.66-.87-.4-3.23-1.51-3.34-2.48-.07-.66.93-2.95,1.66-3.19Z"/>
      <path d="M406.5,287.51c-1.96,1.9-13.12,18.24-14.24,17.99-1.33-.29-.24-2.32,0-2.98,2.07-5.59,7.95-14.17,14.23-15.01Z"/>
      <path d="M397,277c1.31,1.35-6.86,6.77-8,7.74-.69.58-6.83,7.01-7.49,6.25-1.81-4.65,13.8-15.75,15.49-14Z"/>
      <path d="M408.51,313.5c-1.44-1.93,4.34-13.25,6.01-15.24.92-1.1,4.35-4.4,3.77-1.24-.26,1.41-6.75,13.74-7.85,15.16-.5.65-1.18,1.04-1.93,1.31Z"/>
      <path d="M279.4,57.65c9.09-.19,19.94-.82,28.87-.17,16.91,1.24,16.76,12.42,16.23,26.26-1.47,38-7.1,76.01-9,114-.98,8.78-1.9,18.31-10.66,22.84-8.44,4.36-27.75,2.14-37.57,1.89-25.47-.64-51.08-1.46-76.54-2.96-10.31-.61-27.95-.7-37.33-3.17-12.31-3.24-10.4-19.29-9.89-29.1.92-17.82,2.67-35.71,3.99-53.51,1.2-16.18,1.35-33.93,4.15-49.85,3.22-18.25,9.53-19.74,26.61-21.39,32.71-3.17,68.27-4.16,101.14-4.86ZM293.5,81.5c-.69-5.25-6.12-9.47-11.07-10.68-12.29-3-25.76,5.3-28.43,17.68,7.94-10.71,22.75-20.39,35.45-11.21l4.04,4.2ZM204.5,90.5c-1.86-15.32-18.43-20.59-27.91-7.66-1.14,1.55-3,4.32-2.34,6.16,5.36-7.84,14.28-13.3,22.99-6.49l7.26,7.98ZM201,143.49c4.22-8.93,5.1-18.97,4.52-28.76-.38-6.39-2.72-21.86-11.71-21.21-7.38.54-14.65,18.88-13.08,25.5l11.77,4.97-12.42,5.84c-.37,2.79.08,5.53.58,8.26.34,1.88,2.34,6.89,2.3,7.67-.05,1-1.59,2.33-2.05,3.39-5.65,12.91,5.74,20.94,17.78,19.78,2.59-.25,12.17-2.16,9.07-5.92-7.79,4.73-25.76,3.18-24.76-8.77.79-9.45,13.25-8.93,19.85-6.34.68.27,10.53,6.4,7.92,1.58-.71-1.31-7.79-5.75-9.76-5.99ZM288.49,120c-1.68-12.09-11.65-15.06-22.1-10.35-11.09,5-19.96,17.8-20.89,29.85,2.1-2.73,3.32-6.12,5.28-8.97,7.78-11.29,25.76-22.74,37.71-10.53ZM303.99,144.5c-1.68-7.49-9.35-9.64-16-6.75-1.02.44-5.14,3.17-5.49,4.01-.26.62.09.93.74.74,1.91-.57,3.91-2.19,6.33-2.67,5.73-1.14,10.43.61,14.42,4.68ZM197,178.5c-1.72,1.44,7.45,3.08,7.76,3.48,5.56,23.31,23.89,37.66,48.35,33.38,18.41-3.23,31.96-20.81,38.02-37.48,2.51-6.89,7.09-21.71.11-26.88s-14.13,4.75-19.3,8.69c-21.02,16.04-48.77,22.71-74.95,18.8Z"/>
      <path class="cls-1" d="M197,178.5c26.18,3.91,53.93-2.76,74.95-18.8,5.17-3.94,12.51-13.72,19.3-8.69s2.39,19.99-.11,26.88c-6.06,16.67-19.61,34.25-38.02,37.48-24.46,4.28-42.79-10.07-48.35-33.38-.31-.4-9.48-2.05-7.76-3.48Z"/>
      <path class="cls-1" d="M201,143.49c1.97.24,9.06,4.69,9.76,5.99,2.6,4.82-7.25-1.31-7.92-1.58-6.59-2.59-19.05-3.11-19.85,6.34-1,11.94,16.97,13.49,24.76,8.77,3.1,3.76-6.47,5.67-9.07,5.92-12.04,1.16-23.42-6.87-17.78-19.78.47-1.06,2-2.39,2.05-3.39.04-.79-1.96-5.79-2.3-7.67-.5-2.73-.94-5.47-.58-8.26l12.42-5.84-11.77-4.97c-1.57-6.62,5.7-24.96,13.08-25.5,9-.65,11.33,14.82,11.71,21.21.58,9.79-.3,19.83-4.52,28.76Z"/>
      <path class="cls-1" d="M288.49,120c-11.96-12.21-29.93-.76-37.71,10.53-1.96,2.85-3.18,6.23-5.28,8.97.93-12.06,9.8-24.85,20.89-29.85,10.45-4.71,20.42-1.74,22.1,10.35Z"/>
      <path class="cls-1" d="M293.5,81.5l-4.04-4.2c-12.7-9.19-27.51.5-35.45,11.21,2.66-12.38,16.14-20.68,28.43-17.68,4.94,1.21,10.38,5.43,11.07,10.68Z"/>
      <path class="cls-1" d="M204.5,90.5l-7.26-7.98c-8.71-6.81-17.63-1.35-22.99,6.49-.66-1.84,1.2-4.61,2.34-6.16,9.48-12.93,26.05-7.66,27.91,7.66Z"/>
      <path class="cls-1" d="M303.99,144.5c-3.99-4.06-8.69-5.82-14.42-4.68-2.42.48-4.43,2.1-6.33,2.67-.64.19-.99-.12-.74-.74.35-.84,4.48-3.57,5.49-4.01,6.65-2.89,14.31-.74,16,6.75Z"/>
    </g>
  </g>
</svg>