<?xml version="1.0" encoding="UTF-8"?>
<svg id="Layer_2" data-name="Layer 2" xmlns="http://www.w3.org/2000/svg" width="32" height="32" viewBox="0 0 32 32">
  <g id="Layer_1-2" data-name="Layer 1">
    <g id="OUTLINE_copy_2" data-name="OUTLINE copy 2">
      <g>
        <path d="M20.84,16.14c0,2.58-2.16,4.68-4.83,4.68s-4.83-2.1-4.83-4.68c0-.46.07-.91.2-1.33l-1.21-.26v6.8c0,.34.15.49.49.49h10.69c.34,0,.49-.15.49-.49v-6.8l-1.19.26c.13.42.2.87.2,1.33Z"/>
        <ellipse cx="16.01" cy="15.97" rx="3.12" ry="3.03"/>
        <path d="M16,0C7.16,0,0,7.16,0,16s7.16,16,16,16,16-7.16,16-16S24.84,0,16,0ZM23.77,21.83c0,1.1-.85,1.94-1.94,1.94h-11.66c-1.1,0-1.94-.85-1.94-1.94v-11.66c0-1.1.85-1.94,1.94-1.94h11.66c1.1,0,1.94.85,1.94,1.94v11.66Z"/>
        <path d="M21.34,10.17h-1.94c-.27,0-.49.22-.49.49v1.94c0,.27.22.49.49.49h1.94c.27,0,.49-.22.49-.49v-1.94c0-.27-.22-.49-.49-.49Z"/>
      </g>
    </g>
  </g>
</svg>