<?xml version="1.0" encoding="UTF-8"?>
<svg id="Layer_2" data-name="Layer 2" xmlns="http://www.w3.org/2000/svg" width="30.5" height="30.5" viewBox="0 0 30.5 30.5">
  <g id="Layer_1-2" data-name="Layer 1">
    <path d="M15.25,0C6.84,0,0,6.84,0,15.25s6.84,15.25,15.25,15.25,15.25-6.84,15.25-15.25S23.66,0,15.25,0ZM10.71,22.19h-3.56v-10.7h3.56v10.7ZM8.93,10.03h0s-.02,0-.02,0c-1.2,0-1.97-.82-1.97-1.85s.79-1.85,2.01-1.85,1.97.8,1.99,1.85c0,1.03-.77,1.85-2.01,1.85ZM23.54,22.19h-3.56s0-5.73,0-5.73c0-1.44-.52-2.42-1.8-2.42-.98,0-1.57.66-1.83,1.3-.09.23-.12.55-.12.87v5.98h-3.56s.05-9.7,0-10.7h3.56v1.52c.47-.73,1.32-1.77,3.21-1.77,2.34,0,4.1,1.53,4.1,4.82v6.14Z"/>
  </g>
</svg>