<?xml version="1.0" encoding="utf-8"?>
<!-- Generator: Adobe Illustrator 18.1.1, SVG Export Plug-In . SVG Version: 6.00 Build 0)  -->
<svg version="1.1" id="Layer_1" xmlns="http://www.w3.org/2000/svg" xmlns:xlink="http://www.w3.org/1999/xlink" x="0px" y="0px"
	 viewBox="190.2 207.5 314.7 341.7" enable-background="new 190.2 207.5 314.7 341.7" xml:space="preserve" fill="#222">
<g>
	<g>
		<path d="M444.5,207.7c0,72.6,0,145.2,0,217.7c-0.1,0-0.2,0.1-0.3,0.1c-31.3-72.6-62.5-145.1-93.8-217.8
			C381.9,207.7,413.1,207.7,444.5,207.7z"/>
		<path d="M190.2,425.1c0-72.4,0-144.9,0-217.4c30.1,0,60.4,0,91,0c-30.2,72.6-60.3,145.1-90.4,217.5
			C190.6,425.2,190.4,425.1,190.2,425.1z"/>
		<path d="M375.8,426c-0.6,0-1,0-1.3,0c-12.1,0-24.2,0-36.3,0c-0.9,0-1.3-0.2-1.7-1.1c-5.6-13.7-11.3-27.4-17-41.1
			c-0.9-2.1-0.8-2.1-3.1-2.1c-12.7,0-25.5,0-38.2,0c-0.4,0-0.8,0-1.1,0c13.1-30.3,26.2-60.5,39.4-90.8
			C336.2,335.8,355.9,380.8,375.8,426z"/>
		<path d="M212.8,460.2c0.3,0,0.5,0,0.7,0c4.5,0,8.9,0,13.5,0c6.7,28.8,13.5,57.6,20.2,86.5c-5,0-9.9,0-14.8,0
			c-0.8-3.6-1.5-7.1-2.3-10.7c-0.3-1.6-0.7-3.2-1.1-4.8c-0.1-0.3-0.5-0.6-0.7-0.6c-5.8,0-11.5,0-17.3,0c-0.1,0-0.2,0.1-0.4,0.1
			c-1.1,5.3-2.2,10.6-3.3,16c-4.9,0-9.8,0-14.8,0C199.3,517.9,206,489.1,212.8,460.2z M226.2,515.7c-2.1-10.6-4.1-21.1-6.2-31.6
			c-0.1,0-0.2,0-0.2,0c-2.1,10.5-4.1,21-6.2,31.6C217.8,515.7,221.9,515.7,226.2,515.7z"/>
		<path d="M366.3,539.3c-0.1,2.4-0.3,4.9-0.4,7.3c-3.9,0-7.8,0-11.7,0c0-28.8,0-57.6,0-86.4c4.3,0,8.7,0,13.1,0c0,9.3,0,18.6,0,27.9
			c0.1,0,0.1,0,0.2,0.1c0.1-0.1,0.2-0.3,0.3-0.5c2.6-4.6,7-6.8,12.4-6.2c6.5,0.8,10.5,4.6,13.1,10.3c2,4.4,2.9,9.1,3.4,13.8
			c0.7,6.7,0.7,13.5-0.2,20.2c-0.6,5.1-1.8,10.2-4.3,14.7c-2.4,4.2-5.8,7.3-10.7,8.1c-6.2,1-10.4-0.7-13.3-6.2
			c-0.6-1.1-1.1-2.2-1.6-3.3C366.5,539.3,366.4,539.3,366.3,539.3z M383.7,514.5c-0.1-1.3-0.1-3.5-0.3-5.6c-0.1-1.1-0.2-2.1-0.4-3.1
			c-0.5-3-1.2-6-2.9-8.6c-2.7-3.9-7.2-4-9.8,0c-1,1.6-1.8,3.4-2.2,5.2c-1.9,8.2-1.7,16.4-0.3,24.6c0.4,2.5,1.2,5,2.8,7.1
			c2.5,3.2,6.7,3.3,9.2,0.1c0.9-1.1,1.5-2.5,2-3.9C383.5,525.4,383.6,520.4,383.7,514.5z"/>
		<path d="M278.9,460.2c4.5,0,8.7,0,13.1,0c0,28.8,0,57.6,0,86.5c-3.9,0-7.7,0-11.6,0c-0.1-2.5-0.3-4.9-0.4-7.4
			c-0.1,0-0.2-0.1-0.2-0.1c-0.2,0.3-0.3,0.6-0.5,0.8c-1.1,1.7-1.9,3.7-3.2,5.2c-4.1,4.8-10.4,4.7-15.2,2.1c-3.7-2-6-5.3-7.6-9.1
			c-2.2-4.9-3.2-10-3.6-15.3c-0.7-7.5-0.5-15.1,1-22.5c0.9-4.7,2.4-9.3,5.4-13.1c3.8-4.9,9-6.6,15-5.6c2.5,0.4,4.5,2,6.1,3.9
			c0.6,0.7,1.2,1.4,1.9,2.3C278.9,478.6,278.9,469.5,278.9,460.2z M279.8,515.5c-0.4-3.6-0.6-7.3-1.1-10.9c-0.4-2.7-1.2-5.4-2.9-7.7
			c-2.7-3.5-6.9-3.5-9.4,0.1c-1,1.4-1.8,3.1-2.2,4.7c-2.2,8.8-2,17.6-0.3,26.4c0.5,2.4,1.3,4.7,3,6.5c2.3,2.5,5.8,2.5,8.2,0.2
			c1.4-1.4,2.2-3.1,2.7-5C279.3,525.2,279.5,520.4,279.8,515.5z"/>
		<path d="M446.5,528.6c-0.5,3.2-1.4,6.3-2.7,9.3c-3.2,7.2-8.8,10.9-16.7,11.1c-3.6,0.1-7.2-0.2-10.5-1.8c-4.1-1.9-6.9-5.2-8.8-9.2
			c-2.2-4.6-3.2-9.6-3.6-14.6c-0.5-5.7-0.6-11.4,0.2-17.1c0.9-6.5,2.7-12.7,6.9-17.9c6.3-7.8,18.4-9.4,26.1-3.5
			c3.9,3,6.1,7.2,7.5,11.8c1.9,5.9,2.4,12,2.5,18.1c0,1.6,0,3.3,0,5c-10,0-19.9,0-30,0c0,1.1,0,2.1,0,3.1c0.2,3,0.5,6.1,1.8,8.9
			c1.7,3.7,5,5.3,8.9,4.4c1.7-0.4,2.9-1.4,3.6-2.9c0.6-1.3,1-2.8,1.5-4.1c0.1-0.3,0.4-0.7,0.7-0.7c4.1,0,8.2,0,12.3,0
			C446.3,528.5,446.4,528.6,446.5,528.6z M433.9,509.3c-0.1-1.3-0.1-2.5-0.2-3.7c-0.3-2.8-0.6-5.6-2-8.2c-0.8-1.5-2-2.6-3.7-3
			c-2.9-0.7-5.6,0.2-7.4,2.7c-1.8,2.4-2.5,5.3-2.9,8.2c-0.2,1.3-0.2,2.7-0.4,4C423,509.3,428.4,509.3,433.9,509.3z"/>
		<path d="M345.1,515.2c0.1,6.7-0.5,13.3-2.9,19.6c-1.5,3.9-3.6,7.3-6.8,10.1c-7.1,6.2-22.2,6.6-29.1-5.4c-2.7-4.6-4-9.7-4.7-14.9
			c-0.9-7-0.8-14.1,0.4-21.1c0.8-4.8,2.3-9.4,5.1-13.5c4.4-6.4,10.6-9,18.2-8.3c7.7,0.7,12.7,5.1,15.9,11.8
			c2.5,5.2,3.5,10.7,3.9,16.3C345.2,511.6,345.1,513.4,345.1,515.2z M332,515.3c-0.3-3.4-0.4-6.9-0.8-10.3c-0.3-2.8-0.9-5.6-2.5-8
			c-2.5-3.8-8-3.9-10.4-0.1c-1.1,1.7-1.9,3.7-2.3,5.6c-1.7,7.9-1.5,15.9-0.4,23.8c0.4,2.7,1.1,5.3,2.8,7.5c2.6,3.5,7.8,3.5,10.2-0.2
			c1-1.5,1.6-3.2,2.1-5C331.7,524.4,331.7,519.9,332,515.3z"/>
		<path d="M504.9,207.5c0,9,0,17.8,0,26.7c-1.9,0-3.8,0-5.8,0c0-6.6,0-13.2,0-19.8c-0.1,0-0.1,0-0.2-0.1c-2.3,6.6-4.7,13.2-7,19.8
			c-0.1,0-0.2,0.1-0.3,0.1c-1.2,0-2.7,0.4-3.6-0.1c-0.8-0.5-1-2.1-1.4-3.2c-1.8-5.2-3.6-10.3-5.5-15.5c-0.1-0.3-0.2-0.5-0.5-0.8
			c0,6.5,0,13,0,19.6c-2,0-3.8,0-5.8,0c0-8.8,0-17.7,0-26.7c0.7,0,1.4,0,2.1,0c1.5,0,3.1,0,4.6,0c0.7,0,1,0.2,1.2,0.9
			c2.2,6.3,4.5,12.6,6.8,18.9c0.1,0.3,0.2,0.6,0.5,1.1c1.3-3.5,2.4-6.9,3.6-10.2s2.3-6.5,3.5-9.8c0.2-0.6,0.5-0.8,1.2-0.8
			C500.4,207.6,502.6,207.5,504.9,207.5z"/>
		<path d="M473.4,212.6c-2.7,0-5.4,0-8.2,0c0,7.2,0,14.4,0,21.6c-2,0-3.9,0-5.8,0c0-7.2,0-14.3,0-21.6c-2.8,0-5.5,0-8.2,0
			c0-1.7,0-3.4,0-5.1c7.4,0,14.8,0,22.2,0C473.4,209.3,473.4,210.9,473.4,212.6z"/>
	</g>
</g>
</svg>
