<?xml version="1.0" encoding="utf-8"?>
<!-- Generator: Adobe Illustrator 18.1.1, SVG Export Plug-In . SVG Version: 6.00 Build 0)  -->
<svg version="1.1" id="Layer_1" xmlns="http://www.w3.org/2000/svg" xmlns:xlink="http://www.w3.org/1999/xlink" x="0px" y="0px"
	 viewBox="0 0 194.9 119.3" enable-background="new 0 0 194.9 119.3" xml:space="preserve">
<g>
	<g>
		<path fill="#010101" d="M138.4,106.8c0.6,0,1.1,0,1.7,0c0.2,0,0.3,0.1,0.3,0.3c0.1,0.4,0.2,0.7,0.3,1c0.3,0.6,0.9,0.9,1.6,1
			c0.7,0.1,1.4-0.1,1.9-0.7c0.6-0.6,0.7-1.8,0.2-2.4c-0.3-0.4-0.7-0.5-1.2-0.7c-0.8-0.3-1.6-0.6-2.4-0.9c-0.6-0.3-1.2-0.6-1.5-1.2
			c-0.8-1.4-0.6-3.2,0.9-4.3c1.4-1.1,3.7-1.1,5,0c0.7,0.5,1,1.2,1.1,2c0,0.1,0,0.3,0.1,0.4c0,0.2,0,0.3-0.2,0.3c-0.5,0-1,0-1.5,0
			c-0.2,0-0.2-0.1-0.2-0.2c-0.1-0.8-0.5-1.3-1.3-1.5c-0.8-0.2-1.5,0-2,0.6c-0.5,0.7-0.4,1.6,0.3,2.1c0.3,0.2,0.6,0.3,0.9,0.4
			c0.7,0.3,1.5,0.5,2.2,0.8c1.1,0.4,1.8,1.2,2,2.4c0.2,1.2,0,2.3-0.7,3.3c-0.6,0.7-1.3,1.1-2.2,1.3c-1.2,0.3-2.3,0.1-3.4-0.4
			c-0.9-0.5-1.5-1.2-1.8-2.2c0-0.1-0.1-0.3-0.1-0.4C138.4,107.3,138.4,107,138.4,106.8z"/>
		<path fill="#010101" d="M194.9,110.4c-0.6,0-1.2,0-1.8,0c-0.2,0-0.3-0.1-0.4-0.2c-0.6-0.9-1.3-1.8-1.9-2.7c-0.2-0.3-0.2-0.3-0.4,0
			c-0.6,0.9-1.2,1.8-1.8,2.7c-0.1,0.2-0.3,0.3-0.5,0.3c-0.5,0-1,0-1.4,0c-0.1,0-0.2-0.1-0.2-0.1c0-0.1,0.1-0.1,0.1-0.2
			c0.9-1.4,1.9-2.8,2.8-4.2c0.1-0.2,0.1-0.3,0-0.5c-0.9-1.3-1.9-2.7-2.8-4c0,0-0.1-0.1-0.1-0.2c0.1,0,0.2,0,0.3,0c0.5,0,1,0,1.5,0
			c0.2,0,0.4,0.1,0.5,0.3c0.5,0.8,1.1,1.6,1.6,2.4c0.2,0.3,0.2,0.3,0.4,0c0.5-0.8,1.1-1.6,1.6-2.4c0.1-0.2,0.2-0.2,0.4-0.2
			c0.5,0,1.1,0,1.6,0c0.1,0,0.1,0,0.2,0c0,0.1,0,0.2-0.1,0.2c-0.8,1.3-1.7,2.5-2.5,3.8c-0.4,0.6-0.4,0.4,0,1
			c0.9,1.4,1.9,2.8,2.8,4.2C194.9,110.3,194.9,110.4,194.9,110.4z"/>
		<path fill="#010101" d="M164.4,69.3c0.1,0.8,0.2,1.6,0.3,2.4c0.1,0.5,0.1,0.9,0.2,1.4c0,0.3,0,0.3-0.3,0.3c-1,0.2-2,0.5-3,0.9
			c-0.2,0.1-0.5,0.2-0.7,0.3c-0.2,0.1-0.2,0-0.3-0.1c-0.5-1.2-0.9-2.3-1.4-3.5c-0.1-0.2,0-0.3,0.2-0.4c1.4-0.7,2.8-1.2,4.4-1.3
			c0,0,0.1,0,0.1,0C164,69.3,164.2,69.3,164.4,69.3z"/>
		<path fill="#010101" d="M181.2,119.3c-0.2-0.1-0.5-0.1-0.7-0.2c-0.4-0.2-0.6-0.4-0.8-0.8c-0.1-0.2-0.1-0.3,0.2-0.3
			c0.1,0,0.2,0,0.2,0c0.2,0,0.4,0.1,0.6,0.2c0.6,0.7,1.6,0.5,2.1-0.3c0.1-0.2,0.1-0.5,0.2-0.8c-0.5,0.4-1,0.6-1.6,0.6
			c-0.6-0.1-1.1-0.3-1.5-0.8c-0.6-0.8-0.5-2.1,0.2-2.8c0.7-0.8,1.8-0.8,2.8,0c0,0,0,0,0-0.1c0-0.1,0.1-0.3,0.1-0.3
			c0.2,0,0.4,0,0.6,0c0,0,0.1,0.2,0.1,0.3c0,0.6,0,1.2,0,1.7c0,0.5,0,1,0,1.5c0,1.1-0.6,1.9-1.6,2.2c-0.1,0-0.1,0-0.1,0.1
			C181.7,119.3,181.5,119.3,181.2,119.3z M181.6,114.2c-0.8,0-1.4,0.6-1.4,1.4c0,0.8,0.6,1.4,1.4,1.4c0.7,0,1.3-0.7,1.3-1.4
			C182.9,114.8,182.3,114.2,181.6,114.2z"/>
		<path fill="#010101" d="M192.4,119.3c-0.1,0-0.2-0.1-0.4-0.1c-0.5-0.1-0.9-0.5-1.1-0.9c-0.2-0.3-0.1-0.4,0.2-0.4
			c0.1,0,0.2,0,0.3,0c0.2,0,0.3,0,0.4,0.2c0.4,0.4,0.9,0.6,1.4,0.4c0.5-0.2,0.8-0.5,0.9-1.1c0-0.1,0-0.3,0.1-0.4
			c-1,0.9-2.2,0.9-2.9,0.1c-0.8-0.9-0.8-2.2,0-3c0.8-0.8,1.9-0.8,2.9,0c0,0,0,0,0,0c0.1-0.5,0.1-0.5,0.6-0.5c0.1,0,0.2,0,0.2,0
			c0,1.3,0,2.7,0,4.1c-0.1,0.4-0.3,0.9-0.6,1.2c-0.3,0.3-0.7,0.4-1.1,0.5C192.9,119.3,192.6,119.3,192.4,119.3z M191.4,115.5
			c0,0.8,0.6,1.4,1.3,1.4c0.7,0,1.3-0.6,1.3-1.4c0-0.8-0.6-1.4-1.3-1.4C192,114.2,191.4,114.8,191.4,115.5z"/>
		<path fill="#010101" d="M177.2,85.8c0,2.4-0.8,4.5-2.3,6.3c-1.6,2-3.7,3.1-6.2,3.6c-1,0.2-2,0.2-3,0.1c-1.5-0.2-2.9-0.6-4.3-1.3
			c-1-0.5-1.9-1.2-2.7-2c-0.2-0.2-0.2-0.2,0.1-0.3c1.6-0.5,3.1-1.1,4.7-1.7c2.5-1,4.9-2.2,7.2-3.7c2-1.3,3.9-2.8,5.7-4.3
			c0.2-0.2,0.2-0.2,0.3,0.1C177,83.3,177.2,84.7,177.2,85.8z"/>
		<path fill="#010101" d="M167.5,102.3c0.4-0.3,0.8-0.7,1.2-0.9c1.5-0.8,2.9-0.6,4.3,0.2c1.5,0.9,2.3,2.1,2.4,3.8
			c0.1,2-0.7,3.6-2.4,4.6c-0.6,0.4-1.3,0.5-2,0.6c-1.2,0.1-2.2-0.2-3.1-1c-0.2-0.1-0.3-0.3-0.5-0.5c0,0.3,0,0.6,0,0.9
			c0,0.4,0,0.4-0.4,0.4c-0.3,0-0.6,0-0.9,0c-0.5,0-0.5,0-0.5-0.4c0-2.1,0-4.1,0-6.2c0-1.8,0-3.5,0-5.3c0-0.4,0-0.4,0.4-0.4
			c0.3,0,0.7,0,1,0c0.3,0,0.3,0,0.3,0.3c0,1.2,0,2.4,0,3.6C167.5,102.1,167.5,102.2,167.5,102.3z M173.7,105.8c0-0.7-0.2-1.4-0.7-2
			c-1-1.4-3.2-1.6-4.4-0.4c-1.1,1.1-1.4,2.6-0.7,4c0.5,1.1,1.9,1.9,3.1,1.7C172.5,108.7,173.7,107.4,173.7,105.8z"/>
		<path fill="#010101" d="M181,100.9c2.6,0,4.7,1.7,5.1,4c0.3,1.5-0.1,2.8-1.1,4c-0.9,1.1-2.1,1.6-3.5,1.7c-2.8,0.2-5-1.9-5.3-4.4
			c-0.2-2,0.9-3.9,2.5-4.7C179.5,101.1,180.3,100.9,181,100.9z M178,105.7c0,1.8,1.4,3.2,3.2,3.2c1.8,0,3.2-1.5,3.2-3.3
			c0-1.6-1.2-3.2-3.2-3.2C179.4,102.5,178,103.9,178,105.7z"/>
		<path fill="#010101" d="M149.6,105.4c0.3-0.4,0.6-0.7,0.9-1.1c0.8-1,1.5-1.9,2.3-2.9c0.2-0.2,0.4-0.4,0.7-0.3c0.4,0,0.9,0,1.3,0
			c0.1,0,0.2,0,0.4,0c-0.3,0.4-0.6,0.8-0.9,1.1c-0.8,1-1.6,2-2.4,2.9c-0.2,0.3-0.2,0.3,0,0.6c0.9,1.1,1.8,2.3,2.7,3.4
			c0.2,0.3,0.5,0.6,0.7,0.9c0.1,0.2,0.1,0.3-0.1,0.3c-0.5,0-1,0-1.5,0c-0.1,0-0.2-0.1-0.3-0.2c-0.9-1.1-1.8-2.2-2.7-3.3
			c-0.3-0.4-0.7-0.8-1-1.2c0,0.1,0,0.2,0,0.3c0,1.3,0,2.6,0,3.9c0,0.4,0,0.4-0.4,0.4c-0.4,0-0.7,0-1.1,0c-0.3,0-0.3,0-0.3-0.3
			c0-0.1,0-0.2,0-0.2c0-3.8,0-7.5,0-11.3c0-0.1,0-0.2,0-0.2c0-0.2,0.1-0.3,0.3-0.3c0.4,0,0.8,0,1.2,0c0.2,0,0.3,0.1,0.3,0.3
			c0,0.1,0,0.2,0,0.2c0,2.2,0,4.3,0,6.5C149.6,105.2,149.6,105.3,149.6,105.4C149.6,105.4,149.6,105.4,149.6,105.4z"/>
		<path fill="#010101" d="M160.3,108.1c0.2-0.5,0.4-1,0.6-1.4c0.5-1.4,1.1-2.8,1.6-4.1c0.2-0.4,0.3-0.8,0.5-1.2
			c0.1-0.2,0.1-0.2,0.3-0.2c0.5,0,0.9,0,1.4,0c0.3,0,0.3,0,0.2,0.3c-0.3,0.8-0.7,1.7-1,2.5c-0.6,1.5-1.2,3-1.9,4.5
			c-0.7,1.6-1.3,3.1-2,4.7c-0.1,0.2-0.2,0.3-0.4,0.2c-0.4,0-0.8,0-1.2,0c-0.4,0-0.4,0-0.2-0.4c0.4-0.8,0.7-1.7,1-2.5
			c0.1-0.3,0.1-0.6,0-0.9c-0.5-1.2-1-2.4-1.5-3.6c-0.6-1.6-1.3-3.1-1.9-4.7c-0.1-0.3-0.1-0.3,0.2-0.3c0.5,0,0.9,0,1.4,0
			c0.2,0,0.3,0.1,0.4,0.3c0.6,1.5,1.2,3.1,1.7,4.6c0.2,0.6,0.5,1.3,0.7,1.9C160.2,108,160.3,108,160.3,108.1z"/>
		<path fill="#010101" d="M155.7,73.3c0.1,0.1,0.1,0.1,0.1,0.2c0.7,0.9,1.3,1.9,2,2.8c0.1,0.1,0.1,0.2,0,0.4c-0.9,0.9-1.5,1.9-2,3.1
			c-0.1,0.2-0.1,0.3-0.3,0.1c-0.7-0.7-1.5-1.3-2.2-2c-0.2-0.1-0.2-0.3-0.1-0.5c0.4-1.1,1-2.2,1.8-3.1c0.2-0.3,0.4-0.5,0.6-0.8
			C155.5,73.4,155.6,73.3,155.7,73.3z"/>
		<path fill="#010101" d="M168.5,73.3c0.1-0.7,0.2-1.4,0.3-2c0.1-0.4,0.1-0.8,0.1-1.2c0-0.3,0.1-0.4,0.4-0.2c1,0.3,2,0.8,2.8,1.3
			c0.3,0.2,0.5,0.4,0.8,0.6c0.1,0.1,0.2,0.2,0.1,0.4c-0.3,0.8-0.6,1.7-0.9,2.5c-0.1,0.3-0.1,0.3-0.4,0.2c-1-0.6-2-1-3.1-1.2
			C168.5,73.5,168.5,73.5,168.5,73.3z"/>
		<path fill="#010101" d="M168.4,113.9c0.1-0.1,0.1-0.1,0.2-0.1c0.7-0.6,1.6-0.5,2.1,0.2c0.1,0.1,0.2,0.1,0.2,0
			c0.5-0.7,1.8-0.9,2.4,0c0.1,0.2,0.3,0.4,0.3,0.6c0.1,0.9,0.1,1.8,0.1,2.7c0,0.1-0.1,0.2-0.2,0.2c-0.6,0.1-0.6,0-0.6-0.5
			c0-0.5,0-1.1,0-1.6c0-0.1,0-0.3,0-0.4c-0.1-0.5-0.4-0.8-0.9-0.8c-0.5,0-0.8,0.4-0.9,0.9c0,0.7,0,1.3,0,2c0,0.1-0.1,0.4-0.1,0.4
			c-0.2,0-0.4,0-0.6,0c0,0-0.1-0.2-0.1-0.3c0-0.6,0-1.3,0-1.9c0-0.2,0-0.4-0.1-0.6c-0.1-0.3-0.3-0.5-0.7-0.5s-0.7,0-0.8,0.3
			c-0.1,0.2-0.2,0.5-0.2,0.8c0,0.6,0,1.3,0,1.9c0,0.3,0,0.3-0.3,0.3c-0.5,0-0.5,0-0.5-0.5c0-1,0-2.1,0-3.1c0-0.1,0.1-0.3,0.1-0.3
			c0.2,0,0.4,0,0.6,0C168.4,113.6,168.4,113.8,168.4,113.9z"/>
		<path fill="#010101" d="M164.9,76.1c0.2,0,0.2,0.1,0.3,0.2c0.1,0.9,0.2,1.8,0.4,2.7c0.1,0.6,0.1,0.6-0.6,0.8
			c-0.5,0.1-1,0.3-1.5,0.5c-0.2,0.1-0.3,0-0.4-0.2c-0.4-0.9-0.7-1.8-1.1-2.6c0-0.1-0.1-0.1-0.1-0.2c-0.1-0.3-0.1-0.4,0.2-0.5
			c0.7-0.2,1.4-0.4,2-0.6C164.4,76.2,164.6,76.2,164.9,76.1z"/>
		<path fill="#010101" d="M152,81.8c0-0.4,0.1-0.8,0.1-1.2c0-0.2,0.1-0.2,0.2-0.1c0.7,0.5,1.4,1,2.2,1.4c0.2,0.1,0.2,0.2,0.2,0.4
			c-0.2,1.1-0.2,2.3,0,3.4c0,0.2,0,0.3-0.2,0.2c-0.6-0.2-1.2-0.4-1.8-0.7c-0.1-0.1-0.2-0.2-0.3-0.3c-0.1-0.7-0.2-1.4-0.3-2.1
			C152,82.6,152,82.2,152,81.8z"/>
		<path fill="#010101" d="M161.5,81.4c0,0.1-0.1,0.1-0.1,0.2c-0.6,0.5-1.1,1-1.5,1.7c-0.1,0.1-0.2,0.2-0.3,0.1
			c-0.8-0.6-1.5-1.2-2.3-1.7c-0.1-0.1-0.1-0.2,0-0.3c0.3-0.5,0.6-0.9,0.9-1.4c0.3-0.4,0.7-0.7,1-1.1c0.1-0.2,0.2-0.1,0.4,0
			c0.6,0.8,1.2,1.6,1.8,2.4C161.4,81.2,161.4,81.3,161.5,81.4z"/>
		<path fill="#010101" d="M167.7,79.6c0.1-0.6,0.2-1.3,0.3-1.9c0.1-0.4,0.1-0.8,0.2-1.2c0-0.2,0.1-0.3,0.3-0.2
			c0.9,0.2,1.7,0.4,2.5,0.9c0.3,0.2,0.3,0.2,0.2,0.5c-0.4,0.9-0.7,1.8-1.1,2.6c-0.1,0.2-0.2,0.2-0.4,0.2c-0.6-0.2-1.2-0.4-1.8-0.5
			C167.7,79.8,167.7,79.7,167.7,79.6z"/>
		<path fill="#010101" d="M177.9,117c-0.8,0.9-2.2,0.7-2.9,0.1c-0.8-0.8-0.8-2.2-0.1-3c0.8-0.9,1.9-1,3-0.1c0,0,0,0,0-0.1
			c0-0.1,0-0.4,0.1-0.4c0.2-0.1,0.4,0,0.6,0c0.1,0,0.1,0.1,0.1,0.2c0,0.2,0,0.4,0,0.7c0,0.9,0,1.8,0,2.7c0,0.3,0,0.3-0.4,0.4
			c-0.1,0-0.1,0-0.1,0c-0.3,0-0.3,0-0.3-0.3C177.9,117.2,177.9,117.1,177.9,117z M177.9,115.5c0-0.8-0.6-1.3-1.3-1.4
			c-0.7,0-1.3,0.6-1.4,1.3c0,0.8,0.6,1.4,1.3,1.4C177.3,116.9,177.9,116.3,177.9,115.5z"/>
		<path fill="#010101" d="M177.8,78.8c0,0.1-0.1,0.1-0.1,0.2c-0.4,0.4-0.7,0.8-1.1,1.2c-0.1,0.1-0.2,0.1-0.3-0.1
			c-0.3-0.9-0.7-1.7-1.3-2.4c-0.2-0.2-0.3-0.5-0.5-0.7c-0.2-0.2-0.2-0.3,0-0.5c0.4-0.6,0.7-1.2,1.1-1.8c0.1-0.2,0.2-0.2,0.3,0
			c0.3,0.5,0.7,1,0.9,1.6c0.3,0.7,0.6,1.5,0.9,2.2C177.8,78.6,177.8,78.7,177.8,78.8z"/>
		<path fill="#010101" d="M172.9,83.3c0-0.1-0.1-0.1-0.1-0.2c-0.3-0.6-0.8-1.1-1.3-1.6c0,0,0-0.2,0-0.2c0.4-0.7,0.9-1.3,1.3-2
			c0.1-0.1,0.2-0.3,0.3-0.4c0.1-0.2,0.2-0.2,0.3,0c0.6,0.6,1.1,1.2,1.5,2c0.3,0.5,0.3,0.5-0.2,0.9c-0.5,0.5-1.1,0.9-1.6,1.4
			C173.1,83.2,173,83.2,172.9,83.3C173,83.3,173,83.3,172.9,83.3z"/>
		<path fill="#010101" d="M187.2,113.9c0.3-0.1,0.6-0.4,0.9-0.4c1.1-0.2,1.9,0.3,2,1.5c0.1,0.8,0,1.5,0,2.3c0,0.2-0.1,0.3-0.3,0.3
			c-0.6,0-0.6,0-0.6-0.5c0-0.5,0-1.1,0-1.6c0-0.2,0-0.3-0.1-0.5c-0.1-0.5-0.5-0.7-1-0.7c-0.5,0-0.9,0.3-1,0.8c0,0.1,0,0.2,0,0.4
			c0,0.6,0,1.3,0,1.9c0,0.3,0,0.3-0.3,0.3c-0.5,0-0.5,0-0.5-0.5c0-1,0-2.1,0-3.1c0-0.3,0-0.4,0.3-0.4
			C187.1,113.5,187.1,113.5,187.2,113.9C187.2,113.9,187.2,113.9,187.2,113.9z"/>
		<path fill="#010101" d="M156.3,85.5c0.1-0.6,0.1-1.2,0.2-1.8c0-0.2,0.1-0.3,0.3-0.2c0.7,0.4,1.5,0.7,2.2,1
			c0.3,0.2,0.3,0.1,0.2,0.5c-0.1,0.6-0.1,1.1-0.2,1.7c0,0.3-0.1,0.3-0.3,0.2c-0.7-0.1-1.4-0.2-2.1-0.4c-0.3-0.1-0.3-0.1-0.3-0.4
			C156.4,86,156.4,85.8,156.3,85.5C156.4,85.5,156.3,85.5,156.3,85.5z"/>
		<path fill="#010101" d="M159.2,88.3c0,0,0.1,0.1,0.2,0.2c0.3,0.5,0.5,1,0.8,1.5c0.1,0.2,0.1,0.3-0.1,0.3c-0.5,0.2-1.1,0.3-1.6,0.5
			c-0.1,0-0.2,0-0.3-0.1c-0.5-0.6-0.9-1.3-1.2-2c-0.1-0.2-0.1-0.3,0.2-0.3C157.8,88.4,158.4,88.3,159.2,88.3z"/>
		<path fill="#010101" d="M165.7,114.8c0-0.8,0-1.6,0-2.4c0-0.3,0-0.3,0.3-0.3c0.7,0,0.6-0.1,0.6,0.6c0,1.5,0,3,0,4.4
			c0,0.4,0,0.4-0.4,0.4c-0.6,0-0.5,0-0.5-0.5C165.7,116.3,165.7,115.5,165.7,114.8z"/>
		<path fill="#010101" d="M154,88.2c0.4,0,0.7,0,1.1,0.1c0.2,0,0.3,0.1,0.4,0.3c0.4,0.9,0.9,1.7,1.5,2.4c0,0,0.1,0.1,0.1,0.1
			c0.1,0.1,0.1,0.2-0.1,0.2c-0.2,0.1-0.4,0.1-0.6,0.1c-0.1,0-0.2-0.1-0.3-0.1c-0.9-0.8-1.6-1.8-2.2-2.8c0-0.1-0.1-0.2-0.1-0.2
			C153.8,88.2,153.9,88.2,154,88.2C154,88.2,154,88.2,154,88.2z"/>
		<path fill="#010101" d="M166.1,83.9c0,0-0.1,0.1-0.2,0.1c-0.3,0.1-0.6,0.2-0.9,0.2c-0.1,0-0.2-0.1-0.2-0.1
			c-0.3-0.5-0.5-1.1-0.8-1.6c0-0.1,0-0.2,0.1-0.2c0.5-0.2,1-0.3,1.5-0.4c0.1,0,0.2,0,0.2,0.2C165.9,82.6,166,83.2,166.1,83.9z"/>
		<path fill="#010101" d="M184.7,115.5c0-0.6,0-1.1,0-1.7c0-0.3,0-0.3,0.3-0.3c0.1,0,0.1,0,0.1,0c0.3,0,0.4,0,0.4,0.4
			c0,1.1,0,2.2,0,3.3c0,0.3,0,0.3-0.4,0.4c-0.1,0-0.1,0-0.1,0c-0.3,0-0.3,0-0.3-0.3C184.7,116.6,184.7,116.1,184.7,115.5z"/>
		<path fill="#010101" d="M167.1,83.7c0.1-0.6,0.1-1.1,0.2-1.6c0-0.2,0.1-0.3,0.3-0.2c0.4,0.1,0.9,0.2,1.3,0.4
			c0.2,0,0.2,0.1,0.1,0.3c-0.2,0.5-0.5,1-0.7,1.5c-0.1,0.1-0.1,0.1-0.3,0.1c-0.2-0.1-0.4-0.1-0.7-0.2C167.2,84,167,83.9,167.1,83.7z
			"/>
		<path fill="#010101" d="M163.2,85.6c-0.1,0-0.1,0-0.1-0.1c-0.5-0.3-0.9-0.6-1.4-1c-0.1-0.1-0.1-0.2,0-0.3c0.3-0.3,0.6-0.6,0.9-1
			c0.1-0.1,0.2-0.1,0.3,0c0.4,0.5,0.7,0.9,1.1,1.4c0,0.1,0.1,0.2,0,0.2c-0.2,0.2-0.4,0.4-0.6,0.6C163.2,85.5,163.2,85.6,163.2,85.6z
			"/>
		<path fill="#010101" d="M169.8,85.5c0,0-0.1-0.1-0.1-0.1c-0.2-0.2-0.3-0.4-0.5-0.5c-0.1-0.1-0.1-0.2,0-0.3c0.3-0.4,0.7-0.9,1-1.3
			c0.1-0.1,0.2-0.2,0.3,0c0.3,0.3,0.5,0.6,0.8,0.9c0,0.1,0,0.2,0,0.2c-0.4,0.4-0.9,0.7-1.3,1C169.9,85.5,169.9,85.5,169.8,85.5z"/>
		<path fill="#010101" d="M160.6,86.8c0.1-0.3,0.1-0.6,0.2-0.9c0-0.2,0.1-0.2,0.3-0.1c0.5,0.2,0.9,0.4,1.4,0.6
			c0.2,0.1,0.2,0.1,0.2,0.3c-0.1,0.2-0.1,0.4-0.1,0.5c0,0.2-0.1,0.2-0.3,0.2c-0.5-0.1-0.9-0.1-1.4-0.2
			C160.7,87.2,160.7,87.2,160.6,86.8z"/>
		<path fill="#010101" d="M162.2,88.3c0.1,0,0.2,0,0.2,0c0.1,0,0.2,0.1,0.2,0.1c0.1,0.2,0.1,0.4,0.2,0.5c0.1,0.1,0,0.2-0.1,0.2
			c-0.4,0.1-0.7,0.2-1.1,0.4c-0.1,0.1-0.2,0-0.3-0.1c-0.1-0.3-0.3-0.5-0.4-0.8c-0.1-0.2-0.1-0.3,0.2-0.3
			C161.5,88.4,161.8,88.4,162.2,88.3z"/>
		<path fill="#010101" d="M165.5,87.7c0.1-0.2,0.1-0.3,0.2-0.5c0.5-0.5,1.2-0.4,1.7-0.1c0.2,0.1,0.1,0.2-0.1,0.3
			c-0.4,0.2-0.9,0.5-1.3,0.7C165.7,88.3,165.5,88.1,165.5,87.7z"/>
		<path fill="#010101" d="M166.5,85.9c-0.1,0.1-0.1,0.2-0.2,0.2c-0.5,0.2-0.5,0.2-0.7-0.3c-0.3-0.6-0.3-0.6,0.4-0.7c0,0,0,0,0.1,0
			c0.3-0.1,0.4-0.1,0.4,0.3C166.4,85.5,166.4,85.7,166.5,85.9C166.4,85.8,166.4,85.9,166.5,85.9C166.4,85.9,166.5,85.9,166.5,85.9z"
			/>
		<path fill="#010101" d="M166.8,85.8c0-0.1,0-0.2,0.1-0.4c0.1-0.5,0.1-0.5,0.5-0.4c0.6,0.1,0.6,0.1,0.3,0.7c0,0,0,0.1-0.1,0.1
			c-0.2,0.6-0.2,0.4-0.7,0.3C166.8,86.1,166.8,86,166.8,85.8z"/>
		<path fill="#010101" d="M169.1,86.1c-0.1,0.1-0.1,0.2-0.2,0.2c-0.2,0.2-0.4,0.3-0.6,0.4c-0.1,0-0.2,0-0.2,0
			c-0.3-0.3-0.4-0.2,0-0.6c0.1-0.1,0.2-0.3,0.3-0.4c0-0.1,0.1-0.1,0.2-0.1C168.6,85.8,168.8,86,169.1,86.1z"/>
		<path fill="#010101" d="M164.4,87.7c-0.2,0-0.4,0-0.6-0.1c0,0-0.1,0-0.1,0c-0.2-0.2,0-0.4,0-0.5c0-0.1,0.1-0.3,0.3-0.2
			c0.3,0.1,0.5,0.2,0.8,0.3c0,0,0.1,0.1,0.1,0.1C164.9,87.5,164.6,87.7,164.4,87.7z"/>
		<path fill="#010101" d="M165.4,86.4c-0.1,0.1-0.2,0.3-0.4,0.4c-0.1,0-0.2,0-0.3-0.1c-0.1-0.1-0.3-0.2-0.4-0.3c0,0-0.1-0.1-0.1-0.1
			c-0.2-0.2,0-0.3,0.1-0.4c0.1-0.1,0.2-0.4,0.5-0.2c0.2,0.2,0.3,0.4,0.5,0.6C165.3,86.4,165.3,86.4,165.4,86.4z"/>
		<path fill="#010101" d="M184.6,112.5c0-0.1,0.1-0.4,0.1-0.4c0.2-0.1,0.4,0,0.6,0c0,0,0.1,0.1,0.1,0.1c0,0.1,0,0.1,0,0.2
			c0,0.5,0,0.5-0.5,0.5c-0.3,0-0.3,0-0.3-0.3C184.7,112.6,184.7,112.6,184.6,112.5C184.7,112.5,184.6,112.5,184.6,112.5z"/>
		<path fill="#010101" d="M164.4,88c0.1,0,0.2,0,0.3,0.1c0.2,0.3,0.2,0.4-0.2,0.5c-0.1,0-0.1,0.1-0.2,0.1c-0.4,0.1-0.6,0-0.7-0.4
			c0-0.1,0-0.2,0.1-0.2C164,88.1,164.2,88.1,164.4,88z"/>
	</g>
</g>
<g>
	<g>
		<path fill="#010101" d="M183.4,0c0,10.2,0,20.3,0,30.5c0,0,0,0,0,0C179,20.4,174.6,10.2,170.3,0C174.7,0,179,0,183.4,0z"/>
		<path fill="#010101" d="M147.8,30.5c0-10.1,0-20.3,0-30.4c4.2,0,8.5,0,12.7,0C156.4,10.2,152.1,20.3,147.8,30.5
			C147.9,30.5,147.9,30.5,147.8,30.5z"/>
		<path fill="#010101" d="M173.8,30.6c-0.1,0-0.1,0-0.2,0c-1.7,0-3.4,0-5.1,0c-0.1,0-0.2,0-0.2-0.2c-0.8-1.9-1.6-3.8-2.4-5.8
			c-0.1-0.3-0.1-0.3-0.4-0.3c-1.8,0-3.6,0-5.3,0c-0.1,0-0.1,0-0.2,0c1.8-4.2,3.7-8.5,5.5-12.7C168.3,18,171,24.3,173.8,30.6z"/>
		<path fill="#010101" d="M151,35.4C151,35.4,151.1,35.4,151,35.4c0.7,0,1.3,0,2,0c0.9,4,1.9,8.1,2.8,12.1c-0.7,0-1.4,0-2.1,0
			c-0.1-0.5-0.2-1-0.3-1.5c0-0.2-0.1-0.4-0.2-0.7c0,0-0.1-0.1-0.1-0.1c-0.8,0-1.6,0-2.4,0c0,0,0,0-0.1,0c-0.2,0.7-0.3,1.5-0.5,2.2
			c-0.7,0-1.4,0-2.1,0C149.1,43.5,150.1,39.4,151,35.4z M152.9,43.1c-0.3-1.5-0.6-3-0.9-4.4c0,0,0,0,0,0c-0.3,1.5-0.6,2.9-0.9,4.4
			C151.7,43.1,152.3,43.1,152.9,43.1z"/>
		<path fill="#010101" d="M172.5,46.5c0,0.3,0,0.7-0.1,1c-0.5,0-1.1,0-1.6,0c0-4,0-8.1,0-12.1c0.6,0,1.2,0,1.8,0c0,1.3,0,2.6,0,3.9
			c0,0,0,0,0,0c0,0,0,0,0-0.1c0.4-0.6,1-1,1.7-0.9c0.9,0.1,1.5,0.6,1.8,1.4c0.3,0.6,0.4,1.3,0.5,1.9c0.1,0.9,0.1,1.9,0,2.8
			c-0.1,0.7-0.3,1.4-0.6,2.1c-0.3,0.6-0.8,1-1.5,1.1c-0.9,0.1-1.5-0.1-1.9-0.9C172.7,46.7,172.6,46.6,172.5,46.5
			C172.5,46.5,172.5,46.5,172.5,46.5z M174.9,43c0-0.2,0-0.5,0-0.8c0-0.2,0-0.3-0.1-0.4c-0.1-0.4-0.2-0.8-0.4-1.2
			c-0.4-0.5-1-0.6-1.4,0c-0.1,0.2-0.3,0.5-0.3,0.7c-0.3,1.1-0.2,2.3,0,3.4c0.1,0.3,0.2,0.7,0.4,1c0.4,0.4,0.9,0.5,1.3,0
			c0.1-0.2,0.2-0.3,0.3-0.5C174.9,44.5,174.9,43.8,174.9,43z"/>
		<path fill="#010101" d="M160.3,35.4c0.6,0,1.2,0,1.8,0c0,4,0,8.1,0,12.1c-0.5,0-1.1,0-1.6,0c0-0.3,0-0.7-0.1-1c0,0,0,0,0,0
			c0,0,0,0.1-0.1,0.1c-0.2,0.2-0.3,0.5-0.4,0.7c-0.6,0.7-1.5,0.7-2.1,0.3c-0.5-0.3-0.8-0.7-1.1-1.3c-0.3-0.7-0.4-1.4-0.5-2.1
			c-0.1-1-0.1-2.1,0.1-3.1c0.1-0.7,0.3-1.3,0.8-1.8c0.5-0.7,1.3-0.9,2.1-0.8c0.3,0.1,0.6,0.3,0.9,0.5c0.1,0.1,0.2,0.2,0.3,0.3
			C160.3,38,160.3,36.7,160.3,35.4z M160.4,43.1c-0.1-0.5-0.1-1-0.2-1.5c-0.1-0.4-0.2-0.8-0.4-1.1c-0.4-0.5-1-0.5-1.3,0
			c-0.1,0.2-0.3,0.4-0.3,0.7c-0.3,1.2-0.3,2.5,0,3.7c0.1,0.3,0.2,0.7,0.4,0.9c0.3,0.3,0.8,0.3,1.1,0c0.2-0.2,0.3-0.4,0.4-0.7
			C160.3,44.5,160.3,43.8,160.4,43.1z"/>
		<path fill="#010101" d="M183.7,45c-0.1,0.4-0.2,0.9-0.4,1.3c-0.4,1-1.2,1.5-2.3,1.6c-0.5,0-1,0-1.5-0.3c-0.6-0.3-1-0.7-1.2-1.3
			c-0.3-0.6-0.4-1.3-0.5-2c-0.1-0.8-0.1-1.6,0-2.4c0.1-0.9,0.4-1.8,1-2.5c0.9-1.1,2.6-1.3,3.7-0.5c0.5,0.4,0.9,1,1,1.7
			c0.3,0.8,0.3,1.7,0.3,2.5c0,0.2,0,0.5,0,0.7c-1.4,0-2.8,0-4.2,0c0,0.2,0,0.3,0,0.4c0,0.4,0.1,0.9,0.3,1.2c0.2,0.5,0.7,0.7,1.2,0.6
			c0.2-0.1,0.4-0.2,0.5-0.4c0.1-0.2,0.1-0.4,0.2-0.6c0,0,0.1-0.1,0.1-0.1C182.5,44.9,183.1,44.9,183.7,45
			C183.7,44.9,183.7,45,183.7,45z M182,42.3c0-0.2,0-0.3,0-0.5c0-0.4-0.1-0.8-0.3-1.1c-0.1-0.2-0.3-0.4-0.5-0.4
			c-0.4-0.1-0.8,0-1,0.4c-0.3,0.3-0.3,0.7-0.4,1.1c0,0.2,0,0.4-0.1,0.6C180.4,42.3,181.2,42.3,182,42.3z"/>
		<path fill="#010101" d="M169.5,43.1c0,0.9-0.1,1.9-0.4,2.7c-0.2,0.5-0.5,1-1,1.4c-1,0.9-3.1,0.9-4.1-0.8c-0.4-0.6-0.6-1.4-0.7-2.1
			c-0.1-1-0.1-2,0.1-3c0.1-0.7,0.3-1.3,0.7-1.9c0.6-0.9,1.5-1.3,2.5-1.2c1.1,0.1,1.8,0.7,2.2,1.7c0.3,0.7,0.5,1.5,0.5,2.3
			C169.5,42.6,169.5,42.8,169.5,43.1z M167.7,43.1c0-0.5-0.1-1-0.1-1.4c0-0.4-0.1-0.8-0.3-1.1c-0.3-0.5-1.1-0.5-1.5,0
			c-0.2,0.2-0.3,0.5-0.3,0.8c-0.2,1.1-0.2,2.2-0.1,3.3c0.1,0.4,0.2,0.7,0.4,1c0.4,0.5,1.1,0.5,1.4,0c0.1-0.2,0.2-0.4,0.3-0.7
			C167.6,44.4,167.6,43.7,167.7,43.1z"/>
		<path fill="#010101" d="M191.9,0c0,1.3,0,2.5,0,3.7c-0.3,0-0.5,0-0.8,0c0-0.9,0-1.8,0-2.8c0,0,0,0,0,0c-0.3,0.9-0.7,1.8-1,2.8
			c0,0,0,0,0,0c-0.2,0-0.4,0.1-0.5,0c-0.1-0.1-0.1-0.3-0.2-0.4c-0.3-0.7-0.5-1.4-0.8-2.2c0,0,0-0.1-0.1-0.1c0,0.9,0,1.8,0,2.7
			c-0.3,0-0.5,0-0.8,0c0-1.2,0-2.5,0-3.7c0.1,0,0.2,0,0.3,0c0.2,0,0.4,0,0.6,0c0.1,0,0.1,0,0.2,0.1c0.3,0.9,0.6,1.8,1,2.6
			c0,0,0,0.1,0.1,0.2c0.2-0.5,0.3-1,0.5-1.4s0.3-0.9,0.5-1.4c0-0.1,0.1-0.1,0.2-0.1C191.3,0,191.6,0,191.9,0z"/>
		<path fill="#010101" d="M187.5,0.7c-0.4,0-0.8,0-1.1,0c0,1,0,2,0,3c-0.3,0-0.5,0-0.8,0c0-1,0-2,0-3c-0.4,0-0.8,0-1.1,0
			c0-0.2,0-0.5,0-0.7c1,0,2.1,0,3.1,0C187.5,0.3,187.5,0.5,187.5,0.7z"/>
	</g>
</g>
<g>
	<g>
		<path fill="#010101" d="M43.4,34.6c-1.4,1.1-2.8,2.1-4.2,3.1c-3.8-2.7-7.5-5.4-11.4-8.1c0.1,0,0.2,0,0.2,0c2.7,0,5.4,0,8.1,0
			c0.1,0,0.2,0,0.3,0.1c2.2,1.6,4.5,3.2,6.8,4.8C43.2,34.5,43.3,34.5,43.4,34.6z"/>
		<path fill="#010101" d="M45.2,13.2c0.9-0.6,1.7-1.2,2.5-1.9c0.5-0.4,1-0.7,1.5-1.1c0.1-0.1,0.2-0.1,0.3,0c3.2,2.3,6.4,4.6,9.6,6.9
			c0.5,0.3,0.9,0.7,1.4,1c0.1,0,0.1,0.1,0.2,0.1c-0.1,0-0.2,0-0.2,0c-2.7,0-5.4,0-8,0c-0.2,0-0.3,0-0.5-0.1
			c-2.2-1.6-4.5-3.2-6.7-4.7C45.3,13.3,45.3,13.3,45.2,13.2z"/>
		<path fill="#010101" d="M89.8,21C89.8,21.1,89.8,21.1,89.8,21c-0.6,2-1.2,3.9-1.8,5.8c-0.1,0.3-0.2,0.6-0.3,0.9
			c0,0.1-0.1,0.2-0.3,0.2c-0.2,0-0.4,0-0.6,0c-0.2,0-0.2-0.1-0.3-0.2c-0.3-1.1-0.7-2.2-1-3.4c-0.3-1.1-0.6-2.1-0.9-3.2
			c0,0,0-0.1-0.1-0.1c0,0.2,0,0.5-0.1,0.7c-0.1,0.9-0.2,1.9-0.2,2.8c-0.1,0.7-0.1,1.4-0.2,2.1c0,0.3-0.1,0.7-0.1,1
			c0,0.1-0.1,0.2-0.2,0.2c-0.3,0-0.7,0-1,0c0.1-0.4,0.1-0.9,0.1-1.3c0.1-0.6,0.1-1.2,0.2-1.8c0.1-0.6,0.1-1.2,0.2-1.8
			c0.1-0.6,0.1-1.1,0.2-1.7c0.1-0.4,0.1-0.9,0.1-1.3c0-0.1,0.1-0.2,0.2-0.2c0.5,0,0.9,0,1.4,0c0.1,0,0.2,0,0.2,0.1
			c0.6,1.9,1.1,3.7,1.7,5.6c0.1,0.2,0.1,0.4,0.2,0.6c0-0.2,0.1-0.3,0.1-0.5c0.4-1.2,0.7-2.4,1.1-3.6c0.2-0.7,0.4-1.3,0.6-2
			c0.1-0.2,0.1-0.2,0.3-0.2c0.4,0,0.9,0,1.4,0c0.1,0,0.2,0.1,0.2,0.2c0.1,0.8,0.1,1.6,0.2,2.4c0.1,0.7,0.1,1.5,0.2,2.3
			c0.1,0.8,0.1,1.5,0.2,2.3c0,0.3,0.1,0.6,0.1,0.8c0,0.1,0,0.1-0.1,0.1c-0.3,0-0.6,0-1,0c-0.1,0-0.1-0.1-0.1-0.1
			c-0.1-0.6-0.1-1.2-0.2-1.9c-0.1-0.7-0.1-1.4-0.2-2.1c-0.1-0.5-0.1-1-0.1-1.6C89.9,21.8,89.9,21.5,89.8,21
			C89.9,21.2,89.9,21.1,89.8,21z"/>
		<path fill="#010101" d="M107.9,21.3c0,0.1,0,0.2,0,0.2c0,1.6,0.1,3.2,0.1,4.8c0,0.5,0,1,0,1.5c0,0.1-0.1,0.2-0.2,0.2
			c-0.3,0-0.6,0-0.9,0c-0.1,0-0.2-0.1-0.2-0.2c0-2.6,0-5.2,0-7.8c0-0.1,0-0.2,0.2-0.2c0.4,0,0.7,0,1.1,0c0.1,0,0.2,0.1,0.2,0.1
			c1,1.7,1.9,3.5,2.9,5.3c0.2,0.3,0.3,0.6,0.4,0.9c0,0.1,0.1,0.1,0.1,0.2c0,0,0,0,0.1,0c0-0.1,0-0.1,0-0.1c0-0.6-0.1-1.2-0.1-1.8
			c0-0.1,0-0.3,0-0.4c0-1.3,0-2.6,0-3.9c0-0.2,0-0.3,0.2-0.2c0.2,0,0.4,0,0.6,0c0.3,0,0.3,0,0.3,0.2c0,1.2,0,2.4,0,3.6
			c0,1.4,0,2.7,0,4.1c0,0.2-0.1,0.2-0.2,0.2c-0.3,0-0.6,0-0.9,0c-0.1,0-0.2-0.1-0.2-0.1c-1.1-2-2.1-4-3.2-6
			c-0.1-0.1-0.1-0.2-0.2-0.4C107.9,21.4,107.9,21.4,107.9,21.3z"/>
		<path fill="#010101" d="M44.9,24.3c0,0.1,0,0.2,0,0.2c0,1.1,0,2.1,0,3.1c0,0.2-0.1,0.2-0.2,0.2c-0.2,0-0.5,0-0.8,0
			c-0.2,0-0.2-0.1-0.2-0.2c0-2.1,0-4.2,0-6.3c0-0.5,0-1,0-1.5c0-0.1,0.1-0.2,0.2-0.2c0.8,0,1.7,0,2.5,0c0.6,0,1.1,0.1,1.6,0.4
			c0.9,0.5,1.3,1.3,1.1,2.3c-0.1,1-0.9,1.7-1.8,1.8c-0.1,0-0.3,0-0.4,0.1c1.1,1,1.9,2.4,2.7,3.7c-0.2,0-0.4,0-0.5,0
			c-0.2,0-0.5,0-0.8,0c-0.1,0-0.2-0.1-0.3-0.2c-0.6-0.8-1.1-1.7-1.7-2.5c-0.2-0.2-0.4-0.5-0.6-0.7C45.5,24.4,45.2,24.3,44.9,24.3z
			 M44.9,22.1c0,0.4,0,0.9,0,1.3c0,0.1,0,0.2,0.2,0.2c0.5,0,1.1,0,1.6-0.1c0.7-0.1,1.2-0.7,1.2-1.4c0-0.7-0.4-1.2-1.2-1.3
			c-0.5-0.1-1.1-0.1-1.6-0.1c-0.1,0-0.1,0.1-0.1,0.2C44.9,21.2,44.9,21.7,44.9,22.1z"/>
		<path fill="#010101" d="M38.5,19.6c0.9,0,1.7,0.2,2.3,0.7c0.6,0.5,1,1.2,1.2,2c0.2,1.1,0.2,2.2-0.1,3.3c-0.5,1.3-1.4,2.1-2.8,2.3
			c-1,0.1-2,0-2.8-0.7c-0.7-0.5-1.1-1.3-1.3-2.1c-0.3-1.2-0.2-2.4,0.2-3.6c0.5-1.1,1.4-1.8,2.6-2c0.1,0,0.1,0,0.2,0
			C38.2,19.6,38.3,19.6,38.5,19.6z M40.8,23.9c-0.1-0.5-0.1-1-0.2-1.5c-0.1-0.5-0.2-0.9-0.6-1.3c-0.6-0.7-1.4-0.7-2.2-0.6
			c-0.9,0.2-1.3,0.7-1.5,1.6c-0.3,1.1-0.2,2.2,0,3.3c0.1,0.5,0.3,0.9,0.6,1.3c0.4,0.5,1,0.6,1.6,0.6c0.9,0,1.5-0.4,1.8-1.2
			C40.7,25.3,40.7,24.7,40.8,23.9z"/>
		<path fill="#010101" d="M57.6,23.9c-0.1,0.9-0.2,1.7-0.6,2.5c-0.6,0.9-1.4,1.5-2.5,1.6c-0.6,0.1-1.2,0.1-1.8-0.1
			c-1-0.3-1.7-1-2.1-2c-0.5-1.4-0.5-2.7,0-4.1c0.4-1.2,1.4-1.9,2.7-2.1c0.8-0.1,1.7-0.1,2.4,0.4c1,0.5,1.5,1.4,1.7,2.4
			C57.5,22.9,57.6,23.4,57.6,23.9z M51.6,23.7c0.1,0.6,0.1,1.1,0.2,1.6c0.1,0.5,0.3,1,0.7,1.4c0.6,0.5,1.3,0.6,2,0.4
			c0.8-0.2,1.2-0.8,1.4-1.6c0.3-1.2,0.2-2.3,0-3.5c-0.2-0.9-0.8-1.5-1.8-1.6c-1-0.1-1.9,0.2-2.3,1.3C51.7,22.4,51.7,23,51.6,23.7z"
			/>
		<path fill="#010101" d="M74.4,23.8c0-0.7,0.1-1.5,0.4-2.2c0.5-1.1,1.3-1.8,2.6-2c0.6-0.1,1.2-0.1,1.9,0.1c0.9,0.3,1.6,0.8,2,1.7
			c0.7,1.5,0.7,3.1,0.1,4.6c-0.5,1.2-1.4,1.8-2.7,1.9c-0.8,0.1-1.6,0-2.3-0.4c-1-0.5-1.5-1.4-1.7-2.4C74.5,24.8,74.5,24.3,74.4,23.8
			z M75.8,23.7c0,0.4,0,0.7,0.1,1.1c0,0.2,0.1,0.4,0.1,0.6c0.3,1.4,1.2,2,2.7,1.8c0.8-0.1,1.3-0.7,1.5-1.5c0.3-1.2,0.3-2.5,0-3.7
			c-0.2-0.8-0.8-1.4-1.7-1.5c-1.1-0.1-2,0.2-2.4,1.4C75.9,22.5,75.8,23.1,75.8,23.7z"/>
		<path fill="#010101" d="M11.8,23.1c0-0.8,0-1.6,0-2.4c0-0.3,0-0.6,0-0.8c0-0.1,0-0.2,0.2-0.2c0.3,0,0.6,0,0.9,0
			c0.1,0,0.2,0.1,0.2,0.2c0,0.1,0,0.1,0,0.2c0,2.5,0,5,0,7.5c0,0.3,0,0.3-0.3,0.3c-0.2,0-0.5,0-0.7,0c-0.2,0-0.2-0.1-0.2-0.2
			c0-1.1,0-2.3,0-3.4c0-0.2-0.1-0.2-0.2-0.2c-1,0-2,0-3,0c-0.2,0-0.2,0.1-0.2,0.2c0,1.1,0,2.3,0,3.4c0,0.2,0,0.2-0.2,0.2
			c-0.3,0-0.5,0-0.8,0c-0.1,0-0.2-0.1-0.2-0.2c0-0.9,0-1.7,0-2.6c0-1.7,0-3.5,0-5.2c0-0.2,0.1-0.2,0.2-0.2c0.2,0,0.5,0,0.8,0
			c0.2,0,0.2,0.1,0.2,0.2c0,1,0,2,0,2.9c0,0.2,0,0.2,0.2,0.2c1,0,2.1,0,3.1,0C11.6,23.1,11.7,23.1,11.8,23.1z"/>
		<path fill="#010101" d="M105.9,27.9c-0.4,0-0.9,0-1.3,0c-0.1,0-0.1-0.1-0.2-0.2c-0.2-0.6-0.5-1.3-0.7-2c-0.1-0.1-0.1-0.2-0.3-0.2
			c-0.9,0-1.8,0-2.8,0c-0.2,0-0.2,0.1-0.3,0.2c-0.2,0.6-0.4,1.3-0.7,1.9c-0.1,0.1-0.1,0.2-0.2,0.2c-0.4,0-0.7,0-1.1,0
			c0.1-0.2,0.1-0.4,0.2-0.5c0.9-2.5,1.8-5,2.7-7.5c0.1-0.2,0.1-0.2,0.3-0.2c0.4,0,0.7,0,1.1,0c0.2,0,0.2,0.1,0.3,0.2
			c0.5,1.5,1.1,3,1.6,4.5c0.4,1.1,0.8,2.2,1.1,3.2C105.8,27.7,105.8,27.8,105.9,27.9z M103.4,24.7c0-0.1,0-0.1,0-0.2
			c-0.4-1.2-0.7-2.3-1.1-3.5c0-0.1-0.1-0.1-0.1-0.1c0,0.1-0.1,0.1-0.1,0.2c-0.3,1.1-0.7,2.1-1,3.2c-0.1,0.2-0.1,0.3-0.2,0.5
			C101.7,24.7,102.6,24.7,103.4,24.7z"/>
		<path fill="#010101" d="M64.3,19.7c-0.2,0.4-0.5,0.8-0.7,1.2c-0.5,0.8-1,1.6-1.5,2.4c-0.1,0.1-0.1,0.2,0,0.3
			c0.9,1.4,1.7,2.7,2.6,4.1c0,0.1,0.1,0.1,0.1,0.2c-0.5,0-0.9,0-1.4,0c-0.1,0-0.1-0.1-0.2-0.1c-0.6-1-1.2-2.1-1.8-3.1
			c-0.1-0.1-0.1-0.2-0.2-0.3c-0.1,0.1-0.1,0.1-0.1,0.2c-0.6,1.1-1.2,2.1-1.7,3.1c-0.1,0.1-0.2,0.2-0.3,0.2c-0.4,0-0.8,0-1.2,0
			c0.1-0.1,0.1-0.1,0.1-0.2c0.8-1.3,1.6-2.7,2.5-4c0.1-0.2,0.1-0.3,0-0.4c-0.7-1.1-1.4-2.2-2.1-3.4c0-0.1-0.1-0.1-0.1-0.2
			c0.1,0,0.1,0,0.2,0c0.4,0,0.7,0,1.1,0c0.2,0,0.2,0.1,0.3,0.2c0.5,0.8,0.9,1.6,1.4,2.4c0,0.1,0.1,0.1,0.1,0.2
			c0.1-0.1,0.1-0.1,0.1-0.2c0.4-0.8,0.9-1.6,1.3-2.4c0.1-0.1,0.2-0.2,0.3-0.2C63.4,19.7,63.8,19.7,64.3,19.7z"/>
		<path fill="#010101" d="M93.3,23.8c0-1.3,0-2.6,0-3.8c0-0.2,0.1-0.2,0.2-0.2c0.9,0,1.7,0,2.6,0c0.7,0,1.4,0.1,2.1,0.6
			c0.6,0.4,0.9,1,0.9,1.7c0,1.4-0.9,2.4-2.2,2.6c-0.6,0.1-1.3,0-1.9,0.1c-0.3,0-0.3,0-0.3,0.3c0,0.9,0,1.7,0,2.6
			c0,0.3,0,0.3-0.3,0.3c-0.2,0-0.4,0-0.7,0c-0.2,0-0.2-0.1-0.2-0.2C93.3,26.4,93.3,25.1,93.3,23.8z M94.5,22.2c0,0.4,0,0.9,0,1.4
			c0,0.2,0,0.2,0.2,0.2c0.4,0,0.9,0,1.3,0c0.9,0,1.4-0.4,1.6-1.3c0.1-0.9-0.2-1.7-1.3-1.8c-0.5-0.1-1.1,0-1.6-0.1
			c-0.2,0-0.2,0.1-0.2,0.2C94.5,21.3,94.5,21.8,94.5,22.2z"/>
		<path fill="#010101" d="M19.5,19.7c-0.1,0.3-0.1,0.5-0.1,0.7c0,0.1-0.1,0.2-0.2,0.2c-1,0-2,0-3.1,0c-0.2,0-0.2,0.1-0.2,0.2
			c0,0.7,0,1.4,0,2.1c0,0.2,0.1,0.2,0.2,0.2c0.8,0,1.7,0,2.5,0c0.2,0,0.2,0,0.2,0.2c0,0.2,0,0.3,0,0.5c0,0.2-0.1,0.2-0.2,0.2
			c-0.8,0-1.6,0-2.4,0c-0.3,0-0.3,0-0.3,0.3c0,0.7,0,1.5,0,2.3c0,0.3,0,0.3,0.3,0.3c1.1,0,2.2,0,3.2,0c0.2,0,0.3,0.1,0.2,0.2
			c0,0.2,0,0.3,0,0.5c0,0.1-0.1,0.2-0.2,0.2c-0.2,0-0.5,0-0.7,0c-1.3,0-2.6,0-3.9,0c-0.2,0-0.3,0-0.3-0.2c0-2.6,0-5.1,0-7.7
			c0-0.2,0-0.2,0.2-0.2c1.5,0,2.9,0,4.4,0C19.3,19.7,19.4,19.7,19.5,19.7z"/>
		<path fill="#010101" d="M117,23.6c0.2-0.3,0.3-0.6,0.4-0.9c0.5-0.9,1-1.9,1.5-2.8c0.1-0.1,0.1-0.1,0.2-0.1c0.4,0,0.8,0,1.2,0
			c-0.1,0.1-0.1,0.1-0.1,0.2c-0.9,1.5-1.8,3-2.6,4.6c-0.1,0.1-0.1,0.2-0.1,0.4c0,0.9,0,1.9,0,2.8c0,0.2-0.1,0.2-0.2,0.2
			c-0.3,0-0.6,0-0.9,0c-0.2,0-0.2-0.1-0.2-0.2c0-0.9,0-1.9,0-2.8c0-0.1,0-0.3-0.1-0.4c-0.9-1.5-1.8-3.1-2.6-4.6
			c0-0.1-0.1-0.1-0.1-0.2c0.1,0,0.1,0,0.2,0c0.4,0,0.7,0,1.1,0c0.1,0,0.2,0,0.3,0.2C115.6,21.1,116.3,22.3,117,23.6
			C116.9,23.5,116.9,23.5,117,23.6z"/>
		<path fill="#010101" d="M29,27.4c-0.5,0.3-0.9,0.5-1.4,0.6c-0.7,0.1-1.4,0.1-2.2-0.1c-1.1-0.3-1.8-1-2.2-2
			c-0.6-1.4-0.6-2.8,0.1-4.2c0.6-1.2,1.6-1.9,3-2c0.7-0.1,1.5,0.1,2.1,0.4c0.1,0.1,0.2,0.1,0.3,0.2c-0.2,0.2-0.4,0.4-0.5,0.6
			c0,0-0.1,0-0.2,0c-0.4-0.2-0.9-0.4-1.4-0.4c-1,0-1.7,0.5-2.1,1.4c-0.2,0.4-0.2,0.9-0.3,1.3c-0.1,0.7-0.1,1.5,0.2,2.2
			c0.4,1.2,1.5,1.8,2.7,1.7c0.5-0.1,0.9-0.2,1.4-0.5C28.6,26.9,28.8,27.1,29,27.4z"/>
		<path fill="#010101" d="M73.5,26.7c0.2,0.2,0.4,0.5,0.6,0.7c-0.4,0.3-0.8,0.4-1.3,0.5c-0.9,0.2-1.7,0.2-2.6-0.1
			c-1-0.4-1.7-1.2-2-2.2c-0.4-1.2-0.4-2.5,0.1-3.7c0.6-1.3,1.6-2.1,3.1-2.2c0.8-0.1,1.6,0.1,2.3,0.4c0.1,0,0.1,0.1,0.2,0.1
			c0,0,0,0,0.1,0.1c-0.2,0.2-0.4,0.5-0.6,0.7c-0.4-0.1-0.7-0.3-1-0.4c-1.4-0.3-2.5,0.4-2.9,1.8c-0.3,1.1-0.3,2.2,0.1,3.2
			c0.3,1,1.1,1.5,2.1,1.6C72.3,27.2,72.9,27,73.5,26.7C73.4,26.7,73.5,26.7,73.5,26.7z"/>
		<path fill="#010101" d="M27.8,18.2c0.5-0.3,0.9-0.7,1.4-1c5-3.6,10-7.1,15-10.6c0.1-0.1,0.2-0.1,0.3,0c0.3,0.2,0.7,0.5,1,0.7
			c-0.2,0.1-0.4,0.2-0.6,0.3c-5.6,3.5-11.2,7-16.8,10.5C28,18.2,27.9,18.2,27.8,18.2C27.8,18.2,27.8,18.2,27.8,18.2z"/>
		<path fill="#010101" d="M44.3,41.3c-0.4-0.3-0.7-0.5-1.1-0.8c0.1-0.1,0.2-0.1,0.2-0.1c5.7-3.6,11.4-7.2,17.1-10.7
			c0.1-0.1,0.2-0.1,0.3-0.1c0,0,0,0.1,0,0.1C55.3,33.5,49.8,37.4,44.3,41.3z"/>
		<path fill="#010101" d="M6.1,19.7C6,20,6,20.3,5.9,20.5c0,0.1-0.1,0.1-0.2,0.1c-0.6,0-1.2,0-1.9,0c-0.3,0-0.3,0-0.3,0.3
			c0,2.2,0,4.5,0,6.7c0,0.2,0,0.3-0.2,0.2c-0.2,0-0.5,0-0.8,0c-0.2,0-0.2-0.1-0.2-0.2c0-1.1,0-2.1,0-3.1c0-1.2,0-2.4,0-3.7
			c0-0.2-0.1-0.2-0.2-0.2c-0.6,0-1.2,0-1.9,0c-0.2,0-0.2,0-0.2-0.2c0-0.2,0-0.3,0-0.5c0-0.1,0.1-0.2,0.2-0.2c1.1,0,2.1,0,3.2,0
			c0.8,0,1.7,0,2.5,0C6,19.7,6,19.7,6.1,19.7z"/>
		<path fill="#010101" d="M46.7,8.2C46,8.6,45.4,9,44.8,9.4c-4.6,2.9-9.3,5.8-13.9,8.7c-0.1,0.1-0.2,0.1-0.3,0.1c0,0,0,0,0-0.1
			c0.1-0.1,0.1-0.1,0.2-0.2c4.9-3.5,9.8-7,14.7-10.6c0.1-0.1,0.2-0.1,0.3,0C46,7.7,46.4,7.9,46.7,8.2z"/>
		<path fill="#010101" d="M41.9,39.6c0.7-0.4,1.4-0.9,2.1-1.3c4.6-2.9,9.1-5.7,13.7-8.6c0.1-0.1,0.2-0.1,0.4-0.2c0,0,0,0,0,0.1
			c0,0-0.1,0.1-0.1,0.1c-4.9,3.6-9.9,7.1-14.8,10.7c-0.1,0.1-0.2,0.1-0.3,0C42.5,40.1,42.2,39.9,41.9,39.6z"/>
		<path fill="#010101" d="M34.8,27c-0.1,0.3-0.1,0.5-0.2,0.8c0,0.1-0.1,0.1-0.2,0.1c-0.7,0-1.5,0-2.2,0c-0.6,0-1.2,0-1.9,0
			c-0.2,0-0.2,0-0.2-0.2c0-2.6,0-5.2,0-7.8c0-0.1,0-0.2,0.2-0.2c0.3,0,0.6,0,0.9,0c0.1,0,0.2,0.1,0.2,0.2c0,0.4,0,0.7,0,1.1
			c0,1.9,0,3.8,0,5.7c0,0.3,0,0.3,0.3,0.3c1,0,2,0,3,0C34.7,27,34.7,27,34.8,27z"/>
		<path fill="#010101" d="M48,9.1c-0.5,0.3-1,0.6-1.4,0.9c-4.3,2.7-8.6,5.4-13,8.1c-0.1,0.1-0.2,0.1-0.3,0.1c0,0,0,0,0-0.1
			c0.1-0.1,0.2-0.1,0.2-0.2c2.8-2,5.6-4.1,8.4-6.1c1.6-1.2,3.2-2.4,4.8-3.5c0.1-0.1,0.2-0.1,0.3,0C47.3,8.6,47.7,8.8,48,9.1z"/>
		<path fill="#010101" d="M55.3,29.6c-0.4,0.3-0.8,0.6-1.2,0.9c-4.1,2.9-8.1,5.9-12.1,8.9c-0.2,0.1-0.3,0.2-0.5,0
			c-0.3-0.2-0.6-0.4-0.9-0.7c0.2-0.2,0.5-0.3,0.7-0.4c4.6-2.9,9.1-5.7,13.7-8.6c0.1-0.1,0.2-0.1,0.3-0.1
			C55.3,29.5,55.3,29.6,55.3,29.6z"/>
		<path fill="#010101" d="M36,18.2c4.1-3,8.1-6,12.1-9c0.4,0.3,0.7,0.5,1.1,0.8c-0.1,0.1-0.1,0.1-0.2,0.1c-4.3,2.7-8.5,5.4-12.8,8
			C36.2,18.2,36.1,18.2,36,18.2C36,18.2,36,18.2,36,18.2z"/>
		<path fill="#010101" d="M52.6,29.6c-4.1,3-8.1,6-12.2,9c-0.4-0.3-0.7-0.5-1.1-0.8c0.1-0.1,0.1-0.1,0.2-0.1c4.2-2.7,8.5-5.4,12.8-8
			C52.3,29.6,52.4,29.6,52.6,29.6C52.6,29.5,52.6,29.6,52.6,29.6z"/>
	</g>
</g>
<g>
	<g>
		<path fill="#010101" d="M14.8,90.5c0.1-0.5,0.4-0.5,0.8-0.5c0.7,0,1.4,0,2.1,0c0.1,0,0.1,0,0.2,0c0.4,0,0.6,0.2,0.6,0.6
			c0,4.4,0,8.8,0,13.2c0,0.4-0.1,0.6-0.4,0.7c-0.1,0-0.2,0-0.4,0.1c-0.7,0-1.3,0-2,0c-0.1,0-0.2,0-0.4,0c-0.2-0.1-0.4-0.2-0.4-0.4
			c0-0.1,0-0.1-0.1-0.2C14.8,99.5,14.8,95,14.8,90.5z"/>
		<path fill="#010101" d="M43.1,83.7c0.1,0,0.3,0.1,0.4,0.1c0.9,0.2,1.7,1.1,1.7,2.3c-0.1,0.9-0.8,1.8-1.8,2
			c-1.4,0.2-2.7-0.9-2.6-2.3c0.1-1,0.9-1.9,1.9-2c0.1,0,0.1,0,0.2-0.1C43,83.7,43.1,83.7,43.1,83.7z"/>
		<path fill="#010101" d="M80.4,83.7c0.1,0,0.3,0.1,0.4,0.1c0.9,0.2,1.8,1.1,1.7,2.3c-0.1,0.9-0.8,1.8-1.8,2c-1.4,0.2-2.7-1-2.6-2.4
			c0.1-1,0.9-1.8,1.9-1.9c0.1,0,0.1,0,0.2-0.1C80.3,83.7,80.3,83.7,80.4,83.7z"/>
		<path fill="#010101" d="M61,103.2c-0.1,0.1-0.3,0.2-0.4,0.3c-1,0.7-2,1.2-3.2,1.4c-1.1,0.2-2.1,0.2-3.2-0.2
			c-1.3-0.4-2.1-1.4-2.5-2.7c-0.2-0.7-0.3-1.4-0.3-2.1c0-3,0-6.1,0-9.1c0-0.4,0.2-0.7,0.6-0.7c0.8,0,1.6,0,2.5,0
			c0.3,0,0.5,0.2,0.5,0.5c0,0.1,0,0.2,0,0.3c0,2.7,0,5.3,0,8c0,0.5,0,1,0.2,1.5c0.2,0.8,0.8,1.3,1.6,1.3c1.2,0.1,2.2-0.3,3.2-0.9
			c0.2-0.1,0.4-0.3,0.6-0.4c0.1-0.1,0.2-0.2,0.2-0.4c0-3.1,0-6.1,0-9.2c0-0.1,0-0.2,0-0.3c0-0.3,0.2-0.5,0.5-0.5c0.9,0,1.7,0,2.6,0
			c0.3,0,0.5,0.2,0.5,0.5c0,0.1,0,0.1,0,0.2c0,4.3,0,8.6,0,12.9c0,0.2,0,0.3,0,0.4c0,0.3-0.2,0.4-0.5,0.4c-0.7,0-1.3,0-2,0
			c-0.1,0-0.3,0-0.4,0c-0.3,0-0.5-0.2-0.5-0.5c0-0.2,0-0.4,0-0.6C61,103.4,61,103.3,61,103.2z"/>
		<path fill="#010101" d="M25.6,91.4c0.1-0.1,0.1-0.1,0.2-0.1c1.1-0.8,2.4-1.4,3.7-1.6c0.9-0.1,1.8-0.1,2.7,0.2
			c1.4,0.4,2.3,1.4,2.7,2.8c0.2,0.6,0.3,1.3,0.3,2c0,3.1,0,6.1,0,9.2c0,0.1,0,0.2,0,0.3c-0.1,0.2-0.2,0.4-0.5,0.4
			c-0.4,0-0.8,0-1.1,0c-0.5,0-0.9,0-1.4,0c-0.3,0-0.5-0.2-0.5-0.6c0-0.1,0-0.2,0-0.4c0-2.6,0-5.2,0-7.9c0-0.5,0-1-0.2-1.5
			c-0.3-0.8-0.9-1.3-1.7-1.4c-1.3-0.1-2.5,0.4-3.6,1.1c-0.3,0.2-0.4,0.5-0.4,0.8c0,2.9,0,5.9,0,8.8c0,0.1,0,0.2,0,0.3
			c0,0.5-0.2,0.7-0.6,0.7c-0.8,0-1.6,0-2.4,0c-0.3,0-0.5-0.3-0.5-0.6c0-0.1,0-0.2,0-0.2c0-4.3,0-8.6,0-12.9c0-0.1,0-0.2,0-0.2
			c0-0.3,0.2-0.6,0.6-0.6c0.8,0,1.5,0,2.3,0c0.3,0,0.5,0.2,0.5,0.5C25.6,90.8,25.6,91.1,25.6,91.4z"/>
		<path fill="#010101" d="M44.8,98.6c0,1.7,0,3.5,0,5.2c0,0.4-0.2,0.6-0.4,0.7c-0.1,0-0.2,0-0.3,0c-0.7,0-1.4,0-2.1,0
			c-0.1,0-0.2,0-0.3-0.1c-0.3-0.1-0.4-0.3-0.4-0.7c0-0.1,0-0.1,0-0.2c0-3.4,0-6.8,0-10.2c0-0.3,0-0.3-0.3-0.3c-1,0-2,0-3,0
			c-0.1,0-0.2,0-0.3,0c-0.3,0-0.5-0.2-0.5-0.5c0-0.7,0-1.4,0-2.2c0-0.3,0.1-0.4,0.4-0.4c0.2,0,0.3,0,0.4,0c3.4,0,6.7,0,10.1,0
			c0.2,0,0.3,0,0.5,0c0.2,0,0.4,0.2,0.4,0.4c0,0.8,0,1.5,0,2.3c0,0.3-0.2,0.4-0.4,0.5c-0.1,0-0.2,0-0.3,0c-1,0-2.1,0-3.1,0
			c-0.2,0-0.2,0-0.2,0.2C44.8,95.1,44.8,96.9,44.8,98.6z"/>
		<path fill="#010101" d="M82.1,93.2c0,0.1,0,0.2,0,0.3c0,3.4,0,6.9,0,10.3c0,0.1,0,0.2,0,0.3c-0.1,0.3-0.2,0.4-0.5,0.4
			c-0.4,0-0.9,0-1.3,0c-0.4,0-0.8,0-1.2,0c-0.4,0-0.6-0.2-0.6-0.7c0-0.1,0-0.1,0-0.2c0-3.4,0-6.8,0-10.2c0-0.1,0-0.2,0-0.3
			c-0.1,0-0.2,0-0.3,0c-1,0-2,0-3,0c-0.1,0-0.2,0-0.3,0c-0.3,0-0.5-0.2-0.5-0.5c0-0.7,0-1.5,0-2.2c0-0.3,0.1-0.4,0.4-0.4
			c0.2,0,0.3,0,0.5,0c3.4,0,6.7,0,10.1,0c0.2,0,0.3,0,0.5,0c0.2,0,0.4,0.2,0.4,0.4c0,0.8,0,1.5,0,2.2c0,0.3-0.2,0.5-0.5,0.5
			c-0.3,0-0.6,0-1,0c-0.8,0-1.6,0-2.4,0C82.3,93.2,82.2,93.2,82.1,93.2z"/>
		<path fill="#010101" d="M71.8,97.2c0,2.1,0,4.3,0,6.4c0,0.2,0,0.3,0,0.4c-0.1,0.3-0.2,0.4-0.6,0.5c-0.8,0-1.6,0-2.4,0
			c-0.3,0-0.5-0.2-0.5-0.6c0-0.1,0-0.2,0-0.3c0-4.3,0-8.6,0-12.9c0-0.1,0-0.2,0-0.3c0-0.3,0.2-0.4,0.4-0.4c0.1,0,0.3,0,0.4,0
			c0.7,0,1.4,0,2,0c0.1,0,0.3,0,0.4,0c0.2,0,0.4,0.2,0.4,0.4c0,0.1,0,0.2,0,0.4C71.8,92.9,71.8,95.1,71.8,97.2z"/>
		<path fill="#010101" d="M87.5,103.7c0,0.5-0.4,0.9-0.9,0.9c-0.5,0-1-0.4-1-1s0.4-0.9,1-0.9C87.1,102.8,87.5,103.2,87.5,103.7z
			 M86.6,102.8c-0.5,0-0.8,0.4-0.8,0.8c0,0.5,0.4,0.9,0.8,0.9s0.8-0.4,0.8-0.9C87.4,103.2,87.1,102.8,86.6,102.8z"/>
		<path fill="#010101" d="M86.3,104.2c0-0.1,0-0.1,0-0.2c0-0.3,0-0.5,0-0.8c0-0.1,0.1-0.2,0.2-0.2c0.1,0,0.2,0,0.3,0
			c0.2,0,0.3,0.1,0.3,0.2c0,0.2,0,0.3-0.2,0.3c0,0,0,0-0.1,0c0.1,0.2,0.2,0.3,0.3,0.5c0,0,0,0,0,0c0,0-0.1-0.1-0.1-0.1
			c-0.1-0.1-0.1-0.2-0.2-0.3c-0.1-0.1-0.2-0.2-0.3-0.1c0,0.1,0,0.2,0,0.2C86.4,104.1,86.4,104.2,86.3,104.2
			C86.3,104.2,86.3,104.2,86.3,104.2z M86.6,103.7C86.6,103.6,86.6,103.6,86.6,103.7C86.6,103.6,86.6,103.6,86.6,103.7
			c0.2,0,0.3-0.1,0.3-0.2c0-0.1-0.1-0.2-0.1-0.2c-0.1,0-0.3,0-0.4,0c0,0,0,0.2,0,0.3C86.4,103.6,86.5,103.6,86.6,103.7z"/>
	</g>
</g>
</svg>
