<?xml version="1.0" encoding="utf-8"?>
<!-- Generator: Adobe Illustrator 18.1.1, SVG Export Plug-In . SVG Version: 6.00 Build 0)  -->
<svg version="1.1" id="Layer_1" xmlns="http://www.w3.org/2000/svg" xmlns:xlink="http://www.w3.org/1999/xlink" x="0px" y="0px"
	 viewBox="0 0 379.5 50" enable-background="new 0 0 379.5 50" xml:space="preserve">
<g>
	<g>
		<path fill="#010101" d="M323,37.5c0.6,0,1.1,0,1.7,0c0.2,0,0.3,0.1,0.3,0.3c0.1,0.4,0.2,0.7,0.3,1c0.3,0.6,0.9,0.9,1.6,1
			c0.7,0.1,1.4-0.1,1.9-0.7c0.6-0.6,0.7-1.8,0.2-2.4c-0.3-0.4-0.7-0.5-1.2-0.7c-0.8-0.3-1.6-0.6-2.4-0.9c-0.6-0.3-1.2-0.6-1.5-1.2
			c-0.8-1.4-0.6-3.2,0.9-4.3c1.4-1.1,3.7-1.1,5,0c0.7,0.5,1,1.2,1.1,2c0,0.1,0,0.3,0.1,0.4c0,0.2,0,0.3-0.2,0.3c-0.5,0-1,0-1.5,0
			c-0.2,0-0.2-0.1-0.2-0.2c-0.1-0.8-0.5-1.3-1.3-1.5c-0.8-0.2-1.5,0-2,0.6c-0.5,0.7-0.4,1.6,0.3,2.1c0.3,0.2,0.6,0.3,0.9,0.4
			c0.7,0.3,1.5,0.5,2.2,0.8c1.1,0.4,1.8,1.2,2,2.4c0.2,1.2,0,2.3-0.7,3.3c-0.6,0.7-1.3,1.1-2.2,1.3c-1.2,0.3-2.3,0.1-3.4-0.4
			c-0.9-0.5-1.5-1.2-1.8-2.2c0-0.1-0.1-0.3-0.1-0.4C323,38,323,37.7,323,37.5z"/>
		<path fill="#010101" d="M379.5,41.1c-0.6,0-1.2,0-1.8,0c-0.2,0-0.3-0.1-0.4-0.2c-0.6-0.9-1.3-1.8-1.9-2.7c-0.2-0.3-0.2-0.3-0.4,0
			c-0.6,0.9-1.2,1.8-1.8,2.7c-0.1,0.2-0.3,0.3-0.5,0.3c-0.5,0-1,0-1.4,0c-0.1,0-0.2-0.1-0.2-0.1c0-0.1,0.1-0.1,0.1-0.2
			c0.9-1.4,1.9-2.8,2.8-4.2c0.1-0.2,0.1-0.3,0-0.5c-0.9-1.3-1.9-2.7-2.8-4c0,0-0.1-0.1-0.1-0.2c0.1,0,0.2,0,0.3,0c0.5,0,1,0,1.5,0
			c0.2,0,0.4,0.1,0.5,0.3c0.5,0.8,1.1,1.6,1.6,2.4c0.2,0.3,0.2,0.3,0.4,0c0.5-0.8,1.1-1.6,1.6-2.4c0.1-0.2,0.2-0.2,0.4-0.2
			c0.5,0,1.1,0,1.6,0c0.1,0,0.1,0,0.2,0c0,0.1,0,0.2-0.1,0.2c-0.8,1.3-1.7,2.5-2.5,3.8c-0.4,0.6-0.4,0.4,0,1
			c0.9,1.4,1.9,2.8,2.8,4.2C379.5,41,379.5,41.1,379.5,41.1z"/>
		<path fill="#010101" d="M348.9,0c0.1,0.8,0.2,1.6,0.3,2.4c0.1,0.5,0.1,0.9,0.2,1.4c0,0.3,0,0.3-0.3,0.3c-1,0.2-2,0.5-3,0.9
			c-0.2,0.1-0.5,0.2-0.7,0.3c-0.2,0.1-0.2,0-0.3-0.1c-0.5-1.2-0.9-2.3-1.4-3.5c-0.1-0.2,0-0.3,0.2-0.4c1.4-0.7,2.8-1.2,4.4-1.3
			c0,0,0.1,0,0.1,0C348.6,0,348.8,0,348.9,0z"/>
		<path fill="#010101" d="M365.8,50c-0.2-0.1-0.5-0.1-0.7-0.2c-0.4-0.2-0.6-0.4-0.8-0.8c-0.1-0.2-0.1-0.3,0.2-0.3c0.1,0,0.2,0,0.2,0
			c0.2,0,0.4,0.1,0.6,0.2c0.6,0.7,1.6,0.5,2.1-0.3c0.1-0.2,0.1-0.5,0.2-0.8c-0.5,0.4-1,0.6-1.6,0.6c-0.6-0.1-1.1-0.3-1.5-0.8
			c-0.6-0.8-0.5-2.1,0.2-2.8c0.7-0.8,1.8-0.8,2.8,0c0,0,0,0,0-0.1c0-0.1,0.1-0.3,0.1-0.3c0.2,0,0.4,0,0.6,0c0,0,0.1,0.2,0.1,0.3
			c0,0.6,0,1.2,0,1.7c0,0.5,0,1,0,1.5c0,1.1-0.6,1.9-1.6,2.2c-0.1,0-0.1,0-0.1,0.1C366.3,50,366,50,365.8,50z M366.2,44.9
			c-0.8,0-1.4,0.6-1.4,1.4c0,0.8,0.6,1.4,1.4,1.4c0.7,0,1.3-0.7,1.3-1.4C367.5,45.5,366.9,44.9,366.2,44.9z"/>
		<path fill="#010101" d="M376.9,50c-0.1,0-0.2-0.1-0.4-0.1c-0.5-0.1-0.9-0.5-1.1-0.9c-0.2-0.3-0.1-0.4,0.2-0.4c0.1,0,0.2,0,0.3,0
			c0.2,0,0.3,0,0.4,0.2c0.4,0.4,0.9,0.6,1.4,0.4c0.5-0.2,0.8-0.5,0.9-1.1c0-0.1,0-0.3,0.1-0.4c-1,0.9-2.2,0.9-2.9,0.1
			c-0.8-0.9-0.8-2.2,0-3c0.8-0.8,1.9-0.8,2.9,0c0,0,0,0,0,0c0.1-0.5,0.1-0.5,0.6-0.5c0.1,0,0.2,0,0.2,0c0,1.3,0,2.7,0,4.1
			c-0.1,0.4-0.3,0.9-0.6,1.2c-0.3,0.3-0.7,0.4-1.1,0.5C377.4,50,377.2,50,376.9,50z M376,46.2c0,0.8,0.6,1.4,1.3,1.4
			c0.7,0,1.3-0.6,1.3-1.4c0-0.8-0.6-1.4-1.3-1.4C376.6,44.9,376,45.5,376,46.2z"/>
		<path fill="#010101" d="M361.8,16.5c0,2.4-0.8,4.5-2.3,6.3c-1.6,2-3.7,3.1-6.2,3.6c-1,0.2-2,0.2-3,0.1c-1.5-0.2-2.9-0.6-4.3-1.3
			c-1-0.5-1.9-1.2-2.7-2c-0.2-0.2-0.2-0.2,0.1-0.3c1.6-0.5,3.1-1.1,4.7-1.7c2.5-1,4.9-2.2,7.2-3.7c2-1.3,3.9-2.8,5.7-4.3
			c0.2-0.2,0.2-0.2,0.3,0.1C361.5,14,361.8,15.4,361.8,16.5z"/>
		<path fill="#010101" d="M352.1,33c0.4-0.3,0.8-0.7,1.2-0.9c1.5-0.8,2.9-0.6,4.3,0.2c1.5,0.9,2.3,2.1,2.4,3.8
			c0.1,2-0.7,3.6-2.4,4.6c-0.6,0.4-1.3,0.5-2,0.6c-1.2,0.1-2.2-0.2-3.1-1c-0.2-0.1-0.3-0.3-0.5-0.5c0,0.3,0,0.6,0,0.9
			c0,0.4,0,0.4-0.4,0.4c-0.3,0-0.6,0-0.9,0c-0.5,0-0.5,0-0.5-0.4c0-2.1,0-4.1,0-6.2c0-1.8,0-3.5,0-5.3c0-0.4,0-0.4,0.4-0.4
			c0.3,0,0.7,0,1,0c0.3,0,0.3,0,0.3,0.3c0,1.2,0,2.4,0,3.6C352.1,32.8,352.1,32.9,352.1,33z M358.2,36.5c0-0.7-0.2-1.4-0.7-2
			c-1-1.4-3.2-1.6-4.4-0.4c-1.1,1.1-1.4,2.6-0.7,4c0.5,1.1,1.9,1.9,3.1,1.7C357.1,39.4,358.2,38.1,358.2,36.5z"/>
		<path fill="#010101" d="M365.6,31.6c2.6,0,4.7,1.7,5.1,4c0.3,1.5-0.1,2.8-1.1,4c-0.9,1.1-2.1,1.6-3.5,1.7c-2.8,0.2-5-1.9-5.3-4.4
			c-0.2-2,0.9-3.9,2.5-4.7C364.1,31.8,364.9,31.6,365.6,31.6z M362.6,36.5c0,1.8,1.4,3.2,3.2,3.2c1.8,0,3.2-1.5,3.2-3.3
			c0-1.6-1.2-3.2-3.2-3.2C364,33.2,362.6,34.7,362.6,36.5z"/>
		<path fill="#010101" d="M334.2,36.2c0.3-0.4,0.6-0.7,0.9-1.1c0.8-1,1.5-1.9,2.3-2.9c0.2-0.2,0.4-0.4,0.7-0.3c0.4,0,0.9,0,1.3,0
			c0.1,0,0.2,0,0.4,0c-0.3,0.4-0.6,0.8-0.9,1.1c-0.8,1-1.6,2-2.4,2.9c-0.2,0.3-0.2,0.3,0,0.6c0.9,1.1,1.8,2.3,2.7,3.4
			c0.2,0.3,0.5,0.6,0.7,0.9c0.1,0.2,0.1,0.3-0.1,0.3c-0.5,0-1,0-1.5,0c-0.1,0-0.2-0.1-0.3-0.2c-0.9-1.1-1.8-2.2-2.7-3.3
			c-0.3-0.4-0.7-0.8-1-1.2c0,0.1,0,0.2,0,0.3c0,1.3,0,2.6,0,3.9c0,0.4,0,0.4-0.4,0.4c-0.4,0-0.7,0-1.1,0c-0.3,0-0.3,0-0.3-0.3
			c0-0.1,0-0.2,0-0.2c0-3.8,0-7.5,0-11.3c0-0.1,0-0.2,0-0.2c0-0.2,0.1-0.3,0.3-0.3c0.4,0,0.8,0,1.2,0c0.2,0,0.3,0.1,0.3,0.3
			c0,0.1,0,0.2,0,0.2c0,2.2,0,4.3,0,6.5C334.1,35.9,334.1,36,334.2,36.2C334.1,36.1,334.2,36.1,334.2,36.2z"/>
		<path fill="#010101" d="M344.9,38.9c0.2-0.5,0.4-1,0.6-1.4c0.5-1.4,1.1-2.8,1.6-4.1c0.2-0.4,0.3-0.8,0.5-1.2
			c0.1-0.2,0.1-0.2,0.3-0.2c0.5,0,0.9,0,1.4,0c0.3,0,0.3,0,0.2,0.3c-0.3,0.8-0.7,1.7-1,2.5c-0.6,1.5-1.2,3-1.9,4.5
			c-0.7,1.6-1.3,3.1-2,4.7c-0.1,0.2-0.2,0.3-0.4,0.2c-0.4,0-0.8,0-1.2,0c-0.4,0-0.4,0-0.2-0.4c0.4-0.8,0.7-1.7,1-2.5
			c0.1-0.3,0.1-0.6,0-0.9c-0.5-1.2-1-2.4-1.5-3.6c-0.6-1.6-1.3-3.1-1.9-4.7c-0.1-0.3-0.1-0.3,0.2-0.3c0.5,0,0.9,0,1.4,0
			c0.2,0,0.3,0.1,0.4,0.3c0.6,1.5,1.2,3.1,1.7,4.6c0.2,0.6,0.5,1.3,0.7,1.9C344.8,38.7,344.8,38.7,344.9,38.9z"/>
		<path fill="#010101" d="M340.2,4c0.1,0.1,0.1,0.1,0.1,0.2c0.7,0.9,1.3,1.9,2,2.8c0.1,0.1,0.1,0.2,0,0.4c-0.9,0.9-1.5,1.9-2,3.1
			c-0.1,0.2-0.1,0.3-0.3,0.1c-0.7-0.7-1.5-1.3-2.2-2c-0.2-0.1-0.2-0.3-0.1-0.5c0.4-1.1,1-2.2,1.8-3.1c0.2-0.3,0.4-0.5,0.6-0.8
			C340.1,4.1,340.1,4.1,340.2,4z"/>
		<path fill="#010101" d="M353.1,4c0.1-0.7,0.2-1.4,0.3-2c0.1-0.4,0.1-0.8,0.1-1.2c0-0.3,0.1-0.4,0.4-0.2c1,0.3,2,0.8,2.8,1.3
			c0.3,0.2,0.5,0.4,0.8,0.6c0.1,0.1,0.2,0.2,0.1,0.4c-0.3,0.8-0.6,1.7-0.9,2.5c-0.1,0.3-0.1,0.3-0.4,0.2c-1-0.6-2-1-3.1-1.2
			C353.1,4.3,353.1,4.2,353.1,4z"/>
		<path fill="#010101" d="M353,44.6c0.1-0.1,0.1-0.1,0.2-0.1c0.7-0.6,1.6-0.5,2.1,0.2c0.1,0.1,0.2,0.1,0.2,0c0.5-0.7,1.8-0.9,2.4,0
			c0.1,0.2,0.3,0.4,0.3,0.6c0.1,0.9,0.1,1.8,0.1,2.7c0,0.1-0.1,0.2-0.2,0.2c-0.6,0.1-0.6,0-0.6-0.5c0-0.5,0-1.1,0-1.6
			c0-0.1,0-0.3,0-0.4c-0.1-0.5-0.4-0.8-0.9-0.8c-0.5,0-0.8,0.4-0.9,0.9c0,0.7,0,1.3,0,2c0,0.1-0.1,0.4-0.1,0.4c-0.2,0-0.4,0-0.6,0
			c0,0-0.1-0.2-0.1-0.3c0-0.6,0-1.3,0-1.9c0-0.2,0-0.4-0.1-0.6c-0.1-0.3-0.3-0.5-0.7-0.5c-0.3,0-0.7,0-0.8,0.3
			c-0.1,0.2-0.2,0.5-0.2,0.8c0,0.6,0,1.3,0,1.9c0,0.3,0,0.3-0.3,0.3c-0.5,0-0.5,0-0.5-0.5c0-1,0-2.1,0-3.1c0-0.1,0.1-0.3,0.1-0.3
			c0.2,0,0.4,0,0.6,0C352.9,44.3,352.9,44.5,353,44.6z"/>
		<path fill="#010101" d="M349.4,6.8c0.2,0,0.2,0.1,0.3,0.2c0.1,0.9,0.2,1.8,0.4,2.7c0.1,0.6,0.1,0.6-0.6,0.8
			c-0.5,0.1-1,0.3-1.5,0.5c-0.2,0.1-0.3,0-0.4-0.2c-0.4-0.9-0.7-1.8-1.1-2.6c0-0.1-0.1-0.1-0.1-0.2c-0.1-0.3-0.1-0.4,0.2-0.5
			c0.7-0.2,1.4-0.4,2-0.6C348.9,6.9,349.2,6.9,349.4,6.8z"/>
		<path fill="#010101" d="M336.6,12.6c0-0.4,0.1-0.8,0.1-1.2c0-0.2,0.1-0.2,0.2-0.1c0.7,0.5,1.4,1,2.2,1.4c0.2,0.1,0.2,0.2,0.2,0.4
			c-0.2,1.1-0.2,2.3,0,3.4c0,0.2,0,0.3-0.2,0.2c-0.6-0.2-1.2-0.4-1.8-0.7c-0.1-0.1-0.2-0.2-0.3-0.3c-0.1-0.7-0.2-1.4-0.3-2.1
			C336.6,13.3,336.6,12.9,336.6,12.6z"/>
		<path fill="#010101" d="M346.1,12.1c0,0.1-0.1,0.1-0.1,0.2c-0.6,0.5-1.1,1-1.5,1.7c-0.1,0.1-0.2,0.2-0.3,0.1
			c-0.8-0.6-1.5-1.2-2.3-1.7c-0.1-0.1-0.1-0.2,0-0.3c0.3-0.5,0.6-0.9,0.9-1.4c0.3-0.4,0.7-0.7,1-1.1c0.1-0.2,0.2-0.1,0.4,0
			c0.6,0.8,1.2,1.6,1.8,2.4C346,11.9,346,12,346.1,12.1z"/>
		<path fill="#010101" d="M352.2,10.3c0.1-0.6,0.2-1.3,0.3-1.9c0.1-0.4,0.1-0.8,0.2-1.2c0-0.2,0.1-0.3,0.3-0.2
			c0.9,0.2,1.7,0.4,2.5,0.9c0.3,0.2,0.3,0.2,0.2,0.5c-0.4,0.9-0.7,1.8-1.1,2.6c-0.1,0.2-0.2,0.2-0.4,0.2c-0.6-0.2-1.2-0.4-1.8-0.5
			C352.3,10.5,352.2,10.4,352.2,10.3z"/>
		<path fill="#010101" d="M362.4,47.7c-0.8,0.9-2.2,0.7-2.9,0.1c-0.8-0.8-0.8-2.2-0.1-3c0.8-0.9,1.9-1,3-0.1c0,0,0,0,0-0.1
			c0-0.1,0-0.4,0.1-0.4c0.2-0.1,0.4,0,0.6,0c0.1,0,0.1,0.1,0.1,0.2c0,0.2,0,0.4,0,0.7c0,0.9,0,1.8,0,2.7c0,0.3,0,0.3-0.4,0.4
			c-0.1,0-0.1,0-0.1,0c-0.3,0-0.3,0-0.3-0.3C362.5,47.9,362.4,47.8,362.4,47.7z M362.5,46.2c0-0.8-0.6-1.3-1.3-1.4
			c-0.7,0-1.3,0.6-1.4,1.3c0,0.8,0.6,1.4,1.3,1.4C361.9,47.6,362.5,47,362.5,46.2z"/>
		<path fill="#010101" d="M362.4,9.6c0,0.1-0.1,0.1-0.1,0.2c-0.4,0.4-0.7,0.8-1.1,1.2c-0.1,0.1-0.2,0.1-0.3-0.1
			c-0.3-0.9-0.7-1.7-1.3-2.4c-0.2-0.2-0.3-0.5-0.5-0.7c-0.2-0.2-0.2-0.3,0-0.5c0.4-0.6,0.7-1.2,1.1-1.8c0.1-0.2,0.2-0.2,0.3,0
			c0.3,0.5,0.7,1,0.9,1.6c0.3,0.7,0.6,1.5,0.9,2.2C362.3,9.3,362.3,9.4,362.4,9.6z"/>
		<path fill="#010101" d="M357.5,14c0-0.1-0.1-0.1-0.1-0.2c-0.3-0.6-0.8-1.1-1.3-1.6c0,0,0-0.2,0-0.2c0.4-0.7,0.9-1.3,1.3-2
			c0.1-0.1,0.2-0.3,0.3-0.4c0.1-0.2,0.2-0.2,0.3,0c0.6,0.6,1.1,1.2,1.5,2c0.3,0.5,0.3,0.5-0.2,0.9c-0.5,0.5-1.1,0.9-1.6,1.4
			C357.6,13.9,357.6,13.9,357.5,14C357.5,14,357.5,14,357.5,14z"/>
		<path fill="#010101" d="M371.8,44.6c0.3-0.1,0.6-0.4,0.9-0.4c1.1-0.2,1.9,0.3,2,1.5c0.1,0.8,0,1.5,0,2.3c0,0.2-0.1,0.3-0.3,0.3
			c-0.6,0-0.6,0-0.6-0.5c0-0.5,0-1.1,0-1.6c0-0.2,0-0.3-0.1-0.5c-0.1-0.5-0.5-0.7-1-0.7c-0.5,0-0.9,0.3-1,0.8c0,0.1,0,0.2,0,0.4
			c0,0.6,0,1.3,0,1.9c0,0.3,0,0.3-0.3,0.3c-0.5,0-0.5,0-0.5-0.5c0-1,0-2.1,0-3.1c0-0.3,0-0.4,0.3-0.4
			C371.7,44.2,371.7,44.2,371.8,44.6C371.8,44.6,371.8,44.6,371.8,44.6z"/>
		<path fill="#010101" d="M340.9,16.2c0.1-0.6,0.1-1.2,0.2-1.8c0-0.2,0.1-0.3,0.3-0.2c0.7,0.4,1.5,0.7,2.2,1
			c0.3,0.2,0.3,0.1,0.2,0.5c-0.1,0.6-0.1,1.1-0.2,1.7c0,0.3-0.1,0.3-0.3,0.2c-0.7-0.1-1.4-0.2-2.1-0.4c-0.3-0.1-0.3-0.1-0.3-0.4
			C340.9,16.7,340.9,16.5,340.9,16.2C340.9,16.2,340.9,16.2,340.9,16.2z"/>
		<path fill="#010101" d="M343.8,19c0,0,0.1,0.1,0.2,0.2c0.3,0.5,0.5,1,0.8,1.5c0.1,0.2,0.1,0.3-0.1,0.3c-0.5,0.2-1.1,0.3-1.6,0.5
			c-0.1,0-0.2,0-0.3-0.1c-0.5-0.6-0.9-1.3-1.2-2c-0.1-0.2-0.1-0.3,0.2-0.3C342.3,19.1,343,19,343.8,19z"/>
		<path fill="#010101" d="M350.3,45.5c0-0.8,0-1.6,0-2.4c0-0.3,0-0.3,0.3-0.3c0.7,0,0.6-0.1,0.6,0.6c0,1.5,0,3,0,4.4
			c0,0.4,0,0.4-0.4,0.4c-0.6,0-0.5,0-0.5-0.5C350.3,47,350.3,46.3,350.3,45.5z"/>
		<path fill="#010101" d="M338.6,18.9c0.4,0,0.7,0,1.1,0.1c0.2,0,0.3,0.1,0.4,0.3c0.4,0.9,0.9,1.7,1.5,2.4c0,0,0.1,0.1,0.1,0.1
			c0.1,0.1,0.1,0.2-0.1,0.2c-0.2,0.1-0.4,0.1-0.6,0.1c-0.1,0-0.2-0.1-0.3-0.1c-0.9-0.8-1.6-1.8-2.2-2.8c0-0.1-0.1-0.2-0.1-0.2
			C338.4,19,338.5,18.9,338.6,18.9C338.6,18.9,338.6,18.9,338.6,18.9z"/>
		<path fill="#010101" d="M350.6,14.6c0,0-0.1,0.1-0.2,0.1c-0.3,0.1-0.6,0.2-0.9,0.2c-0.1,0-0.2-0.1-0.2-0.1
			c-0.3-0.5-0.5-1.1-0.8-1.6c0-0.1,0-0.2,0.1-0.2c0.5-0.2,1-0.3,1.5-0.4c0.1,0,0.2,0,0.2,0.2C350.5,13.3,350.6,13.9,350.6,14.6z"/>
		<path fill="#010101" d="M369.2,46.2c0-0.6,0-1.1,0-1.7c0-0.3,0-0.3,0.3-0.3c0.1,0,0.1,0,0.1,0c0.3,0,0.4,0,0.4,0.4
			c0,1.1,0,2.2,0,3.3c0,0.3,0,0.3-0.4,0.4c-0.1,0-0.1,0-0.1,0c-0.3,0-0.3,0-0.3-0.3C369.2,47.4,369.2,46.8,369.2,46.2z"/>
		<path fill="#010101" d="M351.7,14.4c0.1-0.6,0.1-1.1,0.2-1.6c0-0.2,0.1-0.3,0.3-0.2c0.4,0.1,0.9,0.2,1.3,0.4
			c0.2,0,0.2,0.1,0.1,0.3c-0.2,0.5-0.5,1-0.7,1.5c-0.1,0.1-0.1,0.1-0.3,0.1c-0.2-0.1-0.4-0.1-0.7-0.2
			C351.7,14.7,351.6,14.6,351.7,14.4z"/>
		<path fill="#010101" d="M347.7,16.3c-0.1,0-0.1,0-0.1-0.1c-0.5-0.3-0.9-0.6-1.4-1c-0.1-0.1-0.1-0.2,0-0.3c0.3-0.3,0.6-0.6,0.9-1
			c0.1-0.1,0.2-0.1,0.3,0c0.4,0.5,0.7,0.9,1.1,1.4c0,0.1,0.1,0.2,0,0.2c-0.2,0.2-0.4,0.4-0.6,0.6C347.8,16.3,347.8,16.3,347.7,16.3z
			"/>
		<path fill="#010101" d="M354.4,16.2c0,0-0.1-0.1-0.1-0.1c-0.2-0.2-0.3-0.4-0.5-0.5c-0.1-0.1-0.1-0.2,0-0.3c0.3-0.4,0.7-0.9,1-1.3
			c0.1-0.1,0.2-0.2,0.3,0c0.3,0.3,0.5,0.6,0.8,0.9c0,0.1,0,0.2,0,0.2c-0.4,0.4-0.9,0.7-1.3,1C354.5,16.2,354.4,16.2,354.4,16.2z"/>
		<path fill="#010101" d="M345.2,17.5c0.1-0.3,0.1-0.6,0.2-0.9c0-0.2,0.1-0.2,0.3-0.1c0.5,0.2,0.9,0.4,1.4,0.6
			c0.2,0.1,0.2,0.1,0.2,0.3c-0.1,0.2-0.1,0.4-0.1,0.5c0,0.2-0.1,0.2-0.3,0.2c-0.5-0.1-0.9-0.1-1.4-0.2
			C345.2,17.9,345.2,17.9,345.2,17.5z"/>
		<path fill="#010101" d="M346.7,19c0.1,0,0.2,0,0.2,0c0.1,0,0.2,0.1,0.2,0.1c0.1,0.2,0.1,0.4,0.2,0.5c0.1,0.1,0,0.2-0.1,0.2
			c-0.4,0.1-0.7,0.2-1.1,0.4c-0.1,0.1-0.2,0-0.3-0.1c-0.1-0.3-0.3-0.5-0.4-0.8c-0.1-0.2-0.1-0.3,0.2-0.3
			C346,19.1,346.4,19.1,346.7,19z"/>
		<path fill="#010101" d="M350,18.4c0.1-0.2,0.1-0.3,0.2-0.5c0.5-0.5,1.2-0.4,1.7-0.1c0.2,0.1,0.1,0.2-0.1,0.3
			c-0.4,0.2-0.9,0.5-1.3,0.7C350.2,19,350,18.9,350,18.4z"/>
		<path fill="#010101" d="M351,16.6c-0.1,0.1-0.1,0.2-0.2,0.2c-0.5,0.2-0.5,0.2-0.7-0.3c-0.3-0.6-0.3-0.6,0.4-0.7c0,0,0,0,0.1,0
			c0.3-0.1,0.4-0.1,0.4,0.3C351,16.2,351,16.4,351,16.6C351,16.5,351,16.6,351,16.6C351,16.6,351,16.6,351,16.6z"/>
		<path fill="#010101" d="M351.3,16.5c0-0.1,0-0.2,0.1-0.4c0.1-0.5,0.1-0.5,0.5-0.4c0.6,0.1,0.6,0.1,0.3,0.7c0,0,0,0.1-0.1,0.1
			c-0.2,0.6-0.2,0.4-0.7,0.3C351.4,16.8,351.3,16.7,351.3,16.5z"/>
		<path fill="#010101" d="M353.6,16.8c-0.1,0.1-0.1,0.2-0.2,0.2c-0.2,0.2-0.4,0.3-0.6,0.4c-0.1,0-0.2,0-0.2,0
			c-0.3-0.3-0.4-0.2,0-0.6c0.1-0.1,0.2-0.3,0.3-0.4c0-0.1,0.1-0.1,0.2-0.1C353.2,16.5,353.4,16.7,353.6,16.8z"/>
		<path fill="#010101" d="M349,18.4c-0.2,0-0.4,0-0.6-0.1c0,0-0.1,0-0.1,0c-0.2-0.2,0-0.4,0-0.5c0-0.1,0.1-0.3,0.3-0.2
			c0.3,0.1,0.5,0.2,0.8,0.3c0,0,0.1,0.1,0.1,0.1C349.4,18.2,349.2,18.4,349,18.4z"/>
		<path fill="#010101" d="M349.9,17.2c-0.1,0.1-0.2,0.3-0.4,0.4c-0.1,0-0.2,0-0.3-0.1c-0.1-0.1-0.3-0.2-0.4-0.3c0,0-0.1-0.1-0.1-0.1
			c-0.2-0.2,0-0.3,0.1-0.4c0.1-0.1,0.2-0.4,0.5-0.2c0.2,0.2,0.3,0.4,0.5,0.6C349.9,17.1,349.9,17.1,349.9,17.2z"/>
		<path fill="#010101" d="M369.2,43.2c0-0.1,0.1-0.4,0.1-0.4c0.2-0.1,0.4,0,0.6,0c0,0,0.1,0.1,0.1,0.1c0,0.1,0,0.1,0,0.2
			c0,0.5,0,0.5-0.5,0.5c-0.3,0-0.3,0-0.3-0.3C369.2,43.3,369.2,43.3,369.2,43.2C369.2,43.2,369.2,43.2,369.2,43.2z"/>
		<path fill="#010101" d="M349,18.7c0.1,0,0.2,0,0.3,0.1c0.2,0.3,0.2,0.4-0.2,0.5c-0.1,0-0.1,0.1-0.2,0.1c-0.4,0.1-0.6,0-0.7-0.4
			c0-0.1,0-0.2,0.1-0.2C348.5,18.8,348.7,18.8,349,18.7z"/>
	</g>
</g>
<g>
	<g>
		<path fill="#010101" d="M183.4,1.1c0,10.2,0,20.3,0,30.5c0,0,0,0,0,0c-4.4-10.2-8.7-20.3-13.1-30.5C174.7,1.1,179,1.1,183.4,1.1z"
			/>
		<path fill="#010101" d="M147.8,31.6c0-10.1,0-20.3,0-30.4c4.2,0,8.5,0,12.7,0C156.4,11.3,152.1,21.4,147.8,31.6
			C147.9,31.6,147.9,31.6,147.8,31.6z"/>
		<path fill="#010101" d="M173.8,31.7c-0.1,0-0.1,0-0.2,0c-1.7,0-3.4,0-5.1,0c-0.1,0-0.2,0-0.2-0.2c-0.8-1.9-1.6-3.8-2.4-5.8
			c-0.1-0.3-0.1-0.3-0.4-0.3c-1.8,0-3.6,0-5.3,0c-0.1,0-0.1,0-0.2,0c1.8-4.2,3.7-8.5,5.5-12.7C168.3,19.1,171,25.4,173.8,31.7z"/>
		<path fill="#010101" d="M151,36.5C151,36.5,151.1,36.5,151,36.5c0.7,0,1.3,0,2,0c0.9,4,1.9,8.1,2.8,12.1c-0.7,0-1.4,0-2.1,0
			c-0.1-0.5-0.2-1-0.3-1.5c0-0.2-0.1-0.4-0.2-0.7c0,0-0.1-0.1-0.1-0.1c-0.8,0-1.6,0-2.4,0c0,0,0,0-0.1,0c-0.2,0.7-0.3,1.5-0.5,2.2
			c-0.7,0-1.4,0-2.1,0C149.1,44.5,150.1,40.5,151,36.5z M152.9,44.2c-0.3-1.5-0.6-3-0.9-4.4c0,0,0,0,0,0c-0.3,1.5-0.6,2.9-0.9,4.4
			C151.7,44.2,152.3,44.2,152.9,44.2z"/>
		<path fill="#010101" d="M172.5,47.5c0,0.3,0,0.7-0.1,1c-0.5,0-1.1,0-1.6,0c0-4,0-8.1,0-12.1c0.6,0,1.2,0,1.8,0c0,1.3,0,2.6,0,3.9
			c0,0,0,0,0,0c0,0,0,0,0-0.1c0.4-0.6,1-1,1.7-0.9c0.9,0.1,1.5,0.6,1.8,1.4c0.3,0.6,0.4,1.3,0.5,1.9c0.1,0.9,0.1,1.9,0,2.8
			c-0.1,0.7-0.3,1.4-0.6,2.1c-0.3,0.6-0.8,1-1.5,1.1c-0.9,0.1-1.5-0.1-1.9-0.9C172.7,47.8,172.6,47.7,172.5,47.5
			C172.5,47.5,172.5,47.5,172.5,47.5z M174.9,44.1c0-0.2,0-0.5,0-0.8c0-0.2,0-0.3-0.1-0.4c-0.1-0.4-0.2-0.8-0.4-1.2
			c-0.4-0.5-1-0.6-1.4,0c-0.1,0.2-0.3,0.5-0.3,0.7c-0.3,1.1-0.2,2.3,0,3.4c0.1,0.3,0.2,0.7,0.4,1c0.4,0.4,0.9,0.5,1.3,0
			c0.1-0.2,0.2-0.3,0.3-0.5C174.9,45.6,174.9,44.9,174.9,44.1z"/>
		<path fill="#010101" d="M160.3,36.5c0.6,0,1.2,0,1.8,0c0,4,0,8.1,0,12.1c-0.5,0-1.1,0-1.6,0c0-0.3,0-0.7-0.1-1c0,0,0,0,0,0
			c0,0,0,0.1-0.1,0.1c-0.2,0.2-0.3,0.5-0.4,0.7c-0.6,0.7-1.5,0.7-2.1,0.3c-0.5-0.3-0.8-0.7-1.1-1.3c-0.3-0.7-0.4-1.4-0.5-2.1
			c-0.1-1-0.1-2.1,0.1-3.1c0.1-0.7,0.3-1.3,0.8-1.8c0.5-0.7,1.3-0.9,2.1-0.8c0.3,0.1,0.6,0.3,0.9,0.5c0.1,0.1,0.2,0.2,0.3,0.3
			C160.3,39,160.3,37.8,160.3,36.5z M160.4,44.2c-0.1-0.5-0.1-1-0.2-1.5c-0.1-0.4-0.2-0.8-0.4-1.1c-0.4-0.5-1-0.5-1.3,0
			c-0.1,0.2-0.3,0.4-0.3,0.7c-0.3,1.2-0.3,2.5,0,3.7c0.1,0.3,0.2,0.7,0.4,0.9c0.3,0.3,0.8,0.3,1.1,0c0.2-0.2,0.3-0.4,0.4-0.7
			C160.3,45.6,160.3,44.9,160.4,44.2z"/>
		<path fill="#010101" d="M183.7,46c-0.1,0.4-0.2,0.9-0.4,1.3c-0.4,1-1.2,1.5-2.3,1.6c-0.5,0-1,0-1.5-0.3c-0.6-0.3-1-0.7-1.2-1.3
			c-0.3-0.6-0.4-1.3-0.5-2c-0.1-0.8-0.1-1.6,0-2.4c0.1-0.9,0.4-1.8,1-2.5c0.9-1.1,2.6-1.3,3.7-0.5c0.5,0.4,0.9,1,1,1.7
			c0.3,0.8,0.3,1.7,0.3,2.5c0,0.2,0,0.5,0,0.7c-1.4,0-2.8,0-4.2,0c0,0.2,0,0.3,0,0.4c0,0.4,0.1,0.9,0.3,1.2c0.2,0.5,0.7,0.7,1.2,0.6
			c0.2-0.1,0.4-0.2,0.5-0.4c0.1-0.2,0.1-0.4,0.2-0.6c0,0,0.1-0.1,0.1-0.1C182.5,46,183.1,46,183.7,46C183.7,46,183.7,46,183.7,46z
			 M182,43.3c0-0.2,0-0.3,0-0.5c0-0.4-0.1-0.8-0.3-1.1c-0.1-0.2-0.3-0.4-0.5-0.4c-0.4-0.1-0.8,0-1,0.4c-0.3,0.3-0.3,0.7-0.4,1.1
			c0,0.2,0,0.4-0.1,0.6C180.4,43.3,181.2,43.3,182,43.3z"/>
		<path fill="#010101" d="M169.5,44.2c0,0.9-0.1,1.9-0.4,2.7c-0.2,0.5-0.5,1-1,1.4c-1,0.9-3.1,0.9-4.1-0.8c-0.4-0.6-0.6-1.4-0.7-2.1
			c-0.1-1-0.1-2,0.1-3c0.1-0.7,0.3-1.3,0.7-1.9c0.6-0.9,1.5-1.3,2.5-1.2c1.1,0.1,1.8,0.7,2.2,1.7c0.3,0.7,0.5,1.5,0.5,2.3
			C169.5,43.7,169.5,43.9,169.5,44.2z M167.7,44.2c0-0.5-0.1-1-0.1-1.4c0-0.4-0.1-0.8-0.3-1.1c-0.3-0.5-1.1-0.5-1.5,0
			c-0.2,0.2-0.3,0.5-0.3,0.8c-0.2,1.1-0.2,2.2-0.1,3.3c0.1,0.4,0.2,0.7,0.4,1c0.4,0.5,1.1,0.5,1.4,0c0.1-0.2,0.2-0.4,0.3-0.7
			C167.6,45.5,167.6,44.8,167.7,44.2z"/>
		<path fill="#010101" d="M191.9,1.1c0,1.3,0,2.5,0,3.7c-0.3,0-0.5,0-0.8,0c0-0.9,0-1.8,0-2.8c0,0,0,0,0,0c-0.3,0.9-0.7,1.8-1,2.8
			c0,0,0,0,0,0c-0.2,0-0.4,0.1-0.5,0c-0.1-0.1-0.1-0.3-0.2-0.4c-0.3-0.7-0.5-1.4-0.8-2.2c0,0,0-0.1-0.1-0.1c0,0.9,0,1.8,0,2.7
			c-0.3,0-0.5,0-0.8,0c0-1.2,0-2.5,0-3.7c0.1,0,0.2,0,0.3,0c0.2,0,0.4,0,0.6,0c0.1,0,0.1,0,0.2,0.1c0.3,0.9,0.6,1.8,1,2.6
			c0,0,0,0.1,0.1,0.2c0.2-0.5,0.3-1,0.5-1.4s0.3-0.9,0.5-1.4c0-0.1,0.1-0.1,0.2-0.1C191.3,1.1,191.6,1.1,191.9,1.1z"/>
		<path fill="#010101" d="M187.5,1.8c-0.4,0-0.8,0-1.1,0c0,1,0,2,0,3c-0.3,0-0.5,0-0.8,0c0-1,0-2,0-3c-0.4,0-0.8,0-1.1,0
			c0-0.2,0-0.5,0-0.7c1,0,2.1,0,3.1,0C187.5,1.3,187.5,1.6,187.5,1.8z"/>
	</g>
</g>
<g>
	<g>
		<path fill="#010101" d="M43.4,35.7c-1.4,1.1-2.8,2.1-4.2,3.1c-3.8-2.7-7.5-5.4-11.4-8.1c0.1,0,0.2,0,0.2,0c2.7,0,5.4,0,8.1,0
			c0.1,0,0.2,0,0.3,0.1c2.2,1.6,4.5,3.2,6.8,4.8C43.2,35.6,43.3,35.6,43.4,35.7z"/>
		<path fill="#010101" d="M45.2,14.3c0.9-0.6,1.7-1.2,2.5-1.9c0.5-0.4,1-0.7,1.5-1.1c0.1-0.1,0.2-0.1,0.3,0c3.2,2.3,6.4,4.6,9.6,6.9
			c0.5,0.3,0.9,0.7,1.4,1c0.1,0,0.1,0.1,0.2,0.1c-0.1,0-0.2,0-0.2,0c-2.7,0-5.4,0-8,0c-0.2,0-0.3,0-0.5-0.1
			c-2.2-1.6-4.5-3.2-6.7-4.7C45.3,14.4,45.3,14.4,45.2,14.3z"/>
		<path fill="#010101" d="M89.8,22.1C89.8,22.2,89.8,22.2,89.8,22.1c-0.6,2-1.2,3.9-1.8,5.8c-0.1,0.3-0.2,0.6-0.3,0.9
			c0,0.1-0.1,0.2-0.3,0.2c-0.2,0-0.4,0-0.6,0c-0.2,0-0.2-0.1-0.3-0.2c-0.3-1.1-0.7-2.2-1-3.4c-0.3-1.1-0.6-2.1-0.9-3.2
			c0,0,0-0.1-0.1-0.1c0,0.2,0,0.5-0.1,0.7c-0.1,0.9-0.2,1.9-0.2,2.8c-0.1,0.7-0.1,1.4-0.2,2.1c0,0.3-0.1,0.7-0.1,1
			c0,0.1-0.1,0.2-0.2,0.2c-0.3,0-0.7,0-1,0c0.1-0.4,0.1-0.9,0.1-1.3c0.1-0.6,0.1-1.2,0.2-1.8c0.1-0.6,0.1-1.2,0.2-1.8
			c0.1-0.6,0.1-1.1,0.2-1.7c0.1-0.4,0.1-0.9,0.1-1.3c0-0.1,0.1-0.2,0.2-0.2c0.5,0,0.9,0,1.4,0c0.1,0,0.2,0,0.2,0.1
			c0.6,1.9,1.1,3.7,1.7,5.6c0.1,0.2,0.1,0.4,0.2,0.6c0-0.2,0.1-0.3,0.1-0.5c0.4-1.2,0.7-2.4,1.1-3.6c0.2-0.7,0.4-1.3,0.6-2
			c0.1-0.2,0.1-0.2,0.3-0.2c0.4,0,0.9,0,1.4,0c0.1,0,0.2,0.1,0.2,0.2c0.1,0.8,0.1,1.6,0.2,2.4c0.1,0.7,0.1,1.5,0.2,2.3
			c0.1,0.8,0.1,1.5,0.2,2.3c0,0.3,0.1,0.6,0.1,0.8c0,0.1,0,0.1-0.1,0.1c-0.3,0-0.6,0-1,0c-0.1,0-0.1-0.1-0.1-0.1
			c-0.1-0.6-0.1-1.2-0.2-1.9c-0.1-0.7-0.1-1.4-0.2-2.1c-0.1-0.5-0.1-1-0.1-1.6C89.9,22.9,89.9,22.6,89.8,22.1
			C89.9,22.2,89.9,22.2,89.8,22.1z"/>
		<path fill="#010101" d="M107.9,22.4c0,0.1,0,0.2,0,0.2c0,1.6,0.1,3.2,0.1,4.8c0,0.5,0,1,0,1.5c0,0.1-0.1,0.2-0.2,0.2
			c-0.3,0-0.6,0-0.9,0c-0.1,0-0.2-0.1-0.2-0.2c0-2.6,0-5.2,0-7.8c0-0.1,0-0.2,0.2-0.2c0.4,0,0.7,0,1.1,0c0.1,0,0.2,0.1,0.2,0.1
			c1,1.7,1.9,3.5,2.9,5.3c0.2,0.3,0.3,0.6,0.4,0.9c0,0.1,0.1,0.1,0.1,0.2c0,0,0,0,0.1,0c0-0.1,0-0.1,0-0.1c0-0.6-0.1-1.2-0.1-1.8
			c0-0.1,0-0.3,0-0.4c0-1.3,0-2.6,0-3.9c0-0.2,0-0.3,0.2-0.2c0.2,0,0.4,0,0.6,0c0.3,0,0.3,0,0.3,0.2c0,1.2,0,2.4,0,3.6
			c0,1.4,0,2.7,0,4.1c0,0.2-0.1,0.2-0.2,0.2c-0.3,0-0.6,0-0.9,0c-0.1,0-0.2-0.1-0.2-0.1c-1.1-2-2.1-4-3.2-6
			c-0.1-0.1-0.1-0.2-0.2-0.4C107.9,22.5,107.9,22.4,107.9,22.4z"/>
		<path fill="#010101" d="M44.9,25.4c0,0.1,0,0.2,0,0.2c0,1.1,0,2.1,0,3.1c0,0.2-0.1,0.2-0.2,0.2c-0.2,0-0.5,0-0.8,0
			c-0.2,0-0.2-0.1-0.2-0.2c0-2.1,0-4.2,0-6.3c0-0.5,0-1,0-1.5c0-0.1,0.1-0.2,0.2-0.2c0.8,0,1.7,0,2.5,0c0.6,0,1.1,0.1,1.6,0.4
			c0.9,0.5,1.3,1.3,1.1,2.3c-0.1,1-0.9,1.7-1.8,1.8c-0.1,0-0.3,0-0.4,0.1c1.1,1,1.9,2.4,2.7,3.7c-0.2,0-0.4,0-0.5,0
			c-0.2,0-0.5,0-0.8,0c-0.1,0-0.2-0.1-0.3-0.2c-0.6-0.8-1.1-1.7-1.7-2.5c-0.2-0.2-0.4-0.5-0.6-0.7C45.5,25.5,45.2,25.4,44.9,25.4z
			 M44.9,23.2c0,0.4,0,0.9,0,1.3c0,0.1,0,0.2,0.2,0.2c0.5,0,1.1,0,1.6-0.1c0.7-0.1,1.2-0.7,1.2-1.4c0-0.7-0.4-1.2-1.2-1.3
			c-0.5-0.1-1.1-0.1-1.6-0.1c-0.1,0-0.1,0.1-0.1,0.2C44.9,22.3,44.9,22.8,44.9,23.2z"/>
		<path fill="#010101" d="M38.5,20.7c0.9,0,1.7,0.2,2.3,0.7c0.6,0.5,1,1.2,1.2,2c0.2,1.1,0.2,2.2-0.1,3.3c-0.5,1.3-1.4,2.1-2.8,2.3
			c-1,0.1-2,0-2.8-0.7c-0.7-0.5-1.1-1.3-1.3-2.1c-0.3-1.2-0.2-2.4,0.2-3.6c0.5-1.1,1.4-1.8,2.6-2c0.1,0,0.1,0,0.2,0
			C38.2,20.7,38.3,20.7,38.5,20.7z M40.8,25c-0.1-0.5-0.1-1-0.2-1.5c-0.1-0.5-0.2-0.9-0.6-1.3c-0.6-0.7-1.4-0.7-2.2-0.6
			c-0.9,0.2-1.3,0.7-1.5,1.6c-0.3,1.1-0.2,2.2,0,3.3c0.1,0.5,0.3,0.9,0.6,1.3c0.4,0.5,1,0.6,1.6,0.6c0.9,0,1.5-0.4,1.8-1.2
			C40.7,26.4,40.7,25.7,40.8,25z"/>
		<path fill="#010101" d="M57.6,25c-0.1,0.9-0.2,1.7-0.6,2.5c-0.6,0.9-1.4,1.5-2.5,1.6c-0.6,0.1-1.2,0.1-1.8-0.1c-1-0.3-1.7-1-2.1-2
			c-0.5-1.4-0.5-2.7,0-4.1c0.4-1.2,1.4-1.9,2.7-2.1c0.8-0.1,1.7-0.1,2.4,0.4c1,0.5,1.5,1.4,1.7,2.4C57.5,24,57.6,24.5,57.6,25z
			 M51.6,24.8c0.1,0.6,0.1,1.1,0.2,1.6c0.1,0.5,0.3,1,0.7,1.4c0.6,0.5,1.3,0.6,2,0.4c0.8-0.2,1.2-0.8,1.4-1.6c0.3-1.2,0.2-2.3,0-3.5
			c-0.2-0.9-0.8-1.5-1.8-1.6c-1-0.1-1.9,0.2-2.3,1.3C51.7,23.5,51.7,24.1,51.6,24.8z"/>
		<path fill="#010101" d="M74.4,24.9c0-0.7,0.1-1.5,0.4-2.2c0.5-1.1,1.3-1.8,2.6-2c0.6-0.1,1.2-0.1,1.9,0.1c0.9,0.3,1.6,0.8,2,1.7
			c0.7,1.5,0.7,3.1,0.1,4.6c-0.5,1.2-1.4,1.8-2.7,1.9c-0.8,0.1-1.6,0-2.3-0.4c-1-0.5-1.5-1.4-1.7-2.4C74.5,25.9,74.5,25.4,74.4,24.9
			z M75.8,24.8c0,0.4,0,0.7,0.1,1.1c0,0.2,0.1,0.4,0.1,0.6c0.3,1.4,1.2,2,2.7,1.8c0.8-0.1,1.3-0.7,1.5-1.5c0.3-1.2,0.3-2.5,0-3.7
			c-0.2-0.8-0.8-1.4-1.7-1.5c-1.1-0.1-2,0.2-2.4,1.4C75.9,23.6,75.8,24.2,75.8,24.8z"/>
		<path fill="#010101" d="M11.8,24.2c0-0.8,0-1.6,0-2.4c0-0.3,0-0.6,0-0.8c0-0.1,0-0.2,0.2-0.2c0.3,0,0.6,0,0.9,0
			c0.1,0,0.2,0.1,0.2,0.2c0,0.1,0,0.1,0,0.2c0,2.5,0,5,0,7.5c0,0.3,0,0.3-0.3,0.3c-0.2,0-0.5,0-0.7,0c-0.2,0-0.2-0.1-0.2-0.2
			c0-1.1,0-2.3,0-3.4c0-0.2-0.1-0.2-0.2-0.2c-1,0-2,0-3,0c-0.2,0-0.2,0.1-0.2,0.2c0,1.1,0,2.3,0,3.4c0,0.2,0,0.2-0.2,0.2
			c-0.3,0-0.5,0-0.8,0C7.1,29,7,29,7,28.8c0-0.9,0-1.7,0-2.6c0-1.7,0-3.5,0-5.2c0-0.2,0.1-0.2,0.2-0.2c0.2,0,0.5,0,0.8,0
			c0.2,0,0.2,0.1,0.2,0.2c0,1,0,2,0,2.9c0,0.2,0,0.2,0.2,0.2c1,0,2.1,0,3.1,0C11.6,24.2,11.7,24.2,11.8,24.2z"/>
		<path fill="#010101" d="M105.9,29c-0.4,0-0.9,0-1.3,0c-0.1,0-0.1-0.1-0.2-0.2c-0.2-0.6-0.5-1.3-0.7-2c-0.1-0.1-0.1-0.2-0.3-0.2
			c-0.9,0-1.8,0-2.8,0c-0.2,0-0.2,0.1-0.3,0.2c-0.2,0.6-0.4,1.3-0.7,1.9C99.7,29,99.6,29,99.5,29c-0.4,0-0.7,0-1.1,0
			c0.1-0.2,0.1-0.4,0.2-0.5c0.9-2.5,1.8-5,2.7-7.5c0.1-0.2,0.1-0.2,0.3-0.2c0.4,0,0.7,0,1.1,0c0.2,0,0.2,0.1,0.3,0.2
			c0.5,1.5,1.1,3,1.6,4.5c0.4,1.1,0.8,2.2,1.1,3.2C105.8,28.8,105.8,28.9,105.9,29z M103.4,25.7c0-0.1,0-0.1,0-0.2
			c-0.4-1.2-0.7-2.3-1.1-3.5c0-0.1-0.1-0.1-0.1-0.1c0,0.1-0.1,0.1-0.1,0.2c-0.3,1.1-0.7,2.1-1,3.2c-0.1,0.2-0.1,0.3-0.2,0.5
			C101.7,25.7,102.6,25.7,103.4,25.7z"/>
		<path fill="#010101" d="M64.3,20.8c-0.2,0.4-0.5,0.8-0.7,1.2c-0.5,0.8-1,1.6-1.5,2.4c-0.1,0.1-0.1,0.2,0,0.3
			c0.9,1.4,1.7,2.7,2.6,4.1c0,0.1,0.1,0.1,0.1,0.2c-0.5,0-0.9,0-1.4,0c-0.1,0-0.1-0.1-0.2-0.1c-0.6-1-1.2-2.1-1.8-3.1
			c-0.1-0.1-0.1-0.2-0.2-0.3c-0.1,0.1-0.1,0.1-0.1,0.2c-0.6,1.1-1.2,2.1-1.7,3.1c-0.1,0.1-0.2,0.2-0.3,0.2c-0.4,0-0.8,0-1.2,0
			c0.1-0.1,0.1-0.1,0.1-0.2c0.8-1.3,1.6-2.7,2.5-4c0.1-0.2,0.1-0.3,0-0.4c-0.7-1.1-1.4-2.2-2.1-3.4c0-0.1-0.1-0.1-0.1-0.2
			c0.1,0,0.1,0,0.2,0c0.4,0,0.7,0,1.1,0c0.2,0,0.2,0.1,0.3,0.2c0.5,0.8,0.9,1.6,1.4,2.4c0,0.1,0.1,0.1,0.1,0.2
			c0.1-0.1,0.1-0.1,0.1-0.2c0.4-0.8,0.9-1.6,1.3-2.4c0.1-0.1,0.2-0.2,0.3-0.2C63.4,20.8,63.8,20.8,64.3,20.8z"/>
		<path fill="#010101" d="M93.3,24.9c0-1.3,0-2.6,0-3.8c0-0.2,0.1-0.2,0.2-0.2c0.9,0,1.7,0,2.6,0c0.7,0,1.4,0.1,2.1,0.6
			c0.6,0.4,0.9,1,0.9,1.7c0,1.4-0.9,2.4-2.2,2.6c-0.6,0.1-1.3,0-1.9,0.1c-0.3,0-0.3,0-0.3,0.3c0,0.9,0,1.7,0,2.6
			c0,0.3,0,0.3-0.3,0.3c-0.2,0-0.4,0-0.7,0c-0.2,0-0.2-0.1-0.2-0.2C93.3,27.5,93.3,26.2,93.3,24.9z M94.5,23.3c0,0.4,0,0.9,0,1.4
			c0,0.2,0,0.2,0.2,0.2c0.4,0,0.9,0,1.3,0c0.9,0,1.4-0.4,1.6-1.3c0.1-0.9-0.2-1.7-1.3-1.8c-0.5-0.1-1.1,0-1.6-0.1
			c-0.2,0-0.2,0.1-0.2,0.2C94.5,22.4,94.5,22.9,94.5,23.3z"/>
		<path fill="#010101" d="M19.5,20.8c-0.1,0.3-0.1,0.5-0.1,0.7c0,0.1-0.1,0.2-0.2,0.2c-1,0-2,0-3.1,0c-0.2,0-0.2,0.1-0.2,0.2
			c0,0.7,0,1.4,0,2.1c0,0.2,0.1,0.2,0.2,0.2c0.8,0,1.7,0,2.5,0c0.2,0,0.2,0,0.2,0.2c0,0.2,0,0.3,0,0.5c0,0.2-0.1,0.2-0.2,0.2
			c-0.8,0-1.6,0-2.4,0c-0.3,0-0.3,0-0.3,0.3c0,0.7,0,1.5,0,2.3c0,0.3,0,0.3,0.3,0.3c1.1,0,2.2,0,3.2,0c0.2,0,0.3,0.1,0.2,0.2
			c0,0.2,0,0.3,0,0.5c0,0.1-0.1,0.2-0.2,0.2c-0.2,0-0.5,0-0.7,0c-1.3,0-2.6,0-3.9,0c-0.2,0-0.3,0-0.3-0.2c0-2.6,0-5.1,0-7.7
			c0-0.2,0-0.2,0.2-0.2c1.5,0,2.9,0,4.4,0C19.3,20.8,19.4,20.8,19.5,20.8z"/>
		<path fill="#010101" d="M117,24.7c0.2-0.3,0.3-0.6,0.4-0.9c0.5-0.9,1-1.9,1.5-2.8c0.1-0.1,0.1-0.1,0.2-0.1c0.4,0,0.8,0,1.2,0
			c-0.1,0.1-0.1,0.1-0.1,0.2c-0.9,1.5-1.8,3-2.6,4.6c-0.1,0.1-0.1,0.2-0.1,0.4c0,0.9,0,1.9,0,2.8c0,0.2-0.1,0.2-0.2,0.2
			c-0.3,0-0.6,0-0.9,0c-0.2,0-0.2-0.1-0.2-0.2c0-0.9,0-1.9,0-2.8c0-0.1,0-0.3-0.1-0.4c-0.9-1.5-1.8-3.1-2.6-4.6
			c0-0.1-0.1-0.1-0.1-0.2c0.1,0,0.1,0,0.2,0c0.4,0,0.7,0,1.1,0c0.1,0,0.2,0,0.3,0.2C115.6,22.2,116.3,23.4,117,24.7
			C116.9,24.6,116.9,24.6,117,24.7z"/>
		<path fill="#010101" d="M29,28.5c-0.5,0.3-0.9,0.5-1.4,0.6c-0.7,0.1-1.4,0.1-2.2-0.1c-1.1-0.3-1.8-1-2.2-2
			c-0.6-1.4-0.6-2.8,0.1-4.2c0.6-1.2,1.6-1.9,3-2c0.7-0.1,1.5,0.1,2.1,0.4c0.1,0.1,0.2,0.1,0.3,0.2c-0.2,0.2-0.4,0.4-0.5,0.6
			c0,0-0.1,0-0.2,0c-0.4-0.2-0.9-0.4-1.4-0.4c-1,0-1.7,0.5-2.1,1.4c-0.2,0.4-0.2,0.9-0.3,1.3c-0.1,0.7-0.1,1.5,0.2,2.2
			c0.4,1.2,1.5,1.8,2.7,1.7c0.5-0.1,0.9-0.2,1.4-0.5C28.6,28,28.8,28.2,29,28.5z"/>
		<path fill="#010101" d="M73.5,27.7c0.2,0.2,0.4,0.5,0.6,0.7c-0.4,0.3-0.8,0.4-1.3,0.5c-0.9,0.2-1.7,0.2-2.6-0.1
			c-1-0.4-1.7-1.2-2-2.2c-0.4-1.2-0.4-2.5,0.1-3.7c0.6-1.3,1.6-2.1,3.1-2.2c0.8-0.1,1.6,0.1,2.3,0.4c0.1,0,0.1,0.1,0.2,0.1
			c0,0,0,0,0.1,0.1c-0.2,0.2-0.4,0.5-0.6,0.7c-0.4-0.1-0.7-0.3-1-0.4c-1.4-0.3-2.5,0.4-2.9,1.8c-0.3,1.1-0.3,2.2,0.1,3.2
			c0.3,1,1.1,1.5,2.1,1.6C72.3,28.2,72.9,28.1,73.5,27.7C73.4,27.8,73.5,27.8,73.5,27.7z"/>
		<path fill="#010101" d="M27.8,19.3c0.5-0.3,0.9-0.7,1.4-1c5-3.6,10-7.1,15-10.6c0.1-0.1,0.2-0.1,0.3,0c0.3,0.2,0.7,0.5,1,0.7
			c-0.2,0.1-0.4,0.2-0.6,0.3c-5.6,3.5-11.2,7-16.8,10.5C28,19.3,27.9,19.3,27.8,19.3C27.8,19.3,27.8,19.3,27.8,19.3z"/>
		<path fill="#010101" d="M44.3,42.4c-0.4-0.3-0.7-0.5-1.1-0.8c0.1-0.1,0.2-0.1,0.2-0.1c5.7-3.6,11.4-7.2,17.1-10.7
			c0.1-0.1,0.2-0.1,0.3-0.1c0,0,0,0.1,0,0.1C55.3,34.6,49.8,38.5,44.3,42.4z"/>
		<path fill="#010101" d="M6.1,20.8c0,0.3-0.1,0.5-0.1,0.8c0,0.1-0.1,0.1-0.2,0.1c-0.6,0-1.2,0-1.9,0c-0.3,0-0.3,0-0.3,0.3
			c0,2.2,0,4.5,0,6.7c0,0.2,0,0.3-0.2,0.2c-0.2,0-0.5,0-0.8,0c-0.2,0-0.2-0.1-0.2-0.2c0-1.1,0-2.1,0-3.1c0-1.2,0-2.4,0-3.7
			c0-0.2-0.1-0.2-0.2-0.2c-0.6,0-1.2,0-1.9,0c-0.2,0-0.2,0-0.2-0.2c0-0.2,0-0.3,0-0.5c0-0.1,0.1-0.2,0.2-0.2c1.1,0,2.1,0,3.2,0
			c0.8,0,1.7,0,2.5,0C6,20.8,6,20.8,6.1,20.8z"/>
		<path fill="#010101" d="M46.7,9.3c-0.7,0.4-1.3,0.8-1.9,1.2c-4.6,2.9-9.3,5.8-13.9,8.7c-0.1,0.1-0.2,0.1-0.3,0.1c0,0,0,0,0-0.1
			c0.1-0.1,0.1-0.1,0.2-0.2c4.9-3.5,9.8-7,14.7-10.6c0.1-0.1,0.2-0.1,0.3,0C46,8.8,46.4,9,46.7,9.3z"/>
		<path fill="#010101" d="M41.9,40.7c0.7-0.4,1.4-0.9,2.1-1.3c4.6-2.9,9.1-5.7,13.7-8.6c0.1-0.1,0.2-0.1,0.4-0.2c0,0,0,0,0,0.1
			c0,0-0.1,0.1-0.1,0.1c-4.9,3.6-9.9,7.1-14.8,10.7c-0.1,0.1-0.2,0.1-0.3,0C42.5,41.2,42.2,41,41.9,40.7z"/>
		<path fill="#010101" d="M34.8,28.1c-0.1,0.3-0.1,0.5-0.2,0.8c0,0.1-0.1,0.1-0.2,0.1c-0.7,0-1.5,0-2.2,0c-0.6,0-1.2,0-1.9,0
			c-0.2,0-0.2,0-0.2-0.2c0-2.6,0-5.2,0-7.8c0-0.1,0-0.2,0.2-0.2c0.3,0,0.6,0,0.9,0c0.1,0,0.2,0.1,0.2,0.2c0,0.4,0,0.7,0,1.1
			c0,1.9,0,3.8,0,5.7c0,0.3,0,0.3,0.3,0.3c1,0,2,0,3,0C34.7,28.1,34.7,28.1,34.8,28.1z"/>
		<path fill="#010101" d="M48,10.2c-0.5,0.3-1,0.6-1.4,0.9c-4.3,2.7-8.6,5.4-13,8.1c-0.1,0.1-0.2,0.1-0.3,0.1c0,0,0,0,0-0.1
			c0.1-0.1,0.2-0.1,0.2-0.2c2.8-2,5.6-4.1,8.4-6.1c1.6-1.2,3.2-2.4,4.8-3.5c0.1-0.1,0.2-0.1,0.3,0C47.3,9.7,47.7,9.9,48,10.2z"/>
		<path fill="#010101" d="M55.3,30.7c-0.4,0.3-0.8,0.6-1.2,0.9c-4.1,2.9-8.1,5.9-12.1,8.9c-0.2,0.1-0.3,0.2-0.5,0
			c-0.3-0.2-0.6-0.4-0.9-0.7c0.2-0.2,0.5-0.3,0.7-0.4c4.6-2.9,9.1-5.7,13.7-8.6c0.1-0.1,0.2-0.1,0.3-0.1
			C55.3,30.6,55.3,30.7,55.3,30.7z"/>
		<path fill="#010101" d="M36,19.3c4.1-3,8.1-6,12.1-9c0.4,0.3,0.7,0.5,1.1,0.8c-0.1,0.1-0.1,0.1-0.2,0.1c-4.3,2.7-8.5,5.4-12.8,8
			C36.2,19.3,36.1,19.3,36,19.3C36,19.3,36,19.3,36,19.3z"/>
		<path fill="#010101" d="M52.6,30.7c-4.1,3-8.1,6-12.2,9c-0.4-0.3-0.7-0.5-1.1-0.8c0.1-0.1,0.1-0.1,0.2-0.1c4.2-2.7,8.5-5.4,12.8-8
			C52.3,30.7,52.4,30.7,52.6,30.7C52.6,30.6,52.6,30.7,52.6,30.7z"/>
	</g>
</g>
<g>
	<g>
		<path fill="#010101" d="M219.3,21.2c0.1-0.5,0.4-0.5,0.8-0.5c0.7,0,1.4,0,2.1,0c0.1,0,0.1,0,0.2,0c0.4,0,0.6,0.2,0.6,0.6
			c0,4.4,0,8.8,0,13.2c0,0.4-0.1,0.6-0.4,0.7c-0.1,0-0.2,0-0.4,0.1c-0.7,0-1.3,0-2,0c-0.1,0-0.2,0-0.4,0c-0.2-0.1-0.4-0.2-0.4-0.4
			c0-0.1,0-0.1-0.1-0.2C219.3,30.2,219.3,25.7,219.3,21.2z"/>
		<path fill="#010101" d="M247.7,14.4c0.1,0,0.3,0.1,0.4,0.1c0.9,0.2,1.7,1.1,1.7,2.3c-0.1,0.9-0.8,1.8-1.8,2
			c-1.4,0.2-2.7-0.9-2.6-2.3c0.1-1,0.9-1.9,1.9-2c0.1,0,0.1,0,0.2-0.1C247.6,14.4,247.6,14.4,247.7,14.4z"/>
		<path fill="#010101" d="M285,14.4c0.1,0,0.3,0.1,0.4,0.1c0.9,0.2,1.8,1.1,1.7,2.3c-0.1,0.9-0.8,1.8-1.8,2c-1.4,0.2-2.7-1-2.6-2.4
			c0.1-1,0.9-1.8,1.9-1.9c0.1,0,0.1,0,0.2-0.1C284.8,14.4,284.9,14.4,285,14.4z"/>
		<path fill="#010101" d="M265.6,33.9c-0.1,0.1-0.3,0.2-0.4,0.3c-1,0.7-2,1.2-3.2,1.4c-1.1,0.2-2.1,0.2-3.2-0.2
			c-1.3-0.4-2.1-1.4-2.5-2.7c-0.2-0.7-0.3-1.4-0.3-2.1c0-3,0-6.1,0-9.1c0-0.4,0.2-0.7,0.6-0.7c0.8,0,1.6,0,2.5,0
			c0.3,0,0.5,0.2,0.5,0.5c0,0.1,0,0.2,0,0.3c0,2.7,0,5.3,0,8c0,0.5,0,1,0.2,1.5c0.2,0.8,0.8,1.3,1.6,1.3c1.2,0.1,2.2-0.3,3.2-0.9
			c0.2-0.1,0.4-0.3,0.6-0.4c0.1-0.1,0.2-0.2,0.2-0.4c0-3.1,0-6.1,0-9.2c0-0.1,0-0.2,0-0.3c0-0.3,0.2-0.5,0.5-0.5c0.9,0,1.7,0,2.6,0
			c0.3,0,0.5,0.2,0.5,0.5c0,0.1,0,0.1,0,0.2c0,4.3,0,8.6,0,12.9c0,0.2,0,0.3,0,0.4c0,0.3-0.2,0.4-0.5,0.4c-0.7,0-1.3,0-2,0
			c-0.1,0-0.3,0-0.4,0c-0.3,0-0.5-0.2-0.5-0.5c0-0.2,0-0.4,0-0.6C265.6,34.1,265.6,34,265.6,33.9z"/>
		<path fill="#010101" d="M230.2,22.1c0.1-0.1,0.1-0.1,0.2-0.1c1.1-0.8,2.4-1.4,3.7-1.6c0.9-0.1,1.8-0.1,2.7,0.2
			c1.4,0.4,2.3,1.4,2.7,2.8c0.2,0.6,0.3,1.3,0.3,2c0,3.1,0,6.1,0,9.2c0,0.1,0,0.2,0,0.3c-0.1,0.2-0.2,0.4-0.5,0.4
			c-0.4,0-0.8,0-1.1,0c-0.5,0-0.9,0-1.4,0c-0.3,0-0.5-0.2-0.5-0.6c0-0.1,0-0.2,0-0.4c0-2.6,0-5.2,0-7.9c0-0.5,0-1-0.2-1.5
			c-0.3-0.8-0.9-1.3-1.7-1.4c-1.3-0.1-2.5,0.4-3.6,1.1c-0.3,0.2-0.4,0.5-0.4,0.8c0,2.9,0,5.9,0,8.8c0,0.1,0,0.2,0,0.3
			c0,0.5-0.2,0.7-0.6,0.7c-0.8,0-1.6,0-2.4,0c-0.3,0-0.5-0.3-0.5-0.6c0-0.1,0-0.2,0-0.2c0-4.3,0-8.6,0-12.9c0-0.1,0-0.2,0-0.2
			c0-0.3,0.2-0.6,0.6-0.6c0.8,0,1.5,0,2.3,0c0.3,0,0.5,0.2,0.5,0.5C230.2,21.5,230.2,21.8,230.2,22.1z"/>
		<path fill="#010101" d="M249.4,29.3c0,1.7,0,3.5,0,5.2c0,0.4-0.2,0.6-0.4,0.7c-0.1,0-0.2,0-0.3,0c-0.7,0-1.4,0-2.1,0
			c-0.1,0-0.2,0-0.3-0.1c-0.3-0.1-0.4-0.3-0.4-0.7c0-0.1,0-0.1,0-0.2c0-3.4,0-6.8,0-10.2c0-0.3,0-0.3-0.3-0.3c-1,0-2,0-3,0
			c-0.1,0-0.2,0-0.3,0c-0.3,0-0.5-0.2-0.5-0.5c0-0.7,0-1.4,0-2.2c0-0.3,0.1-0.4,0.4-0.4c0.2,0,0.3,0,0.4,0c3.4,0,6.7,0,10.1,0
			c0.2,0,0.3,0,0.5,0c0.2,0,0.4,0.2,0.4,0.4c0,0.8,0,1.5,0,2.3c0,0.3-0.2,0.4-0.4,0.5c-0.1,0-0.2,0-0.3,0c-1,0-2.1,0-3.1,0
			c-0.2,0-0.2,0-0.2,0.2C249.4,25.9,249.4,27.6,249.4,29.3z"/>
		<path fill="#010101" d="M286.7,23.9c0,0.1,0,0.2,0,0.3c0,3.4,0,6.9,0,10.3c0,0.1,0,0.2,0,0.3c-0.1,0.3-0.2,0.4-0.5,0.4
			c-0.4,0-0.9,0-1.3,0c-0.4,0-0.8,0-1.2,0c-0.4,0-0.6-0.2-0.6-0.7c0-0.1,0-0.1,0-0.2c0-3.4,0-6.8,0-10.2c0-0.1,0-0.2,0-0.3
			c-0.1,0-0.2,0-0.3,0c-1,0-2,0-3,0c-0.1,0-0.2,0-0.3,0c-0.3,0-0.5-0.2-0.5-0.5c0-0.7,0-1.5,0-2.2c0-0.3,0.1-0.4,0.4-0.4
			c0.2,0,0.3,0,0.5,0c3.4,0,6.7,0,10.1,0c0.2,0,0.3,0,0.5,0c0.2,0,0.4,0.2,0.4,0.4c0,0.8,0,1.5,0,2.2c0,0.3-0.2,0.5-0.5,0.5
			c-0.3,0-0.6,0-1,0c-0.8,0-1.6,0-2.4,0C286.9,23.9,286.8,23.9,286.7,23.9z"/>
		<path fill="#010101" d="M276.4,27.9c0,2.1,0,4.3,0,6.4c0,0.2,0,0.3,0,0.4c-0.1,0.3-0.2,0.4-0.6,0.5c-0.8,0-1.6,0-2.4,0
			c-0.3,0-0.5-0.2-0.5-0.6c0-0.1,0-0.2,0-0.3c0-4.3,0-8.6,0-12.9c0-0.1,0-0.2,0-0.3c0-0.3,0.2-0.4,0.4-0.4c0.1,0,0.3,0,0.4,0
			c0.7,0,1.4,0,2,0c0.1,0,0.3,0,0.4,0c0.2,0,0.4,0.2,0.4,0.4c0,0.1,0,0.2,0,0.4C276.4,23.7,276.4,25.8,276.4,27.9z"/>
		<path fill="#010101" d="M292.1,34.4c0,0.5-0.4,0.9-0.9,0.9c-0.5,0-1-0.4-1-1s0.4-0.9,1-0.9C291.7,33.5,292.1,33.9,292.1,34.4z
			 M291.2,33.6c-0.5,0-0.8,0.4-0.8,0.8s0.4,0.9,0.8,0.9s0.8-0.4,0.8-0.9C292,33.9,291.6,33.6,291.2,33.6z"/>
		<path fill="#010101" d="M290.8,34.9c0-0.1,0-0.1,0-0.2c0-0.3,0-0.5,0-0.8c0-0.1,0.1-0.2,0.2-0.2c0.1,0,0.2,0,0.3,0
			c0.2,0,0.3,0.1,0.3,0.2c0,0.2,0,0.3-0.2,0.3c0,0,0,0-0.1,0c0.1,0.2,0.2,0.3,0.3,0.5c0,0,0,0,0,0c0,0-0.1-0.1-0.1-0.1
			c-0.1-0.1-0.1-0.2-0.2-0.3c-0.1-0.1-0.2-0.2-0.3-0.1c0,0.1,0,0.2,0,0.2C290.9,34.8,290.9,34.9,290.8,34.9
			C290.9,34.9,290.8,34.9,290.8,34.9z M291.1,34.4C291.1,34.4,291.1,34.4,291.1,34.4C291.1,34.3,291.2,34.3,291.1,34.4
			c0.2,0,0.3-0.1,0.3-0.2c0-0.1-0.1-0.2-0.1-0.2c-0.1,0-0.3,0-0.4,0c0,0,0,0.2,0,0.3C290.9,34.3,291.1,34.3,291.1,34.4z"/>
	</g>
</g>
</svg>
