<?xml version="1.0" encoding="utf-8"?>
<!-- Generator: Adobe Illustrator 18.1.1, SVG Export Plug-In . SVG Version: 6.00 Build 0)  -->
<svg version="1.1" id="Layer_1" xmlns="http://www.w3.org/2000/svg" xmlns:xlink="http://www.w3.org/1999/xlink" x="0px" y="0px"
	 viewBox="15.7 279.2 580.8 169.6" enable-background="new 15.7 279.2 580.8 169.6" xml:space="preserve">
<g>
	<g>
		<path d="M15.7,333.9c0.6-3.8,3.3-4.3,6.6-4.2c5.5,0.1,10.9,0,16.4,0c0.4,0,0.9,0,1.3,0c3.5,0.3,4.7,1.6,4.7,5.1
			c0,35.1,0,70.2,0,105.3c0,3.1-1.1,4.9-3.3,5.5c-0.9,0.2-1.9,0.3-2.9,0.4c-5.4,0-10.7,0-16.1,0c-1,0-1.9-0.1-2.9-0.3
			c-1.8-0.4-3-1.6-3.4-3.4c-0.1-0.5-0.3-0.9-0.4-1.4C15.7,405.2,15.7,369.6,15.7,333.9z"/>
		<path d="M242.1,279.3c1.1,0.2,2.2,0.4,3.2,0.7c7.2,1.6,13.8,8.7,13.3,18.2c-0.4,7.4-6.6,14.5-14.3,15.8
			c-11.3,1.9-21.2-7.1-20.4-18.7c0.6-8,7.2-14.8,15.2-15.7c0.4,0,0.8-0.2,1.2-0.4C240.9,279.3,241.5,279.3,242.1,279.3z"/>
		<path d="M539.6,279.3c1,0.2,2,0.4,2.9,0.6c7.2,1.4,14,8.5,13.6,18.1c-0.4,7.5-6.6,14.6-14.3,15.9c-11.5,1.9-21.7-7.6-20.4-19.1
			c0.9-7.9,7.3-14.4,15.2-15.2c0.4,0,0.8-0.2,1.2-0.4C538.5,279.3,539.1,279.3,539.6,279.3z"/>
		<path d="M384.7,435c-1.1,0.8-2,1.4-2.8,2c-7.6,5.6-16.1,9.3-25.4,10.9c-8.5,1.4-17,1.4-25.2-1.4c-10.4-3.5-16.7-11.1-20-21.4
			c-1.7-5.5-2.5-11.1-2.6-16.8c-0.1-24.3,0-48.6,0-72.9c0-3.5,1.5-5.3,5-5.4c6.5-0.1,13.1-0.1,19.6,0c2.5,0,3.9,1.7,4,4.1
			c0,0.9,0,1.7,0,2.6c0,21.2,0,42.3,0,63.5c0,4.2,0.2,8.3,1.4,12.3c1.9,6.4,6.6,10.1,13.1,10.7c9.4,0.9,17.7-2.3,25.5-7
			c1.6-0.9,3-2.1,4.5-3.2c1.1-0.7,1.5-1.7,1.5-3.1c0-24.5,0-48.9,0-73.4c0-0.9,0-1.7,0-2.6c0.1-2.3,1.6-4,3.9-4.1
			c6.9-0.1,13.7-0.1,20.6,0c2.5,0,3.8,1.7,4,4.3c0,0.5,0,1,0,1.5c0,34.3,0,68.7,0,103c0,1.2-0.1,2.3-0.3,3.5
			c-0.3,2.1-1.6,3.4-3.7,3.5c-5.2,0.2-10.4,0.2-15.7,0.3c-1.1,0-2.1-0.1-3.2-0.2c-2.3-0.3-3.8-1.8-4-4.1c-0.2-1.5-0.2-3-0.3-4.5
			C384.8,436.6,384.8,436,384.7,435z"/>
		<path d="M102.3,340.7c0.6-0.4,1-0.6,1.3-0.9c8.8-6.7,18.8-11,29.8-12.4c7.3-1,14.6-0.9,21.7,1.3c11.3,3.4,18.1,11.2,21.5,22.3
			c1.5,5.1,2.3,10.3,2.3,15.6c0.1,24.4,0,48.8,0,73.2c0,0.9-0.1,1.8-0.3,2.7c-0.5,1.9-1.6,3.1-3.6,3.2c-3,0.2-6,0.3-9,0.3
			c-3.7,0-7.5,0-11.2-0.2c-2.7-0.2-4-1.8-4.2-4.5c0-1,0-1.9,0-2.9c0-21,0-41.9,0-62.9c0-4.1-0.3-8.2-1.4-12.2
			c-2-6.6-6.9-10.5-13.7-11.1c-10.7-0.9-19.8,3.1-28.5,8.7c-2.5,1.7-3.4,3.6-3.4,6.6c0.1,23.5,0.1,47.1,0.1,70.6c0,0.7,0,1.4,0,2
			c0,3.9-1.2,5.6-5.1,5.7c-6.4,0.2-12.9,0.1-19.3-0.1c-2.4-0.1-4-2-4.1-4.4c0-0.6,0-1.3,0-1.9c0-34.3,0-68.6,0-102.9
			c0-0.6,0-1.3,0-1.9c0.1-2.7,1.8-4.6,4.6-4.6c6.1-0.1,12.1-0.1,18.2,0c2.6,0,4,1.6,4.1,4.1C102,336.2,102.2,338.3,102.3,340.7z"/>
		<path d="M255.6,398.6c0,13.9,0,27.8,0,41.7c0,2.9-1.2,4.8-3.5,5.3c-0.8,0.2-1.6,0.3-2.4,0.3c-5.6,0-11.1,0-16.7,0
			c-0.9,0-1.8-0.1-2.7-0.4c-2.2-0.6-3.2-2.2-3.4-5.3c0-0.5,0-1.1,0-1.6c0-27.3,0-54.5,0-81.8c0-2,0-2-2.1-2c-8.1,0-16.2,0-24.3,0
			c-0.7,0-1.5,0-2.2-0.1c-2.5-0.2-4-1.7-4-4.1c-0.1-5.8-0.1-11.5,0-17.3c0-2.2,1.1-3.3,3.2-3.5c1.2-0.1,2.3-0.2,3.5-0.2
			c26.9,0,53.8,0,80.8,0c1.2,0,2.4,0.1,3.6,0.2c1.7,0.2,2.8,1.3,2.8,3c0,6.1,0.1,12.1,0,18.2c0,2-1.5,3.4-3.4,3.7
			c-0.8,0.1-1.6,0.1-2.5,0.1c-8.2,0-16.5,0-24.7,0c-1.9,0-1.9,0-1.9,1.9C255.6,370.8,255.6,384.7,255.6,398.6z"/>
		<path d="M553.2,355c0,0.8,0,1.5,0,2.1c0,27.5,0,54.9,0,82.4c0,0.9-0.1,1.8-0.3,2.7c-0.4,2-1.7,3.3-3.8,3.4
			c-3.4,0.2-6.9,0.3-10.3,0.3c-3.2,0-6.5,0.1-9.7-0.2c-3.3-0.3-4.6-1.8-4.8-5.2c0-0.5,0-1.1,0-1.6c0-27.3,0-54.5,0-81.8
			c0-0.7,0-1.3,0-2.1c-0.9,0-1.6-0.1-2.3-0.1c-8.1,0-16.2,0-24.3,0c-0.7,0-1.5,0-2.2-0.1c-2.3-0.2-3.8-1.7-3.8-4
			c0-5.9,0-11.7,0-17.6c0-2,1.1-3.1,3.1-3.3c1.2-0.1,2.5-0.2,3.8-0.2c26.8,0,53.6,0,80.3,0c1.3,0,2.5,0.1,3.8,0.2
			c1.8,0.2,2.9,1.3,2.9,3.2c0,6,0.1,11.9,0,17.9c0,2.1-1.5,3.7-3.7,3.8c-2.6,0.1-5.1,0.1-7.7,0.1c-6.3,0-12.7,0-19,0
			C554.7,354.9,554,355,553.2,355z"/>
		<path d="M471.1,387.5c0,17.1,0,34.2,0,51.3c0,1.2,0,2.3-0.2,3.5c-0.4,2.3-1.9,3.5-5.1,3.6c-6.4,0.1-12.8,0-19.2-0.2
			c-2.7-0.1-4.1-1.9-4.2-4.6c0-0.7,0-1.5,0-2.2c0-34.4,0-68.8,0-103.1c0-0.8,0-1.6,0-2.3c0.2-2,1.3-3.2,3.2-3.5c1-0.2,2-0.2,3-0.2
			c5.4,0,10.8,0,16.3,0c1,0,2,0.1,3,0.2c1.6,0.2,2.8,1.5,3,3.1c0.1,1,0.1,1.9,0.1,2.9C471.1,353.2,471.1,370.4,471.1,387.5z"/>
		<path d="M596.5,439.1c0,4.3-3.3,7.5-7.5,7.5c-4.3,0-7.7-3.4-7.7-7.6s3.4-7.4,7.7-7.4C593.4,431.6,596.5,434.8,596.5,439.1z
			 M589.1,432.3c-3.8,0-6.7,2.9-6.7,6.7c0,3.8,2.9,6.9,6.6,6.9c3.7,0,6.6-3,6.6-6.9C595.5,435.2,592.8,432.3,589.1,432.3z"/>
		<path d="M586.4,443.3c-0.1-0.4-0.2-0.8-0.2-1.2c0-2,0-4.1,0-6.1c0-1,0.4-1.4,1.4-1.3c0.8,0.1,1.6,0,2.5,0.1c1.2,0,2.2,0.5,2.4,1.8
			s-0.3,2.2-1.6,2.7c-0.2,0.1-0.3,0.2-0.6,0.3c0.7,1.2,1.4,2.4,2.1,3.6c-0.1,0.1-0.2,0.2-0.3,0.3c-0.3-0.2-0.7-0.4-1-0.8
			c-0.5-0.7-0.9-1.3-1.3-2.1c-0.5-1-1.2-1.3-2.5-0.8c0,0.6,0,1.2,0,1.9c0,0.6-0.1,1.1-0.2,1.7C586.8,443.3,586.6,443.3,586.4,443.3z
			 M588.8,438.8c0-0.1,0-0.1,0.1-0.2c0.1,0,0.3,0,0.4,0c1,0.1,1.9-0.2,2-1.2c0.1-0.6-0.5-1.6-0.9-1.7c-1-0.2-2.1-0.2-3,0.1
			c-0.3,0.1-0.3,1.6-0.1,2.3C587.4,438.5,588.3,438.6,588.8,438.8z"/>
	</g>
</g>
</svg>
