<?xml version="1.0" encoding="utf-8"?>
<!-- Generator: Adobe Illustrator 18.1.1, SVG Export Plug-In . SVG Version: 6.00 Build 0)  -->
<svg version="1.1" id="Layer_1" xmlns="http://www.w3.org/2000/svg" xmlns:xlink="http://www.w3.org/1999/xlink" x="0px" y="0px"
	 viewBox="47.6 79.6 544.5 482.1" enable-background="new 47.6 79.6 544.5 482.1" xml:space="preserve">
<g>
	<g>
		<path d="M47.6,440.8c5.4,0,10.8,0,16.1-0.1c1.9,0,2.5,0.9,2.9,2.6c0.8,3.4,1.6,6.8,3.2,9.9c3.1,5.9,8.3,8.8,15,9.2
			c6.9,0.5,13.2-1,18-6.3c5.6-6.2,6.8-17.2,1.5-23.5c-3-3.5-7-5.3-11.2-6.9c-7.7-2.9-15.5-5.5-23.1-8.6c-6-2.5-11.5-6-14.8-11.8
			c-7.4-13.4-5.8-30.8,8.2-41.7c13.2-10.3,35.2-10.4,48.6-0.3c6.3,4.7,9.7,11.2,11,18.9c0.2,1.4,0.4,2.8,0.5,4.2
			c0.2,1.6-0.4,2.6-2.2,2.5c-4.7,0-9.4,0-14.2,0c-1.5,0-2.3-0.7-2.4-2.2c-0.6-7.7-4.9-12.2-12.2-14c-7.6-1.9-14.2-0.4-19.3,6
			c-5.3,6.7-3.9,15.9,3.2,20.6c2.7,1.7,5.7,3,8.7,4.1c7.2,2.7,14.5,4.9,21.6,7.8c10.2,4.3,17.1,11.7,19.3,22.8
			c2.3,11.5,0.4,22.2-7.1,31.5c-5.4,6.6-12.6,10.3-20.9,12.2c-11.3,2.5-22.2,1.3-32.4-4.2c-8.6-4.6-14.4-11.7-17-21.3
			c-0.3-1.3-0.7-2.5-1-3.8C47.6,445.7,47.6,443.2,47.6,440.8z"/>
		<path d="M591.9,475.9c-5.7,0-11.3,0-17,0.1c-1.9,0-3.1-0.7-4.2-2.2c-6.1-8.9-12.3-17.7-18.4-26.5c-1.8-2.6-1.8-2.6-3.5-0.1
			c-6,8.7-12,17.5-17.8,26.3c-1.2,1.9-2.6,2.7-4.9,2.6c-4.6-0.1-9.3,0-13.9-0.1c-0.8,0-1.5-0.5-2.3-0.7c0.3-0.7,0.5-1.4,0.9-2
			c9.1-13.6,18.2-27.1,27.4-40.6c1.3-1.9,1.3-3.1,0-5c-9-12.9-17.9-26-26.8-39c-0.3-0.4-0.5-0.8-1-1.6c1.2-0.1,2-0.3,2.9-0.3
			c4.9,0,9.8,0.1,14.7-0.1c2.3-0.1,3.7,0.8,4.9,2.6c5.1,7.8,10.4,15.6,15.6,23.3c1.8,2.7,1.9,2.7,3.7,0c5.2-7.9,10.5-15.7,15.6-23.6
			c1-1.6,2.2-2.3,4.2-2.3c5.1,0.1,10.2,0,15.3,0.1c0.7,0,1.4,0.2,2.2,0.4c-0.2,0.7-0.3,1.5-0.7,2c-8.1,12.1-16.2,24.1-24.3,36.2
			c-3.9,5.8-3.8,3.7,0.1,9.4c9,13.4,18.1,26.7,27.2,40.1C591.9,475.2,591.9,475.6,591.9,475.9z"/>
		<path d="M297.6,79.6c0.8,7.7,1.6,15.4,2.5,23.1c0.5,4.5,1.2,9,1.8,13.5c0.3,2.5,0.1,2.9-2.5,3.3c-9.9,1.8-19.5,4.5-28.7,8.4
			c-2.3,1-4.5,2-6.6,3.2c-1.6,0.8-2.4,0.4-3-1.2c-4.4-11.2-8.7-22.3-13.2-33.4c-0.8-2,0.2-2.6,1.7-3.4c13.3-6.7,27.1-11.3,42-13
			c0.4,0,0.7-0.3,1.1-0.4C294.2,79.6,295.9,79.6,297.6,79.6z"/>
		<path d="M459.8,561.6c-2.2-0.7-4.6-1.3-6.7-2.2c-3.5-1.6-6.2-4.3-7.9-7.8c-1.2-2.4-0.8-3,1.9-3.1c0.8,0,1.5,0.1,2.3,0
			c2.3-0.3,4,0.6,5.6,2.4c5.9,6.3,15.9,5,19.8-2.6c1.1-2.2,1.3-5,1.5-7.8c-4.4,4.3-9.4,6.1-15.2,5.6c-5.8-0.5-10.7-2.9-14.2-7.7
			c-5.9-8-5.3-20.3,1.6-27.4c7.2-7.4,17.4-7.6,27.3-0.4c0.1-0.2,0.3-0.4,0.4-0.7c0.4-1.2,0.6-3.2,1.3-3.3c1.9-0.4,3.9-0.3,5.8,0
			c0.4,0.1,0.9,1.7,0.9,2.6c0.1,5.6,0,11.1,0,16.7c0,4.8-0.1,9.6,0,14.5c0.3,11-5.7,18.5-15.8,20.8c-0.5,0.1-0.9,0.3-1.3,0.5
			C464.7,561.6,462.3,561.6,459.8,561.6z M464,512.4c-7.7,0-13.3,5.6-13.3,13.2c0,7.4,5.8,13.2,13.1,13.2
			c6.9-0.1,12.9-6.3,12.8-13.3C476.5,518.3,470.9,512.4,464,512.4z"/>
		<path d="M567.6,561.6c-1.2-0.3-2.4-0.7-3.5-1c-4.8-1.4-8.3-4.4-10.8-8.6c-1.6-2.7-1.1-3.5,2-3.5c0.9,0,1.9,0.1,2.8,0
			c1.7-0.1,3,0.4,4.2,1.8c3.6,4.3,8.3,5.6,13.5,3.8c4.9-1.7,7.7-5.3,8.3-10.5c0.2-1.3,0.3-2.5,0.5-4.1c-9.5,8.3-20.8,8.5-28,0.9
			c-7.7-8.2-7.9-21.3-0.4-29.4c7.4-7.9,18.6-7.9,27.8,0c0.1-0.1,0.4-0.2,0.4-0.3c0.6-4.6,0.6-4.6,5.4-4.6c0.8,0,1.5,0,2.3,0
			c0,13,0,26.1,0,39.1c-1.1,4.3-2.7,8.2-6.2,11.2c-3.2,2.7-6.9,4.1-10.8,5.3C572.5,561.6,570,561.6,567.6,561.6z M558.5,525.3
			c0,7.6,5.6,13.5,13,13.5c6.9,0,12.9-6.1,12.9-13.1c0-7.4-5.7-13.3-13-13.2C564.2,512.4,558.6,518,558.5,525.3z"/>
		<path d="M421.3,238.5c-0.1,22.8-7.6,43-22.2,60.4c-15.8,18.8-36.1,30.1-60.2,34.5c-9.6,1.7-19.3,1.7-29,0.7
			c-14.7-1.6-28.4-6-41.5-12.6c-9.7-4.9-18.4-11.1-25.8-19.2c-1.9-2.1-1.9-2.3,0.9-3.3c15-5.3,30.2-10.4,45.1-16
			c24.5-9.2,47.6-21.2,69.2-36c19-13,37.5-26.8,55.2-41.5c2.1-1.8,2.3-1.7,3.2,0.8C419.1,214.2,421.3,228.2,421.3,238.5z"/>
		<path d="M327.8,397.5c3.9-3,7.4-6.6,11.7-8.8c14.1-7.3,28.2-6,41.7,1.8c14.1,8.2,22.1,20.7,23.2,37.1c1.2,19.3-6.4,34.3-23,44.5
			c-5.8,3.6-12.2,5.3-19.1,5.8c-11.1,0.8-20.9-2.1-29.5-9.2c-1.6-1.4-3.1-2.9-5-4.8c0,3.1,0,5.8,0,8.5c0,3.5-0.1,3.6-3.7,3.6
			c-3,0-6,0-9.1,0c-4.4,0-4.4,0-4.4-4.3c0-19.9,0-39.9,0-59.8c0-17,0-34,0-51c0-4,0-4,4.1-4.1c3.3,0,6.6,0,9.9,0
			c3,0,3.2,0.2,3.2,3.2c0,11.5,0,23.1,0,34.6C327.8,395.7,327.8,396.7,327.8,397.5z M387.2,431.1c0-7-2.3-13.7-6.8-19.7
			c-9.9-13.4-30.6-15.2-42.6-3.7c-10.7,10.2-13.3,24.7-6.8,38.2c5,10.5,18.6,17.9,29.8,16.2C376.1,459.7,387.2,446.8,387.2,431.1z"
			/>
		<path d="M458.2,384c24.9,0,45,16.4,49,38.7c2.6,14.4-1.4,27.2-10.6,38.3c-8.6,10.4-19.8,15.8-33.4,16.8
			c-27.1,2.1-48.4-18.4-51.2-42.2c-2.3-19.1,8.9-37.5,24.3-45.7C443.7,386.1,451.6,384.3,458.2,384z M429.2,431
			c0,17.4,13.6,31.2,30.7,31.2c17,0,30.5-14,30.6-31.4c0.1-15.2-11.7-30.7-30.8-30.8C442.5,400.1,429.1,413.7,429.2,431z"/>
		<path d="M155.4,428.1c2.8-3.5,5.7-7,8.5-10.6c7.3-9.2,14.5-18.4,21.7-27.6c1.8-2.3,3.7-3.4,6.7-3.2c4.3,0.2,8.7,0.1,13,0.1
			c0.9,0,1.8,0.1,3.4,0.2c-3.2,3.9-6,7.4-8.8,10.7c-7.8,9.4-15.5,18.8-23.3,28.2c-2.4,2.9-2.3,2.9,0.1,5.9
			c8.7,10.8,17.3,21.7,26,32.6c2.4,3,4.9,6,7.2,9.1c1.4,1.9,1.2,2.5-1,2.5c-4.9,0.1-9.8,0.1-14.7-0.1c-1,0-2.3-0.9-3-1.7
			c-8.8-10.5-17.5-21.1-26.2-31.6c-3.1-3.8-6.3-7.5-9.9-11.2c-0.1,1-0.2,1.9-0.2,2.9c0,12.7,0,25.3,0,38c0,3.8-0.1,3.8-3.8,3.9
			c-3.6,0-7.2,0-10.8,0c-2.6,0-3-0.4-3.1-2.9c0-0.8,0-1.5,0-2.3c0-36.3,0-72.6,0-108.8c0-0.8,0-1.5,0-2.3c-0.1-2,0.8-2.9,2.9-2.9
			c4,0.1,7.9,0.1,11.9,0c2,0,3,0.7,2.9,2.8c-0.1,0.8,0,1.5,0,2.3c0,21,0,41.9,0,62.9c0,1,0,2.1,0,3.1
			C155,427.9,155.2,428,155.4,428.1z"/>
		<path d="M258.7,454.2c1.9-4.8,3.7-9.2,5.4-13.5c5.2-13.3,10.3-26.6,15.5-39.9c1.5-4,3.1-7.9,4.6-11.9c0.6-1.6,1.4-2.2,3.1-2.2
			c4.4,0.1,8.9,0,13.3,0c2.7,0,3,0.3,1.9,3c-3.3,8.1-6.7,16.2-10.1,24.3c-6,14.5-11.9,29-17.9,43.5c-6.3,15.2-12.7,30.3-18.9,45.5
			c-0.7,1.8-1.8,2.5-3.6,2.4c-3.9-0.1-7.7,0-11.6,0c-3.5,0-3.7-0.4-2.4-3.5c3.4-8,6.6-16.1,10.1-24c1.3-2.9,1.2-5.4,0-8.3
			c-4.9-11.6-9.6-23.2-14.3-34.9c-6.1-15-12.2-30.1-18.3-45.1c-1-2.5-0.9-2.8,1.7-2.8c4.4,0,8.9,0.1,13.3,0c2-0.1,2.9,0.8,3.5,2.5
			c5.6,14.9,11.2,29.7,16.8,44.5c2.3,6.1,4.6,12.2,7,18.3C257.8,452.6,258.2,453.1,258.7,454.2z"/>
		<path d="M213.6,118c0.5,0.7,0.8,1.2,1.2,1.7c6.4,9.1,12.8,18.3,19.2,27.3c1,1.4,0.9,2.4-0.3,3.6c-8.4,8.7-14.8,18.7-19.7,29.8
			c-1.1,2.4-1.3,2.5-3.3,0.7c-7-6.4-14-12.9-21-19.3c-1.5-1.4-1.5-2.8-0.8-4.6c4.2-10.9,9.9-21,16.9-30.3c1.9-2.6,4-5,6.1-7.4
			C212.2,119,212.7,118.7,213.6,118z"/>
		<path d="M337.6,118.5c0.9-6.4,1.8-13.1,2.7-19.7c0.5-3.7,0.9-7.5,1.4-11.2c0.4-3.1,0.7-3.4,3.8-2.3c9.6,3.3,18.8,7.4,27.3,12.9
			c2.7,1.7,5.3,3.6,8,5.4c1.3,0.9,1.8,1.9,1.3,3.6c-2.8,8.1-5.5,16.3-8.2,24.4c-0.9,2.7-1.4,2.9-3.6,1.6
			c-9.5-5.5-19.5-9.4-30.2-11.9C337.5,120.6,337.5,120.5,337.6,118.5z"/>
		<path d="M336.7,509.9c0.6-0.5,1.2-1,1.7-1.4c6.3-5.5,15.4-4.7,20.4,2.1c1,1.3,1.5,1.4,2.4,0.1c4.6-6.9,17.1-8.2,23.1-0.4
			c1.3,1.7,2.5,4,2.7,6.1c0.5,8.8,0.5,17.5,0.7,26.3c0,1.4-0.7,2-2.1,2.1c-5.5,0.5-5.9,0.2-5.9-5.1s0-10.6,0-15.9
			c0-1.2-0.1-2.5-0.3-3.7c-1.1-5.3-4.3-8-8.9-7.6c-5,0.4-8.1,3.7-8.2,9.1c-0.1,6.4,0,12.8-0.1,19.3c0,1.3-0.5,3.5-1.1,3.6
			c-2,0.4-4.1,0.2-6.1-0.1c-0.4-0.1-0.7-1.6-0.7-2.5c-0.1-6,0-12.1-0.1-18.1c0-2-0.3-4-0.9-5.8c-0.9-3.2-3.3-4.9-6.4-5.2
			s-6.3,0.2-7.9,3.2c-1.2,2.3-2.1,4.9-2.2,7.5c-0.3,6.1-0.1,12.3-0.1,18.4c0,2.8-0.3,3-3.1,3.1c-4.9,0.1-4.9,0.1-4.9-4.7
			c0-10.1,0-20.2,0.1-30.3c0-1.2,0.6-3.1,1.2-3.3c1.7-0.4,3.8-0.3,5.5,0.2C336.2,506.7,336.3,508.6,336.7,509.9z"/>
		<path d="M302.6,145.3c1.7-0.2,2.3,0.7,2.5,2.3c1.1,8.8,2.3,17.6,3.4,26.4c0.7,6.1,0.6,5.9-5.4,7.4c-5,1.2-10,2.9-14.9,4.5
			c-1.8,0.6-2.6,0.4-3.4-1.5c-3.5-8.5-7.1-16.9-10.6-25.3c-0.2-0.5-0.5-1-0.7-1.6c-1.2-3-1.1-3.6,2-4.6c6.5-2.2,13.1-4.2,19.7-6.2
			C297.5,146,300.1,145.8,302.6,145.3z"/>
		<path d="M178.4,200.6c0.2-3.8,0.5-7.5,0.7-11.1c0.2-2,0.5-2,2.2-0.9c7,4.7,13.9,9.4,21,13.9c1.7,1.1,2.4,2.2,2,4.3
			c-1.7,10.9-1.5,21.8,0.2,32.7c0.4,2.3-0.1,2.8-2.1,2.1c-5.9-2.1-11.7-4.3-17.4-6.7c-1.2-0.5-2.3-2.1-2.6-3.3
			c-1.3-6.9-2.4-13.7-3.3-20.7C178.6,207.5,178.6,203.9,178.4,200.6z"/>
		<path d="M269.9,196c-0.4,0.5-0.8,1.1-1.2,1.5c-5.5,4.7-10.3,9.9-14.1,16.1c-0.8,1.3-1.7,1.6-3,0.6c-7.3-5.6-14.7-11.2-22.1-16.8
			c-1.3-1-1-2.1-0.3-3.2c2.9-4.5,5.7-9.1,9-13.4c2.8-3.6,6.3-6.8,9.4-10.2c1.4-1.5,2.3-1.4,3.5,0.3c5.7,7.6,11.5,15.2,17.3,22.8
			C269,194.4,269.4,195.2,269.9,196z"/>
		<path d="M329.5,178.6c0.9-6.2,1.9-12.3,2.8-18.5c0.6-3.8,1.1-7.7,1.6-11.5c0.2-1.9,0.9-2.7,2.9-2.3c8.3,1.8,16.4,4.3,24,8.2
			c2.9,1.5,3,1.7,1.8,4.6c-3.4,8.5-6.9,17-10.3,25.5c-0.7,1.8-1.6,2.1-3.4,1.5c-5.7-1.9-11.5-3.5-17.3-5.2
			C329.8,180.5,329.5,180.2,329.5,178.6z"/>
		<path d="M427.9,539.9c-8.1,8.9-21.1,7.1-27.6,0.8c-7.5-7.3-8.1-20.8-1.3-28.7c7.7-9,18.3-9.4,28.8-1.2c0.1-0.2,0.2-0.3,0.3-0.5
			c0.3-1.3,0.3-3.6,0.9-3.8c1.8-0.6,3.9-0.4,5.8-0.2c0.5,0.1,1.2,1.4,1.2,2.2c0.2,2.2,0.1,4.3,0.1,6.5c0,8.8,0,17.6,0,26.3
			c0,3.2-0.2,3.3-3.4,3.4c-0.5,0-0.9,0-1.4,0c-2.9-0.1-3-0.1-3.2-3C428,541.2,427.9,540.8,427.9,539.9z M428.1,525.4
			c0-7.3-5.5-12.9-12.8-13.1c-7.1-0.1-13,5.6-13.1,12.8c-0.1,7.4,5.6,13.4,12.8,13.6C422.3,538.9,428,533.1,428.1,525.4z"/>
		<path d="M427.3,171.7c-0.3,0.6-0.5,1.3-1,1.8c-3.4,4-6.9,8-10.4,12c-1.3,1.4-1.8,1.2-2.6-1c-3-8.4-7.1-16.2-12.2-23.6
			c-1.5-2.2-3-4.4-4.8-6.3c-1.7-1.8-1.6-3.2-0.4-5.2c3.5-5.6,6.9-11.3,10.3-17c1.2-2,1.7-2.1,2.9-0.2c3.1,5,6.5,9.8,9,15.1
			c3.2,6.8,5.7,14,8.5,21C426.8,169.4,426.9,170.5,427.3,171.7z"/>
		<path d="M380,214.8c-0.3-0.6-0.5-1.2-0.8-1.8c-3.2-5.8-7.6-10.7-12.4-15.4c-0.4-0.4-0.4-1.8,0-2.4c4.1-6.4,8.3-12.6,12.4-18.9
			c0.8-1.3,1.7-2.5,2.5-3.8c1-1.7,1.9-1.6,3.3-0.3c5.6,5.6,10.3,11.8,14,18.8c2.7,5,2.7,5.2-1.5,8.9c-5.1,4.6-10.4,9-15.7,13.5
			c-0.4,0.3-0.7,0.5-1.1,0.8C380.5,214.4,380.3,214.6,380,214.8z"/>
		<path d="M517.8,509.3c3-1.4,5.8-3.4,8.9-4c10.3-2,18.5,3.1,19.2,14.4c0.5,7.4,0.1,14.9,0.1,22.4c0,1.8-0.7,2.5-2.5,2.5
			c-5.5,0.2-5.5,0.3-5.5-5.3c0-5.1,0-10.2,0-15.3c0-1.6-0.2-3.2-0.6-4.8c-1.1-4.7-4.4-7.2-9.3-7c-5.3,0.2-8.7,2.7-9.7,7.4
			c-0.2,1.2-0.3,2.4-0.3,3.7c0,6,0,12.1,0,18.1c0,2.8-0.3,3-3.1,3.1c-4.9,0.1-4.9,0.1-4.9-4.7c0-10.1,0-20.2,0-30.3
			c0-3.3,0.2-3.5,2.5-3.6c4.1-0.3,4.5,0,5,3C517.7,509.3,517.9,509.5,517.8,509.3z"/>
		<path d="M219.9,236.1c0.7-5.8,1.3-11.6,2.1-17.4c0.4-2.4,0.9-2.6,3-1.6c7.1,3.4,14.1,6.7,21.3,10c3.2,1.5,2.9,1.4,2.4,4.8
			c-0.9,5.4-1.4,10.8-2,16.2c-0.3,2.5-0.5,2.9-2.9,2.4c-6.7-1.2-13.4-2.4-20-3.7c-2.9-0.6-3.2-1-3.3-4c-0.1-2.3,0-4.5,0-6.8
			C220.3,236.1,220.1,236.1,219.9,236.1z"/>
		<path d="M247.9,262.9c0.3,0.3,1.2,1,1.7,1.9c2.5,4.7,4.8,9.6,7.4,14.2c1,1.9,0.5,2.5-1.2,3c-5.2,1.5-10.5,3.1-15.7,4.7
			c-1.4,0.4-2.3,0-3.2-1c-4.7-5.9-8.2-12.4-11.1-19.3c-0.6-1.5-0.6-2.5,1.5-2.6C233.8,263.5,240.4,263.2,247.9,262.9z"/>
		<path d="M310.6,518.5c0-7.6,0-15.3,0-22.9c0-3,0.2-3.3,3.2-3.3c6.4,0,5.9-0.7,5.9,5.7c0,14.2,0,28.5,0,42.7c0,3.9-0.1,4-3.9,4
			c-5.5,0-5.2,0.4-5.2-5.3C310.6,532.4,310.6,525.5,310.6,518.5z"/>
		<path d="M197.7,262.2c3.4,0.2,6.8,0.4,10.2,0.6c1.8,0.1,3,0.9,3.8,2.7c3.6,8.5,8.2,16.4,14.2,23.4c0.4,0.4,0.7,0.9,1,1.3
			c0.9,1.1,0.5,1.7-0.7,2c-1.9,0.5-3.8,1.2-5.8,1.3c-1,0.1-2.3-0.6-3.1-1.4c-8.5-8-15.6-17.2-21.4-27.3c-0.4-0.7-0.6-1.5-0.9-2.3
			c0.9-0.2,1.7-0.5,2.6-0.7C197.6,262,197.6,262.1,197.7,262.2z"/>
		<path d="M314.1,220c-0.4,0.3-1,1.2-1.8,1.4c-2.8,0.9-5.6,1.7-8.4,2.3c-0.6,0.1-1.8-0.5-2.1-1.1c-2.5-5.2-4.9-10.4-7.3-15.7
			c-0.2-0.5,0.3-1.8,0.7-1.9c4.8-1.5,9.6-2.8,14.4-4.1c1.1-0.3,2,0.2,2.2,1.6C312.5,208.1,313.3,213.7,314.1,220z"/>
		<path d="M493.2,525.3c0-5.4,0-10.8,0-16.1c0-2.9,0.2-3.1,3-3.1c0.5,0,0.9,0,1.4,0c3.3,0.1,3.5,0.3,3.5,3.6c0,10.6,0,21.1,0,31.7
			c0,3.2-0.2,3.3-3.4,3.4c-0.5,0-0.9,0-1.4,0c-3-0.1-3.2-0.2-3.2-3.3C493.2,536.1,493.2,530.7,493.2,525.3z"/>
		<path d="M324.1,218.9c0.7-5.7,1.3-10.8,1.9-15.8c0.2-1.9,1.3-2.5,2.9-2.1c4.2,1.1,8.3,2.4,12.5,3.6c1.5,0.4,1.9,1.4,1.2,2.9
			c-2.3,5-4.6,9.9-6.8,14.9c-0.5,1.2-1.3,1.3-2.5,0.9c-2.1-0.7-4.3-1.3-6.6-1.7C324.6,221.3,323.4,220.6,324.1,218.9z"/>
		<path d="M286,236.6c-0.5-0.2-0.9-0.4-1.3-0.6c-4.4-3.1-8.8-6.2-13.2-9.2c-1.3-0.9-1.4-1.9-0.3-3c2.9-3.1,5.8-6.2,8.7-9.3
			c1-1.1,1.9-0.9,2.8,0.2c3.4,4.4,7,8.7,10.4,13.1c0.4,0.5,0.5,1.7,0.2,2.1c-2,2.2-4.1,4.2-6.2,6.2
			C286.7,236.3,286.4,236.4,286,236.6z"/>
		<path d="M350.2,235.7c-0.4-0.3-0.7-0.6-1-0.9c-1.6-1.7-3.2-3.5-4.9-5c-1-0.9-0.9-1.6-0.2-2.6c3.3-4.2,6.5-8.5,9.7-12.8
			c0.9-1.2,1.7-1.5,2.7-0.3c2.6,3,5.2,5.9,7.7,9c0.4,0.5,0.3,2-0.2,2.3c-4.2,3.4-8.5,6.6-12.7,9.8
			C351,235.4,350.7,235.5,350.2,235.7z"/>
		<path d="M261.6,248.2c0.6-2.9,1.2-5.7,1.8-8.6c0.3-1.6,1.2-1.9,2.7-1.3c4.5,1.9,9.1,3.8,13.6,5.5c1.5,0.6,2.1,1.3,1.6,3
			s-0.9,3.5-1.2,5.2c-0.2,1.7-1.1,2.2-2.7,2c-4.4-0.6-8.8-1.1-13.2-1.7C262,252.2,261.8,251.8,261.6,248.2z"/>
		<path d="M276.6,263.2c0.7-0.1,1.5-0.4,2.2-0.3c0.8,0.2,1.8,0.7,2.1,1.3c0.8,1.7,1.3,3.5,2.1,5.3c0.6,1.3,0,1.9-1.2,2.3
			c-3.6,1.2-7.2,2.4-10.7,3.6c-1.3,0.5-2.2,0.1-2.8-1.1c-1.3-2.6-2.7-5.2-3.8-7.9c-0.9-2.1-0.5-2.5,1.7-2.6
			C269.7,263.6,273.1,263.5,276.6,263.2z"/>
		<path d="M308,257.1c0.7-1.5,1.2-3.2,2.3-4.4c5.1-5.3,11.7-4.3,16.7-0.6c1.5,1.1,0.7,1.9-0.5,2.5c-4.2,2.2-8.3,4.5-12.5,6.5
			C310.2,262.8,308.3,261.4,308,257.1z"/>
		<path d="M317.9,239.8c-0.8,0.7-1.4,1.8-2.3,2.2c-5,1.7-5,1.7-7.1-3.2c-2.5-5.8-2.5-5.8,3.8-7.1c0.2,0,0.4-0.1,0.6-0.1
			c3.3-0.6,3.5-0.5,4,2.8c0.2,1.5,0.4,3,0.6,4.5c0,0.2,0,0.4,0,0.6C317.6,239.5,317.8,239.7,317.9,239.8z"/>
		<path d="M320.9,239.1c0.2-1.2,0.4-2.4,0.5-3.6c0.5-4.7,0.6-4.7,5.2-3.8c5.4,1.1,5.5,1.4,3.3,6.4c-0.2,0.3-0.3,0.7-0.5,1
			c-2.4,5.6-1.5,4.1-6.5,3.1C321.1,241.8,320.6,240.8,320.9,239.1z"/>
		<path d="M342.7,242c-0.8,0.9-1.1,1.5-1.6,1.9c-2,1.5-3.9,3-6,4.3c-0.6,0.3-1.9,0.3-2.4-0.2c-2.9-3.2-3.5-2.3-0.4-6
			c1-1.2,2-2.5,3.1-3.7c0.4-0.5,1.3-1.2,1.5-1.1C338.8,238.7,340.7,240.3,342.7,242z"/>
		<path d="M297.9,257.1c-2.2-0.2-4.1-0.4-6.1-0.6c-0.4,0-0.8-0.1-1.1-0.3c-2-1.7-0.3-3.5,0.1-5.1c0.3-1.2,0.5-3.1,2.6-2.4
			c2.5,0.8,5,1.7,7.4,2.7c0.4,0.2,0.9,0.7,1,1.2C302.3,254.9,300.2,257.1,297.9,257.1z"/>
		<path d="M307.1,245c-1.1,1.2-2,2.6-3.4,3.5c-0.5,0.3-1.8-0.3-2.6-0.8c-1.3-0.8-2.5-1.7-3.7-2.6c-0.4-0.3-0.8-0.5-1.1-0.9
			c-1.8-1.9,0.1-3,1.1-3.8c1.3-1.1,2.1-4.2,4.5-2.4c1.9,1.5,3.2,3.9,4.7,5.9C306.9,244.3,306.9,244.6,307.1,245z"/>
		<path d="M492.9,496.3c0.4-1.2,0.7-3.4,1.4-3.6c1.9-0.5,4.1-0.2,6.1-0.1c0.3,0,0.7,0.8,0.8,1.3c0.1,0.6,0.1,1.3,0.1,2
			c0,4.9-0.2,5.1-5.1,4.9c-2.5-0.1-2.9-0.4-2.9-3c0-0.5,0-0.9,0-1.4C493.1,496.3,493,496.3,492.9,496.3z"/>
		<path d="M298.2,260.3c0.5,0.2,2.1,0.4,2.7,1.2c2,2.6,1.5,3.7-1.7,4.8c-0.7,0.2-1.4,0.5-2.1,0.7c-4,1.4-5.6,0.4-6.6-4
			c-0.3-1.2,0.1-1.8,1.3-2C293.7,260.8,295.5,260.6,298.2,260.3z"/>
	</g>
</g>
</svg>
