<svg id="Layer_2" data-name="Layer 2" xmlns="http://www.w3.org/2000/svg" width="31.99" height="31.2" viewBox="0 0 31.99 31.2">
  <defs>
    <style>
      .cls-1 {
        fill: #181616;
        fill-rule: evenodd;
      }
    </style>
  </defs>
  <g id="Layer_1-2" data-name="Layer 1">
    <path class="cls-1" d="M16,0C7.16,0,0,7.16,0,16c0,7.07,4.58,13.06,10.94,15.18.8.15,1.05-.33,1.05-.75,0-.38,0-1.44,0-2.78-4.45.97-5.37-2.11-5.37-2.11-.73-1.85-1.78-2.34-1.78-2.34-1.45-.99.11-.97.11-.97,1.61.11,2.45,1.65,2.45,1.65,1.43,2.44,3.74,1.74,4.65,1.33.15-1.03.56-1.74,1.02-2.14-3.55-.4-7.29-1.78-7.29-7.91,0-1.75.62-3.17,1.65-4.29-.17-.4-.72-2.03.16-4.23,0,0,1.34-.43,4.4,1.64,1.28-.36,2.65-.53,4.01-.54,1.36,0,2.73.18,4.01.54,3.06-2.07,4.4-1.64,4.4-1.64.87,2.2.32,3.83.16,4.23,1.02,1.12,1.64,2.55,1.64,4.29,0,6.15-3.74,7.5-7.3,7.89.57.5,1.09,1.45,1.09,2.95v4.43c0,.43.26.9,1.07.75,6.35-2.12,10.93-8.11,10.93-15.18C31.99,7.16,24.83,0,16,0Z"/>
  </g>
</svg>